<svg width="24" height="37" viewBox="0 -5 24 37" fill="none" xmlns="http://www.w3.org/2000/svg">
<path d="M15.1739 10.5C14.8041 10.5 14.5 10.2014 14.5 9.81057V2.18943C14.5 1.79857 14.8041 1.5 15.1739 1.5H22.8261C23.1959 1.5 23.5 1.79857 23.5 2.18943V9.81057C23.5 10.2014 23.1959 10.5 22.8261 10.5H15.1739Z" stroke="white"/>
<path d="M18.8512 15.5601L18.8577 15.5528L18.864 15.5453C18.8809 15.5249 18.9186 15.5 18.9844 15.5C19.0478 15.5 19.1112 15.5245 19.1568 15.569L23.4405 20.339L23.4467 20.3459L23.4532 20.3526C23.4729 20.373 23.5 20.4234 23.5 20.5C23.5 20.5766 23.4729 20.627 23.4532 20.6474L23.4467 20.6541L23.4405 20.661L19.1566 25.4313C19.0635 25.5229 18.9365 25.5229 18.8434 25.4313L14.5595 20.661L14.5533 20.6541L14.5468 20.6474C14.5271 20.627 14.5 20.5766 14.5 20.5C14.5 20.4234 14.5271 20.373 14.5468 20.3526L14.5533 20.3459L14.5595 20.339L18.8512 15.5601Z" stroke="white"/>
<path d="M9.5 20C9.5 22.4853 7.48528 24.5 5 24.5C2.51472 24.5 0.5 22.4853 0.5 20C0.5 17.5147 2.51472 15.5 5 15.5C7.48528 15.5 9.5 17.5147 9.5 20Z" stroke="white"/>
<path d="M0.825453 2.78685L0.838096 2.78058L0.850365 2.77361L4.68657 0.594972L4.69485 0.59027L4.70295 0.585256C4.87722 0.477306 5.11314 0.462027 5.3597 0.596774L9.18329 2.76825C9.38208 2.8948 9.5 3.1185 9.5 3.32136V7.67864C9.5 7.88149 9.38208 8.1052 9.1833 8.23175L5.35653 10.405L5.34825 10.4097L5.34016 10.4147C5.16589 10.5227 4.92998 10.538 4.68342 10.4032L0.859599 8.23163C0.629315 8.08581 0.5 7.84869 0.5 7.67864V3.32136C0.5 3.08988 0.645752 2.87589 0.825453 2.78685Z" stroke="white"/>
</svg>
