<svg width="104" height="33" viewBox="0 0 104 33" fill="none" xmlns="http://www.w3.org/2000/svg">
<g filter="url(#filter0_d_45_45)">
<path d="M70.4584 12.5C70.4584 13.5498 70.0413 14.5567 69.299 15.299C68.5567 16.0413 67.5498 16.4584 66.5 16.4584C65.4502 16.4584 64.4434 16.0413 63.7011 15.299C62.9587 14.5567 62.5417 13.5498 62.5417 12.5C62.5417 11.4502 62.9587 10.4434 63.7011 9.70106C64.4434 8.95872 65.4502 8.54169 66.5 8.54169C67.5498 8.54169 68.5567 8.95872 69.299 9.70106C70.0413 10.4434 70.4584 11.4502 70.4584 12.5Z" fill="black"/>
<path fill-rule="evenodd" clip-rule="evenodd" d="M91.5 15.2083C92.2183 15.2083 92.9072 14.923 93.4151 14.4151C93.923 13.9072 94.2083 13.2183 94.2083 12.5C94.2083 11.7817 93.923 11.0928 93.4151 10.5849C92.9072 10.077 92.2183 9.79167 91.5 9.79167C90.7817 9.79167 90.0928 10.077 89.5849 10.5849C89.077 11.0928 88.7917 11.7817 88.7917 12.5C88.7917 13.2183 89.077 13.9072 89.5849 14.4151C90.0928 14.923 90.7817 15.2083 91.5 15.2083ZM91.5 16.875C92.0745 16.875 92.6434 16.7618 93.1742 16.542C93.705 16.3221 94.1873 15.9998 94.5936 15.5936C94.9998 15.1873 95.3221 14.705 95.542 14.1742C95.7618 13.6434 95.875 13.0745 95.875 12.5C95.875 11.9255 95.7618 11.3566 95.542 10.8258C95.3221 10.295 94.9998 9.81266 94.5936 9.40641C94.1873 9.00015 93.705 8.67789 93.1742 8.45803C92.6434 8.23816 92.0745 8.125 91.5 8.125C90.3397 8.125 89.2269 8.58594 88.4064 9.40641C87.5859 10.2269 87.125 11.3397 87.125 12.5C87.125 13.6603 87.5859 14.7731 88.4064 15.5936C89.2269 16.4141 90.3397 16.875 91.5 16.875Z" fill="black"/>
<path fill-rule="evenodd" clip-rule="evenodd" d="M42.5 15.2083C43.2183 15.2083 43.9072 14.923 44.4151 14.4151C44.923 13.9072 45.2083 13.2183 45.2083 12.5C45.2083 11.7817 44.923 11.0928 44.4151 10.5849C43.9072 10.077 43.2183 9.79167 42.5 9.79167C41.7817 9.79167 41.0928 10.077 40.5849 10.5849C40.077 11.0928 39.7917 11.7817 39.7917 12.5C39.7917 13.2183 40.077 13.9072 40.5849 14.4151C41.0928 14.923 41.7817 15.2083 42.5 15.2083ZM42.5 16.875C43.0745 16.875 43.6434 16.7618 44.1742 16.542C44.705 16.3221 45.1873 15.9998 45.5936 15.5936C45.9998 15.1873 46.3221 14.705 46.542 14.1742C46.7618 13.6434 46.875 13.0745 46.875 12.5C46.875 11.9255 46.7618 11.3566 46.542 10.8258C46.3221 10.295 45.9998 9.81266 45.5936 9.40641C45.1873 9.00015 44.705 8.67789 44.1742 8.45803C43.6434 8.23816 43.0745 8.125 42.5 8.125C41.3397 8.125 40.2269 8.58594 39.4064 9.40641C38.5859 10.2269 38.125 11.3397 38.125 12.5C38.125 13.6603 38.5859 14.7731 39.4064 15.5936C40.2269 16.4141 41.3397 16.875 42.5 16.875Z" fill="black"/>
</g>
<defs>
<filter id="filter0_d_45_45" x="0" y="0" width="104" height="33" filterUnits="userSpaceOnUse" color-interpolation-filters="sRGB">
<feFlood flood-opacity="0" result="BackgroundImageFix"/>
<feColorMatrix in="SourceAlpha" type="matrix" values="0 0 0 0 0 0 0 0 0 0 0 0 0 0 0 0 0 0 127 0" result="hardAlpha"/>
<feOffset dx="-26" dy="4"/>
<feGaussianBlur stdDeviation="2"/>
<feComposite in2="hardAlpha" operator="out"/>
<feColorMatrix type="matrix" values="0 0 0 0 0 0 0 0 0 0 0 0 0 0 0 0 0 0 0.25 0"/>
<feBlend mode="normal" in2="BackgroundImageFix" result="effect1_dropShadow_45_45"/>
<feBlend mode="normal" in="SourceGraphic" in2="effect1_dropShadow_45_45" result="shape"/>
</filter>
</defs>
</svg>
