<svg width="339" height="322" viewBox="0 0 339 322" fill="none" xmlns="http://www.w3.org/2000/svg">
<path d="M314.05 0.601219C313.443 0.893016 312.705 1.52854 312.415 1.97823C311.02 4.3059 309.343 10.9669 309.953 11.8904C310.191 12.2599 309.927 12.5246 308.319 13.5581C305.312 15.519 304.286 17.3439 305.161 19.1916C305.399 19.6931 306.008 20.4317 306.511 20.8006C308.071 21.9865 307.624 22.8328 304.458 24.5826C300.792 26.5976 297.234 30.2241 295.366 33.7943C294.813 34.8522 294.444 35.2228 293.547 35.5944C292.123 36.1784 291.068 37.2372 291.07 38.0563C291.071 38.4525 291.547 39.1385 292.5 40.0614C293.69 41.2215 293.982 41.6701 294.301 43.0433L294.7 44.6542L292.483 45.1076C289.87 45.6147 287.337 46.5443 285.147 47.7903C282.299 49.381 281.429 50.1488 280.561 51.9206C279.167 54.7238 279.486 56.1763 282.079 58.8133L283.535 60.3164L282.638 60.8465C282.137 61.1645 280.738 61.7749 279.498 62.2264C278.258 62.6516 276.991 63.2088 276.675 63.4208C275.805 63.9773 271.608 65.0687 268.546 65.4973C267.094 65.7115 263.715 66.0351 261.021 66.1988C256.11 66.4726 251.226 66.8255 245.312 67.2861C243.569 67.4216 236.915 67.7251 230.526 67.9753C224.136 68.199 217.904 68.5282 216.664 68.6627C215.423 68.8236 212.651 69.0668 210.459 69.1767C208.294 69.313 205.258 69.6888 203.727 70.0088C200.058 70.7821 194.464 72.6687 191.166 74.2339L188.501 75.5072L186.889 74.9027C182.212 73.168 177.009 72.6762 164.863 72.9111C157.364 73.0577 155.594 73.0083 152.9 72.6173C151.157 72.3565 147.538 72.0729 144.845 71.9724C139.51 71.745 133.304 71.1229 124.508 69.9247C111.275 68.101 106.257 67.8201 99.2872 68.4941C94.7462 68.9256 94.3238 69.0057 90.2072 70.414C85.9323 71.9018 85.9059 71.9018 83.6082 71.7213C82.3669 71.6445 78.6952 71.0175 75.446 70.3898C71.1137 69.4999 68.2346 69.1092 64.4844 68.8258C60.1003 68.4909 56.376 67.9961 56.3756 67.7848C56.3755 67.7319 56.7704 67.0971 57.2707 66.3564C59.5351 62.9967 58.8924 58.4009 55.8783 56.4516C54.0804 55.2663 48.2948 53.9036 43.5937 53.5165C41.7714 53.3879 41.3751 53.2566 41.4008 52.9131C41.4003 52.6753 41.1885 52.3851 40.8714 52.2536C40.3164 52.0169 40.3428 51.9904 41.1861 51.1433C41.7395 50.561 42.1342 49.8469 42.2649 49.1333C42.3957 48.499 42.6323 47.9702 42.8171 47.9698C43.0019 47.943 43.2395 47.9162 43.3979 47.8894C43.53 47.8892 43.7671 47.6245 43.9249 47.3072C44.1618 46.9104 44.1349 46.6727 43.8703 46.3562C43.5791 45.9868 42.9981 45.9616 39.5128 46.1268C30.4298 46.5408 21.534 48.1432 14.1715 50.6674C12.6674 51.1723 11.4005 51.4918 11.3475 51.3862C11.0826 50.9904 12.0051 50.0639 13.4823 49.2685C14.7748 48.5526 15.989 48.2861 22.7203 47.1105C31.933 45.5339 37.8455 44.2278 38.0294 43.7255C38.2658 43.091 36.7821 40.5311 35.6977 39.6614C33.6613 38.0537 29.9095 36.9778 29.9115 37.9818C29.9119 38.1931 30.0443 38.3778 30.1763 38.3775C30.3348 38.3772 30.4409 38.6412 30.4416 38.9847C30.4422 39.3281 30.7602 39.8823 31.1306 40.2515C32.1623 41.227 32.3746 41.755 32.0593 42.5746C31.5336 43.8174 30.6099 44.1098 25.7786 44.6476C24.3002 44.8089 24.1415 44.6772 24.7736 43.8305C25.6164 42.6928 25.3256 42.5349 22.9229 42.6716C20.8635 42.8077 20.2295 42.6769 20.9416 42.2263C21.0998 42.1203 21.9445 41.9337 22.8421 41.8264C24.3204 41.6121 24.8743 41.294 24.8995 40.6599C24.8992 40.5278 23.9222 40.5032 22.6549 40.6114C21.2555 40.7198 20.4104 40.6686 20.4101 40.5101C20.4093 40.0609 21.5436 39.4775 22.7843 39.2901C24.1571 39.1025 25.1595 38.5458 25.1584 37.991C25.1575 37.5418 24.4444 37.4904 22.9928 37.8366C22.2009 38.0231 21.9896 37.9971 21.9891 37.7065C21.9887 37.5216 22.4107 37.283 22.9915 37.2026C24.5753 36.9089 24.892 36.7762 24.8912 36.4063C24.8901 35.8251 26.0516 35.6115 29.5108 35.6048C32.6267 35.5987 32.706 35.625 34.3977 36.52C36.5917 37.7046 39.5282 40.473 40.8792 42.6632C41.8063 44.1673 42.0973 44.431 43.0749 44.7197C44.6337 45.1394 45.5065 45.8774 45.5082 46.7493C45.484 47.8854 44.5895 49.578 43.5612 50.399C42.4012 51.3259 42.3493 51.828 43.3792 51.826C44.9899 51.8229 47.8867 47.7486 47.5136 45.9792C47.2469 44.6059 46.5854 43.9203 45.1322 43.5004C43.8376 43.1066 43.7582 43.0275 43.0157 41.4437C41.9285 39.0945 38.6479 35.904 35.9255 34.5883L33.9167 33.5883L34.285 32.8742C34.8112 31.8428 34.7539 29.5444 34.1442 28.3567C33.4551 27.0107 31.7358 25.5345 30.4147 25.1408C29.6749 24.9308 29.3047 24.6409 29.2511 24.2712C28.2639 18.9891 27.2552 16.3227 25.4818 14.1597C24.7407 13.2628 24.3706 13.0258 23.7104 13.0271C21.7828 13.0308 20.334 14.883 19.8382 17.9487C19.4206 20.4594 19.4795 23.6032 19.9573 24.8968C20.5679 26.5337 20.4893 26.8773 19.461 27.6719C16.9562 29.6054 16.6208 33.6747 18.842 35.2556L19.6088 35.7825L18.0807 37.6084C15.9731 40.1224 14.0257 43.5343 13.1594 46.178C12.5031 48.1872 12.3189 48.5046 11.3695 49.1405C9.73443 50.2269 9.07586 51.0471 9.07786 52.0775C9.0795 52.9229 9.18533 53.0284 10.5332 53.607C11.6432 54.1069 12.0928 54.4759 12.4375 55.1885C12.7822 55.9276 13.2582 56.2966 14.4212 56.8491C15.2669 57.2174 15.9542 57.6123 15.9544 57.6916C15.9545 57.7708 14.7408 58.2487 13.263 58.7272C6.48087 60.9596 2.63069 63.609 0.789436 67.3114C0.000325576 68.8981 -0.0236713 70.1399 0.639354 71.6181C1.70011 73.941 4.18563 75.6535 6.87957 75.9124L8.46425 76.0679L8.67883 77.7848C8.81271 78.7356 9.13307 80.5315 9.426 81.7991C9.69252 83.0668 9.933 84.5194 9.93402 85.0478C9.93505 85.5762 10.1214 86.3684 10.3599 86.7906C10.9166 87.8992 11.397 90.5138 12.0683 96.272C12.6054 100.894 13.9417 109.135 16.371 122.684C16.9583 125.958 17.5466 129.788 17.6814 131.215C17.8162 132.641 18.1097 134.173 18.3482 134.621C18.5603 135.07 18.7466 135.836 18.7476 136.338C18.7486 136.84 18.8819 137.5 19.0674 137.817C19.2528 138.134 19.4137 139.401 19.4425 140.643C19.4718 142.096 19.7121 143.496 20.0576 144.605C20.5888 146.215 21.7121 153.531 22.1975 158.735C22.3321 160.056 22.7052 161.799 23.0502 162.697C23.4748 163.779 23.635 164.703 23.5839 165.602C23.5592 166.447 23.773 167.794 24.1984 169.273C24.5706 170.54 24.8904 172.072 24.8915 172.627C24.895 174.45 25.6975 179.732 27.058 186.837C27.7784 190.692 28.9795 197.295 29.7271 201.521C30.4482 205.72 31.3021 210.289 31.5688 211.662C31.8619 213.036 32.1034 214.99 32.1054 216.021C32.1075 217.104 32.3753 219.032 32.7479 220.537C33.094 221.99 33.5746 224.71 33.8159 226.612C34.0572 228.487 34.4846 230.996 34.7773 232.158C35.4958 234.983 36.4098 243.357 36.2285 245.154C36.0985 246.237 36.1522 246.686 36.523 247.24C36.8938 247.821 36.9747 248.666 37.0086 252.523C37.0711 257.516 37.1241 257.622 38.4687 256.563C39.3389 255.9 43.2161 253.568 44.8516 252.719C46.9356 251.632 54.2986 249.399 56.2788 249.236C57.5988 249.102 58.285 248.915 58.654 248.545C60.0508 247.142 57.2257 247.332 49.8883 249.169C47.5393 249.755 45.2165 250.235 44.7148 250.236C44.2394 250.237 43.5003 250.371 43.1045 250.504C42.7087 250.663 42.2071 250.717 41.9693 250.638C41.6786 250.533 42.1267 250.136 43.3928 249.393C46.5316 247.564 48.4313 246.768 50.7015 246.367C51.9158 246.154 53.473 245.781 54.1856 245.568C55.1092 245.249 55.954 245.168 57.1689 245.272C58.6216 245.427 58.9119 245.374 59.3863 244.897C60.2033 244.077 59.8594 243.76 57.8785 243.526C56.8748 243.423 55.9504 243.292 55.7918 243.24C55.6597 243.187 55.1846 243.32 54.7626 243.559C53.6282 244.116 52.7837 244.355 48.6131 245.182C46.5806 245.609 44.5743 245.877 44.2045 245.825C43.8346 245.747 43.0427 245.88 42.4358 246.119C41.8289 246.358 41.2747 246.518 41.1953 246.439C40.9043 246.122 41.8272 245.46 44.2279 244.293C47.1298 242.86 51.247 241.716 55.471 241.206C57.7942 240.937 58.3748 240.751 58.5853 240.355C59.0852 239.429 58.7149 239.113 57.1837 239.274C51.9299 239.839 45.3835 241.067 43.1935 241.917C42.8504 242.05 42.7445 241.918 42.6642 241.337C42.5567 240.386 41.8439 240.466 40.8426 241.552C39.9994 242.478 39.4714 242.532 39.6019 241.739C39.6798 241.078 40.0491 240.866 43.2419 239.671C50.34 236.989 50.3664 236.989 52.4792 237.117C53.562 237.194 54.9353 237.323 55.5429 237.428C56.3353 237.532 56.6785 237.479 56.9419 237.161C57.4161 236.579 57.098 235.945 56.3586 235.947C55.9889 235.948 54.8531 235.765 53.7964 235.529C51.0225 234.9 49.8083 235.141 42.182 237.771C41.9445 237.851 41.9969 237.666 42.3922 237.242C43.5779 235.919 42.9441 235.894 41.0981 237.165C39.7269 238.119 38.8823 238.359 39.066 237.751C39.2235 237.275 43.6026 235.021 45.8721 234.276C46.9541 233.931 49.4088 233.371 51.283 233.051C53.1837 232.756 54.8201 232.383 54.9519 232.251C55.0836 232.092 55.0567 231.828 54.8185 231.564C54.1039 230.694 47.3192 231.605 42.6485 233.226L40.7484 233.864L41.5918 232.99C42.5405 232.011 42.6715 231.482 41.9849 231.457C40.9021 231.406 44.3852 230.105 47.5789 229.359C52.8314 228.133 53.2537 228.001 53.543 227.419C53.7535 227.048 53.7531 226.837 53.4888 226.706C53.0393 226.416 51.9834 226.603 46.7838 227.828C43.0886 228.707 42.1646 228.841 41.5305 228.631C40.9755 228.394 40.5266 228.422 39.6822 228.714C38.1253 229.272 37.4122 229.22 37.411 228.586C37.4102 228.163 37.8321 227.846 39.1513 227.262C42.027 225.962 46.0647 224.659 49.2058 224.045C52.1358 223.459 52.1886 223.458 53.1138 223.959C53.9861 224.432 54.0653 224.432 54.487 223.982C54.935 223.532 54.9349 223.48 54.2207 222.873C52.3162 221.186 49.0422 221.351 42.6294 223.398C41.9168 223.61 41.3625 223.691 41.3623 223.585C41.362 223.453 41.5465 223.294 41.7576 223.188C42.2853 223.002 42.258 222.5 41.7563 222.501C41.5186 222.502 40.4893 222.794 39.4602 223.166C37.0589 224.016 36.5571 224.017 36.6613 223.251C36.7132 222.775 37.2406 222.431 39.3778 221.555C42.2539 220.387 46.1333 219.217 48.6147 218.789C51.2808 218.308 51.3864 218.282 51.3853 217.727C51.383 216.564 45.311 217.29 39.4525 219.177C36.4176 220.134 35.6518 220.109 38.0264 219.1C39.4512 218.516 40.0045 217.881 39.5547 217.433C39.3959 217.275 38.8681 217.408 38.2349 217.726C37.0742 218.309 36.3351 218.443 36.3343 218.047C36.3336 217.703 42.0858 215.446 44.8835 214.728C46.2295 214.355 48.0772 213.982 48.9484 213.874C50.5589 213.713 51.3238 213.262 50.9795 212.708C50.6881 212.259 48.2591 212.423 44.2468 213.223C41.5016 213.757 40.2608 213.891 39.8379 213.707C39.4415 213.523 38.9135 213.577 38.0163 213.896C36.0107 214.586 35.271 214.403 35.2687 213.24C35.2674 212.553 43.1311 209.791 46.5365 209.256C48.3052 208.988 48.9125 208.987 49.7581 209.276C50.6565 209.565 50.8941 209.538 51.7911 209.113C53.0573 208.477 53.4786 207.842 52.9495 207.314C52.6055 206.972 52.4207 206.972 51.4445 207.423C50.5211 207.848 49.9403 207.902 48.0124 207.773C46.0845 207.671 45.1869 207.752 42.653 208.338C37.8229 209.484 38.2717 209.457 38.7982 208.636C39.1406 208.134 39.1928 207.843 38.9811 207.632C38.7959 207.448 38.2682 207.66 37.2133 208.349C35.7892 209.303 34.9973 209.436 34.9959 208.697C34.9948 208.168 37.6856 206.789 39.8761 206.177C40.9054 205.885 42.9115 205.458 44.3633 205.218C48.2438 204.549 48.191 204.55 48.1899 204.021C48.1881 203.097 46.0229 203.127 40.2947 204.142C37.4438 204.65 34.1167 204.683 34.2478 204.207C34.5103 203.414 43.4572 200.939 47.5231 200.562C50.2688 200.292 51.6146 199.84 51.6134 199.206C51.6132 199.074 51.428 198.889 51.1901 198.784C50.5559 198.548 44.8533 199.166 41.0523 199.914C39.2045 200.261 37.5941 200.449 37.3562 200.317C37.1447 200.212 36.379 200.266 35.6401 200.479C33.5287 201.038 32.8684 200.986 32.8669 200.22C32.8654 199.427 33.7355 198.765 36.3474 197.571C40.0937 195.847 44.1588 195.073 46.7211 195.543C48.2797 195.831 48.4909 195.804 49.2822 195.353C50.3636 194.717 50.4938 193.792 49.4906 193.9C49.121 193.927 46.6918 194.011 44.0776 194.069C39.8264 194.156 39.008 194.237 36.2103 194.956C34.4948 195.408 33.1222 195.675 33.1747 195.543C33.3324 195.147 36.6805 192.34 37.3402 192.074C37.7096 191.941 38.8973 191.648 39.9796 191.435C44.9685 190.501 45.7867 190.261 45.7856 189.706C45.7849 189.363 45.5998 189.205 45.2301 189.205C43.989 189.208 35.0664 190.625 33.4829 191.051C31.7146 191.557 31.5297 191.531 31.5283 190.791C31.5277 190.474 32.1077 190.023 33.3213 189.44C34.7459 188.724 35.0622 188.459 35.0085 188.01C34.9283 187.482 35.2186 187.402 39.4159 186.707C44.405 185.878 47.2289 185.054 47.2277 184.446C47.2268 183.944 46.065 184.026 45.5379 184.555C45.2744 184.846 45.0104 184.873 44.4291 184.663C43.5043 184.348 36.0595 185.287 33.1563 186.058C32.1006 186.351 31.1241 186.591 30.9656 186.591C30.3847 186.592 31.0966 186.036 32.5738 185.267C33.418 184.843 34.4464 184.074 34.8415 183.598C35.8427 182.407 37.6108 181.849 41.5182 181.445C43.9471 181.203 44.5805 181.043 44.6591 180.726C44.7636 180.144 43.9711 179.961 41.4889 179.966C38.9539 179.971 36.103 180.505 33.1476 181.567C30.2449 182.603 30.0865 182.63 29.9795 181.917C29.9259 181.494 30.1892 181.124 30.9803 180.541C32.6415 179.322 34.6208 178.685 39.293 177.804C43.6484 177.003 44.5455 176.631 43.9104 175.892C43.4074 175.259 42.3777 175.341 33.5083 176.917C30.4462 177.477 29.5221 177.558 29.3632 177.294C29.0984 176.899 29.5198 176.369 30.2588 176.13C30.5755 176.05 31.6044 175.573 32.5541 175.095C34.8492 173.929 37.1714 173.158 40.075 172.597C42.0547 172.197 42.4505 172.038 42.4498 171.642C42.4484 170.955 41.6295 170.771 38.5663 170.751C36.4273 170.729 35.3714 170.889 32.389 171.661C30.0928 172.247 28.6674 172.514 28.5086 172.356C28.0059 171.855 28.5594 171.325 29.9583 171.005C32.0699 170.499 33.3099 169.942 33.6256 169.36C34.0203 168.62 33.8353 168.567 32.4367 169.046C30.6423 169.657 30.6681 169.34 32.4624 168.649C33.3068 168.357 35.6032 167.85 37.5567 167.556C41.9388 166.887 41.9388 166.887 41.4888 166.307C40.8801 165.621 35.0715 166.002 31.2709 166.987C29.6609 167.413 28.3148 167.733 28.3147 167.68C28.3146 167.653 28.9477 167.282 29.7126 166.832C30.4775 166.407 31.796 165.454 32.666 164.739C34.5378 163.176 34.9337 163.043 38.7358 162.825C41.1649 162.688 41.64 162.581 41.7185 162.211C41.9799 160.863 33.0821 161.409 28.4642 163.056C27.3031 163.454 26.9862 163.482 26.8801 163.218C26.6678 162.663 27.3272 162.292 29.1484 161.866C30.4154 161.573 31.0484 161.228 31.8655 160.46C33.526 158.845 34.4496 158.5 37.354 158.362C39.2815 158.279 39.915 158.146 39.9145 157.882C39.9123 156.772 36.2152 156.674 31.5961 157.687C27.1089 158.646 26.4225 158.727 26.1841 158.331C25.7337 157.592 26.2608 157.036 28.0551 156.373C31.1952 155.204 34.125 154.564 37.135 154.373C39.4321 154.237 40.0392 154.13 40.0386 153.813C40.0358 152.386 35.9431 152.526 26.5723 154.262C25.8331 154.395 25.8067 154.369 26.2549 154.025C26.5186 153.813 27.2574 153.547 27.9174 153.44C28.9997 153.28 30.3712 152.405 30.0536 152.062C29.9742 151.983 29.2615 152.117 28.4698 152.356C26.8335 152.835 25.6718 152.916 26.0672 152.546C26.7524 151.831 32.7177 150.551 37.8394 149.986C39.3971 149.798 39.9773 149.427 39.3428 149.032C38.4174 148.453 31.6319 148.942 27.0127 149.902C24.4787 150.409 24.0562 150.409 24.0548 149.722C24.0543 149.458 24.371 149.352 25.0576 149.351C27.1701 149.347 29.5972 148.206 29.5953 147.228C29.5938 146.436 30.5702 146.09 33.3426 145.953C36.2734 145.815 36.8009 145.523 36.0859 144.468C35.2648 143.175 31.8321 143.235 27.6361 144.59C26.2903 145.042 25.0499 145.388 24.8914 145.388C24.733 145.388 24.4155 145.045 24.177 144.623L23.7794 143.858L25.7057 143.167C28.3181 142.237 30.3505 141.758 33.2809 141.382C36.0265 141.034 36.4486 140.848 35.9192 140.215C35.3899 139.582 33.1192 139.718 28.2095 140.679C25.781 141.133 23.6955 141.454 23.6161 141.348C23.2722 141.032 24.0369 140.449 25.2509 140.103C25.937 139.891 26.6228 139.493 26.8598 139.149C27.0704 138.805 27.756 138.302 28.3627 137.984C29.3389 137.533 29.9989 137.452 33.2996 137.446C35.9139 137.441 37.234 137.332 37.4448 137.121C37.8138 136.75 37.865 135.957 37.5214 135.747C37.2305 135.562 28.8083 136.292 26.6702 136.692C25.8783 136.826 24.5585 137.119 23.7667 137.332C22.975 137.545 22.2886 137.652 22.2093 137.599C21.9976 137.362 24.1066 135.588 25.3993 134.925C26.1379 134.553 27.6156 134.022 28.7241 133.729C30.4661 133.277 31.2318 133.223 34.0839 133.376C37.5699 133.554 38.5467 133.42 38.5455 132.786C38.5443 132.178 36.9318 131.309 36.1664 131.522C35.7969 131.602 33.9752 131.791 32.0742 131.9C29.7508 132.063 27.5597 132.384 25.3426 132.943C21.9378 133.795 21.1195 133.903 21.1188 133.559C21.1184 133.374 22.4371 132.5 23.3077 132.128C23.5716 132.022 24.31 131.545 24.9166 131.121C26.6042 129.876 28.9531 129.264 32.676 129.072C36.2405 128.88 36.689 128.668 36.2642 127.48C35.9455 126.556 35.1788 126.082 34.8366 126.611C34.705 126.822 34.5471 127.113 34.4945 127.245C34.4683 127.351 32.726 127.619 30.6404 127.834C26.1257 128.266 24.4099 128.586 22.3782 129.409C20.9534 129.993 20.8742 129.993 20.4508 129.545C20.0539 129.096 20.1329 129.017 21.9528 127.877C26.0144 125.333 29.6294 123.979 32.4021 123.973C33.7224 123.971 33.8015 123.918 33.7212 123.363C33.6409 122.809 33.5353 122.782 31.6606 122.865C29.2314 122.976 27.1725 123.402 23.2404 124.625C20.0208 125.635 19.5189 125.584 19.5166 124.395C19.5156 123.866 19.6739 123.787 20.862 123.679C21.8916 123.571 22.3665 123.359 23.0518 122.697C23.9743 121.797 27.8795 120.283 30.6774 119.723C32.2348 119.403 32.8411 118.847 32.1536 118.399C31.7042 118.11 31.5722 118.136 25.264 119.654C19.8004 120.96 19.2988 121.013 19.06 120.406C18.8742 119.905 19.2961 119.613 20.5367 119.373C22.015 119.106 23.6241 118.231 23.9395 117.517C24.3341 116.697 24.7562 116.511 28.7683 115.658C30.5632 115.285 32.1731 114.833 32.3576 114.674C34.1768 113.164 27.3127 113.97 21.4279 115.963C18.4723 116.946 17.9706 116.921 18.2851 115.705C18.4161 115.203 18.7061 114.964 19.4452 114.778C19.973 114.618 21.4239 113.902 22.6636 113.16C25.0638 111.729 26.1984 111.304 27.6772 111.301C28.7862 111.299 29.3929 110.954 29.128 110.506C28.7307 109.872 25.1668 110.381 21.4722 111.551C17.4345 112.827 17.0121 112.881 17.2746 112.061C17.5106 111.242 18.0908 110.844 19.3579 110.63C21.2322 110.336 22.129 109.806 22.5232 108.828C23.0226 107.638 23.7083 107.187 25.688 106.814C27.6677 106.413 28.7226 105.724 28.2198 105.144C27.5316 104.3 22.0679 105.579 18.797 107.355C17.3989 108.098 16.8183 108.284 16.6067 108.073C16.1834 107.651 16.2343 106.7 16.7089 106.303C17.3416 105.773 20.191 104.473 21.7217 104.047C22.8829 103.701 28.6637 102.581 29.3239 102.579C29.4295 102.579 29.5083 102.368 29.5078 102.103C29.5071 101.734 29.1634 101.523 28.0802 101.261C25.8347 100.737 23.9868 101.031 20.2137 102.571C16.5725 104.057 15.7806 104.217 15.7791 103.425C15.778 102.896 19.7341 100.379 22.6362 99.052C24.1928 98.3357 26.8847 97.5643 27.809 97.5625C28.5483 97.5611 29.1543 96.8465 28.7574 96.451C28.0431 95.7391 20.7314 97.2063 17.2224 98.7719C15.3491 99.5946 15.2435 99.5948 15.2419 98.7758C15.2395 97.5076 19.4866 95.3065 22.9976 94.7713C25.347 94.3969 26.6646 92.9941 24.4206 93.2626C21.9654 93.558 17.927 94.4905 16.4494 95.0747C14.708 95.7914 14.4438 95.739 14.442 94.8144C14.4406 94.0746 15.0208 93.7036 17.607 92.8796C19.6126 92.2152 22.7274 91.6279 26.4499 91.2244C27.9019 91.0366 29.1954 90.7963 29.3272 90.6904C29.7489 90.2669 28.9291 89.6344 27.9784 89.6362C26.4205 89.6392 20.0322 90.7084 17.0234 91.4805C15.0439 91.9863 14.1727 92.0936 14.1723 91.8823C14.1719 91.6973 15.7018 90.7961 17.5747 89.8413C20.3974 88.3828 23.0097 87.4002 27.0212 86.2299C28.2616 85.8841 27.4424 85.5422 25.3827 85.5462C23.6927 85.5759 22.6897 85.7628 20.3674 86.5334C17.1743 87.5964 14.9572 88.1291 14.9566 87.8121C14.956 87.4951 17.2506 86.0904 19.4403 85.0557C20.522 84.5517 22.9232 83.6223 24.7968 83.011C26.776 82.3467 28.1479 81.7364 28.1476 81.5514C28.1456 80.5475 26.0333 80.6308 23.9229 81.7181C23.3425 82.0099 21.2052 82.8331 19.1205 83.5504C17.0358 84.2678 14.8984 85.0646 14.3708 85.3298C13.3156 85.8338 12.9457 85.7288 13.182 85.0415C13.4186 84.4862 17.2163 82.0482 20.3556 80.4569C23.1783 79.0248 27.9283 77.404 28.5361 77.667C28.8004 77.7457 28.9322 77.6398 28.9316 77.3492C28.9294 76.2131 23.9941 77.5701 17.6093 80.4358C15.3668 81.4706 13.3613 82.2142 13.1764 82.1617C12.595 81.9251 12.8048 81.1849 13.7009 80.3113C15.4406 78.6699 24.5425 74.4251 26.7339 74.2623C27.4467 74.1817 28.0266 73.6522 27.6565 73.4151C27.2335 73.1781 22.0077 74.5093 19.4218 75.5182C18.0498 76.0757 15.9918 76.978 14.8838 77.5349C13.7495 78.1184 12.7733 78.5694 12.7205 78.5695C12.5357 78.5699 13.1134 76.9307 13.561 76.2429C14.3508 74.9997 22.3188 71.5761 25.6714 71.0147C27.0969 70.8006 27.4129 70.3509 26.1718 70.3533C23.5576 70.3583 18.5432 71.7947 14.4275 73.7314C12.6599 74.5538 11.8682 74.7931 11.7358 74.582C11.3914 74.0279 11.7077 73.7102 13.9758 72.2792C18.1429 69.6555 21.8635 68.248 24.7682 68.2424C25.6396 68.2407 26.009 68.1343 26.0085 67.8701C26.0068 66.9719 24.6073 66.9746 20.4104 67.881C17.0582 68.5744 13.8388 69.7167 12.5467 70.6439C11.6501 71.2797 11.0692 71.3073 10.8569 70.7529C10.4853 69.7761 10.6957 69.3265 11.962 68.69C14.8638 67.2313 21.5936 65.2367 24.6825 64.9401C25.633 64.8326 28.537 64.5099 31.1506 64.1878C36.5627 63.5432 43.0056 63.4515 45.4096 63.9488C49.6363 64.8388 51.8829 65.9177 51.8852 67.1066C51.8867 67.8728 51.57 67.9526 50.1167 67.4799C48.7692 67.0598 47.9244 67.1407 47.9254 67.6691C47.9262 68.0918 49.7496 68.7752 50.8851 68.8258C51.9414 68.8502 52.1532 69.1404 52.1565 70.8048C52.1582 71.6767 52.1582 71.7031 51.1544 71.5201C49.1997 71.2069 45.6875 71.0816 45.3182 71.3201C44.6854 71.7704 45.2406 72.1128 46.8253 72.2947C47.644 72.3724 49.308 72.5805 50.4966 72.7367L52.6361 73.0232L52.7442 74.2911C52.772 75.0044 52.7995 75.5856 52.7731 75.5856C52.7467 75.5857 52.2974 75.4016 51.7952 75.1648C50.3944 74.4806 49.5241 75.0371 50.5029 75.9863C50.794 76.2764 51.2431 76.4076 51.9295 76.327C52.9856 76.2193 53.2238 76.5094 53.2265 77.8833C53.2275 78.4381 53.0956 78.4912 51.7753 78.4937C50.0325 78.4971 48.4228 79.0815 48.6352 79.6359C48.7149 79.8999 49.3489 80.0572 50.5638 80.1341C52.8086 80.2883 53.8658 80.7882 53.9732 81.6863L54.0538 82.373L51.9674 82.245C50.0396 82.143 49.8284 82.1699 49.5653 82.6723C49.1969 83.36 49.3026 83.4126 51.1251 83.6469C52.4458 83.8292 54.2954 84.4069 54.2958 84.6447C54.2959 84.6975 54.5362 86.018 54.8297 87.6026C55.1232 89.1873 55.3635 90.5078 55.3636 90.5606C55.3637 90.6135 55.1261 90.6403 54.862 90.6409C53.1984 90.6441 53.1207 91.4104 54.6801 92.1471C55.8431 92.7261 55.8431 92.7261 56.4021 95.05C56.695 96.3176 56.9894 98.3249 57.0181 99.4873L57.1014 101.601L55.7283 101.603C54.1704 101.633 53.8538 101.818 54.3303 102.399C54.542 102.662 55.1232 102.793 55.9418 102.792C57.4998 102.789 57.4201 102.551 57.6416 107.808C57.8077 111.771 58.2912 115.997 58.9844 119.43C59.1978 120.513 59.7338 124.581 60.1902 128.437C60.6202 132.32 61.2367 137.048 61.531 139.003C61.8252 140.931 62.0395 142.515 61.9868 142.568C61.9605 142.595 61.4321 142.49 60.8245 142.333C59.4242 141.966 58.2366 142.311 58.2381 143.078C58.239 143.553 58.424 143.606 60.2724 143.602L62.2793 143.598L62.4395 144.523C62.5461 145.024 63.0273 148.062 63.5353 151.257C64.0696 154.453 64.79 158.309 65.1627 159.841C65.5353 161.372 66.1229 164.806 66.4979 167.5C67.4354 174.367 67.836 176.665 68.7941 180.52C69.5923 183.636 69.6193 183.953 69.2236 184.166C68.9598 184.298 68.5908 184.616 68.3272 184.854C67.9319 185.278 67.9584 185.33 68.699 185.963C69.1222 186.332 69.6251 186.912 69.7841 187.229C70.2613 188.179 70.1326 189.897 69.501 191.008C68.7641 192.304 69.0295 192.964 70.4028 193.067C71.3008 193.144 71.3537 193.197 71.6733 194.623C71.9397 195.811 71.9404 196.208 71.651 196.71C71.3879 197.239 71.3884 197.503 71.7596 198.269C72.2899 199.377 72.8502 202.362 73.4136 206.905C73.6283 208.727 74.1082 211.051 74.4534 212.055C74.7987 213.084 75.3319 215.699 75.6535 218.155C75.975 220.533 76.5361 223.913 76.9092 225.683C77.2823 227.452 77.6555 229.221 77.7354 229.618C77.842 230.119 77.6581 230.595 77.184 231.23C76.8153 231.733 76.4996 232.341 76.5001 232.579C76.5009 232.975 76.6594 233.028 77.5305 232.868L78.56 232.707L78.8812 234.899C79.042 236.114 79.4685 238.201 79.8409 239.574C80.1868 240.92 80.4801 242.426 80.4811 242.928C80.4834 244.09 80.9896 246.414 81.4137 247.259L81.7584 247.945L76.3193 248.273C67.2365 248.792 58.8946 250.05 51.4517 251.94C47.2816 253.032 45.8302 253.51 46.0683 253.747C46.1741 253.853 45.4356 254.303 44.4331 254.755C39.2883 257.063 38.2331 257.593 36.3342 258.812C34.6991 259.872 34.0665 260.481 33.4085 261.619C32.1715 263.708 32.0671 264.342 32.7828 265.768C33.525 267.219 34.8211 268.353 36.4329 268.878C38.3354 269.509 43.5656 270.397 45.15 270.394C46.8663 270.364 51.8821 269.641 53.8088 269.135C54.5742 268.949 55.1813 268.815 55.1814 268.868C55.1815 268.921 54.9184 269.397 54.6025 269.926C53.9182 271.09 53.8691 272.992 54.4787 274.154C54.9292 274.998 56.0934 276.158 56.9392 276.579C57.4678 276.843 57.4948 277.133 57.6623 281.836C58.0825 294.226 60.8797 306.902 64.8288 314.397C66.8431 318.198 67.9022 319.675 69.3035 320.571C70.7577 321.546 71.8406 321.676 73.5295 321.117C77.1449 319.922 77.7772 319.207 78.5094 315.507C78.9541 313.34 79.0313 312.256 78.919 308.822C78.8354 306.576 78.6722 304.12 78.5124 303.407C77.3127 297.544 76.7805 295.431 75.4521 291.259C72.3967 281.648 69.9564 276.026 68.715 275.87C68.1075 275.792 68.1075 275.765 68.9243 274.865C70.3998 273.172 71.1357 271.374 71.1845 269.339C71.2089 268.309 71.2601 267.437 71.26 267.384C71.2862 267.305 71.5771 267.542 71.921 267.858L72.5824 268.465L74.5089 267.88C77.0161 267.135 79.7334 265.835 83.0305 263.927L85.6681 262.363L87.3849 262.571C88.3357 262.701 90.7133 263.198 92.6683 263.697C97.2125 264.877 100.778 265.187 108.753 265.171C113.532 265.162 115.776 265.052 117.519 264.732C119.683 264.331 120.053 264.33 122.298 264.722C126.525 265.454 128.004 265.609 135.452 266.308C139.44 266.67 144.299 267.216 146.228 267.503C152.646 268.415 156.872 268.592 168.279 268.385C179.448 268.152 181.851 267.988 192.252 266.621C195.684 266.165 200.78 265.68 203.605 265.516C218.919 264.667 227.631 263.831 262.322 259.959C277.687 258.238 277.581 258.239 282.231 259.392C284.344 259.916 286.51 260.335 287.039 260.334C287.963 260.332 288.016 260.385 288.202 261.309C288.416 262.445 289.185 264.055 290.138 265.295C290.773 266.139 290.8 266.192 290.486 268.015C290.303 269.02 289.622 271.689 288.993 273.963C287 281.1 286.007 286.861 285.624 293.626C285.317 298.567 286.445 308.049 287.638 310.715C288.248 312.114 290.286 314.303 291.475 314.856C292.559 315.382 294.513 315.405 295.674 314.901C296.782 314.449 299.153 311.512 300.31 309.185C301.283 307.228 302.437 302.866 303.115 298.559C303.819 293.987 303.719 283.023 302.91 274.676C302.291 268.627 302.29 268.283 302.711 267.384C303.001 266.802 303.528 266.246 304.082 265.981C305.031 265.53 305.585 264.842 305.899 263.732C306.162 262.86 306.794 262.145 307.349 262.144C307.586 262.143 308.193 261.957 308.668 261.692C309.169 261.453 310.674 261.16 312.152 261.025C314.66 260.809 319.121 259.69 321.575 258.629C323.474 257.833 325.135 256.429 325.898 255.027C327.161 252.7 326.842 251.644 324.038 249.034L322.028 247.162L321.784 244.256C321.596 242.328 321.614 238.286 321.787 231.997C322.086 222.618 322.162 221.191 323.086 207.292C323.368 203.223 324.11 190.699 324.748 179.443C325.948 158.331 326.052 157.142 327.584 143.823C328.077 139.463 328.672 133.2 328.877 129.95C329.109 126.727 329.573 120.861 329.908 116.95C330.27 113.012 330.682 107.622 330.809 104.927C330.962 102.232 331.27 97.4228 331.475 94.2785C331.886 88.0955 332.382 71.8463 332.318 66.1133C332.314 64.1583 332.364 62.3616 332.442 62.0973C332.521 61.8329 333.075 61.4884 333.814 61.2756C335.239 60.8765 336.742 59.4998 337.61 57.8072C338.82 55.4271 337.677 51.8362 334.9 49.3317C333.577 48.119 328.316 45.0381 327.048 44.7235C326.335 44.54 326.968 43.9839 328.604 43.3995C330.82 42.6026 331.216 42.1791 331.397 40.3558L331.552 38.876L329.965 37.3203C328.536 35.9228 328.298 35.527 327.501 33.2036C326.413 30.0618 324.745 27.925 321.492 25.5271C320.302 24.6576 319.324 23.8933 319.323 23.814C319.297 23.7348 320.062 23.2842 321.012 22.8068C323.887 21.2953 324.438 19.4977 322.822 16.7531C322.265 15.7767 320.281 13.984 319.515 13.7213C319.357 13.6687 319.514 13.0608 319.829 12.3204C320.881 9.96701 320.475 5.05373 318.991 2.12398C317.904 0.0653582 316.213 -0.486171 314.05 0.601219ZM317.199 4.18822C317.279 4.2409 317.57 4.87443 317.836 5.64006C318.181 6.66978 318.236 7.56793 318.134 9.52321C317.982 12.9581 317.903 13.0639 316.398 12.8555C315.737 12.7511 314.601 12.5683 313.888 12.4112L312.594 12.1495L313.438 11.6195C314.73 10.7979 315.572 9.13188 315.568 7.4146C315.567 6.54275 315.407 5.75045 315.168 5.4339C314.639 4.748 314.664 4.06103 315.245 3.92783C315.667 3.82132 316.803 3.9512 317.199 4.18822ZM24.7205 16.4333C25.0651 17.1459 25.4889 17.8056 25.6475 17.911C25.7797 17.99 25.9127 18.4917 25.9137 18.9937C25.915 19.6806 25.7047 20.1565 25.1513 20.7124C24.7296 21.136 24.2549 21.4803 24.1229 21.4806C23.7004 21.4814 22.2156 18.3403 22.2139 17.4685C22.2118 16.3853 22.9223 15.1422 23.5297 15.141C23.8729 15.1403 24.2699 15.5623 24.7205 16.4333ZM317.961 15.6265C319.018 16.1793 320.632 17.7085 321.162 18.7114C321.401 19.1601 321.401 19.3979 321.138 19.689C320.69 20.2711 319.949 19.8234 319.578 18.7409C318.994 17.0776 317.566 16.3142 317.251 17.4773C317.12 17.9267 316.883 18.0064 315.483 18.0091C313.318 18.0133 311.839 17.752 311.97 17.3818C312.023 17.2232 312.524 17.0373 313.105 16.9569C314.504 16.7429 314.794 16.5309 314.792 15.5798C314.79 14.7872 314.79 14.7872 315.873 14.9437C316.455 15.0482 317.406 15.337 317.961 15.6265ZM314.484 20.0982C315.461 20.3605 315.145 20.7839 314.01 20.7332C310.497 20.5023 310.048 20.3974 310.047 19.8162C310.047 19.552 313.084 19.7311 314.484 20.0982ZM314.65 24.0609C316.05 24.3488 317.081 24.7166 317.24 24.9541C317.346 25.1652 318.271 25.8768 319.25 26.5354C321.576 28.0632 323.138 29.8039 324.198 32.1268C325.312 34.5288 325.79 35.9017 325.606 36.1134C325.5 36.1929 324.998 36.141 324.496 35.9571C323.545 35.6683 323.017 35.775 323.018 36.2506C323.019 36.5148 323.389 36.699 327.062 38.1978C328.833 38.9077 329.653 39.7251 329.152 40.2281C328.994 40.3869 328.598 40.3348 328.016 40.0453C325.849 38.9135 319.086 37.5792 312.721 37.0103C308.126 36.6229 300.653 36.8752 296.746 37.5697C295.163 37.8634 293.763 38.0246 293.658 37.972C293.129 37.6296 294.078 36.9672 296.11 36.25C298.195 35.5061 298.643 35.426 303.317 35.2848C309.337 35.0882 315.887 35.5247 318.001 36.2603C318.794 36.523 319.771 36.7589 320.194 36.758C321.065 36.7563 322.701 35.9606 323.359 35.2195C323.807 34.7431 323.807 34.611 323.463 34.0569C323.251 33.7402 322.985 33.0274 322.879 32.5256C322.692 31.5221 320.046 28.5682 318.724 27.8838C317.508 27.2521 316.399 27.4656 317.325 28.1507C317.722 28.467 317.94 32.2446 317.599 33.0907C317.336 33.7517 316.253 33.8331 310.866 33.5529C306.746 33.3496 303.736 33.3818 298.878 33.7083C297.742 33.7897 297.768 33.3141 298.98 31.9115L300.034 30.6677L305.526 30.525C309.724 30.4112 311.177 30.4612 311.785 30.7242C312.498 31.0399 311.97 31.0937 307.165 31.2352C301.699 31.4043 299.244 31.7789 299.245 32.4658C299.246 33.0735 299.801 33.1517 301.015 32.7002C301.965 32.3285 303.153 32.2205 307.114 32.1864C311.444 32.1515 312.184 32.203 313.03 32.6504C313.585 32.9136 314.219 33.0709 314.43 32.9648C314.878 32.8054 314.956 32.1183 314.56 31.8813C314.427 31.8023 314.374 31.4061 314.452 31.0096C314.583 30.4018 314.477 30.217 313.896 29.9539C313.182 29.6383 313.182 29.6119 313.656 29.0825C314.104 28.5797 314.104 28.5269 313.654 28.105C313.258 27.7095 312.597 27.6579 308.346 27.6662C305.679 27.6713 303.434 27.5964 303.328 27.491C303.223 27.3855 303.592 27.1998 304.146 27.0403C305.334 26.7209 311.961 26.576 312.411 26.8393C312.887 27.1554 313.757 26.731 313.756 26.1762C313.756 25.912 313.411 25.305 313.014 24.8566C312.379 24.1445 312.009 23.9867 310.557 23.831L308.866 23.6494L310.583 23.6196C311.533 23.5913 313.356 23.7992 314.65 24.0609ZM310.454 25.1522C311.114 25.4416 311.167 25.415 308.421 25.6317C305.491 25.8752 305.226 25.4266 308.077 25.0776C309.423 24.89 309.899 24.9155 310.454 25.1522ZM30.8686 27.7026C31.9792 28.5194 32.6943 29.6013 32.3517 29.9454C31.9827 30.316 30.6612 29.7109 29.1537 28.4721C28.5189 27.9713 27.7787 27.5501 27.4883 27.5506C27.2242 27.5511 26.9863 27.4195 26.986 27.261C26.985 26.759 30.0488 27.0965 30.8686 27.7026ZM24.6139 29.5641C24.9324 30.3825 24.7746 30.7263 24.0616 30.7277C23.7447 30.7283 22.6892 31.1002 21.6866 31.5249C19.7342 32.4005 19.3381 32.3749 19.3362 31.4237C19.3347 30.6047 19.7829 30.2868 21.894 29.543C24.1898 28.7459 24.3218 28.7457 24.6139 29.5641ZM312.125 29.1119C312.178 29.4553 311.545 29.5094 307.769 29.5431C305.313 29.5479 302.831 29.6584 302.197 29.7389C301.194 29.9257 301.062 29.8731 301.141 29.4767C301.245 28.8953 303.384 28.6798 308.612 28.6961C311.438 28.717 312.045 28.795 312.125 29.1119ZM32.0642 31.5047C31.7213 31.6639 31.0611 31.6652 30.4799 31.5342C29.5553 31.3247 29.6081 31.2981 31.0868 31.2953C32.3014 31.2665 32.5392 31.3189 32.0642 31.5047ZM309.556 38.8922C309.82 39.0503 308.553 39.1584 305.728 39.1639C303.404 39.1684 300.315 39.2536 298.862 39.3357C297.384 39.4443 296.327 39.4199 296.433 39.2876C296.565 39.1552 298.466 38.993 300.657 38.8831C307.179 38.6327 309.133 38.6289 309.556 38.8922ZM306.522 40.4833L308.899 40.558L306.787 40.747C302.167 41.1787 296.569 41.2952 296.674 40.978C296.753 40.7929 297.069 40.5809 297.386 40.5011C298.019 40.3677 302.508 40.3326 306.522 40.4833ZM323.346 41.9566C323.743 42.3786 324.087 42.9855 324.141 43.3553C324.221 43.9628 324.142 44.0158 323.271 43.9911C322.769 43.9656 322.003 43.8879 321.633 43.7829C321.052 43.6519 320.973 43.52 321.157 43.1498C321.315 42.9117 321.472 42.383 321.577 41.96C321.655 41.5108 321.892 41.2461 322.183 41.2456C322.447 41.245 322.976 41.561 323.346 41.9566ZM303.251 42.0484C303.066 42.1809 301.879 42.3681 300.611 42.4763C299.37 42.5579 298.103 42.7189 297.813 42.7988C297.443 42.9052 297.364 42.8525 297.548 42.6407C297.707 42.4819 299.026 42.2416 300.452 42.1331C301.904 41.9982 303.224 41.8635 303.356 41.8633C303.515 41.8366 303.462 41.9159 303.251 42.0484ZM316.565 44.9816C320.342 45.2913 324.146 46.0237 327.396 47.0478C328.717 47.4679 330.276 47.914 330.884 48.0714C332.31 48.4649 334.427 50.363 335.195 51.9732C335.991 53.6361 335.995 55.7761 335.258 57.2042C333.943 59.6902 333.362 59.797 332.434 57.7116L331.771 56.2598L332.35 55.4661C332.772 54.9105 332.929 54.3025 332.927 53.2721C332.95 51.4491 332.553 51.0007 329.487 49.4215C327.689 48.5003 326.897 48.2376 325.92 48.2395C324.203 48.2429 323.755 48.6929 324.128 50.066C324.287 50.6205 324.341 51.3601 324.236 51.7302C324.106 52.3117 324 52.3648 322.97 52.2346C322.362 52.1566 320.461 51.9753 318.744 51.7937C317.054 51.6385 315.574 51.4036 315.495 51.2716C315.416 51.1397 315.574 51.0337 315.811 51.0332C316.524 51.0318 317.236 50.2379 317.234 49.4453C317.232 48.4413 316.306 47.3863 315.17 47.0979C313.004 46.5209 307.405 46.2147 304.95 46.5365C303.656 46.6976 302.31 46.753 301.966 46.6744C301.649 46.5693 301.227 46.623 301.042 46.7819C300.884 46.9143 300.198 47.127 299.538 47.2339C296.212 47.7424 286.869 50.4289 286.87 50.878C286.87 51.1158 287.214 51.168 288.296 51.0866C288.771 51.0593 288.983 51.1381 288.878 51.3233C288.772 51.482 288.482 51.6146 288.218 51.6152C287.743 51.6161 287.136 52.0928 287.137 52.4627C287.138 52.8854 289.699 52.6427 292.549 51.9766C300.652 50.0851 301.312 49.9781 306.805 49.809C309.709 49.7241 312.006 49.746 311.927 49.8255C311.822 49.9314 309.631 50.1734 307.043 50.3898C298.779 51.0927 293.922 51.9476 290.175 53.3815C288.698 53.9392 288.435 54.5738 289.624 54.7828C290.363 54.9135 290.363 54.9135 289.15 55.4971C288.464 55.8419 287.804 56.1073 287.672 56.1076C287.329 56.1082 285.326 58.305 285.301 58.6749C285.302 59.2561 284.879 59.072 283.768 57.991C283.159 57.3845 282.55 56.4874 282.364 55.9065C282.098 54.9559 282.124 54.7181 282.703 53.4488C283.991 50.6987 286.945 48.5793 291.378 47.2762C294.44 46.3984 299.719 45.3049 302.438 45.009C305.633 44.6858 312.842 44.6454 316.565 44.9816ZM308.464 47.7714C309.653 48.0862 308.994 48.4045 307.145 48.4081C306.089 48.4101 303.607 48.5999 301.653 48.815C299.7 49.0302 298.063 49.1654 298.036 49.1126C297.745 48.849 302.075 48.1537 306.273 47.8021C306.853 47.7481 307.461 47.6941 307.593 47.6674C307.751 47.6407 308.121 47.6928 308.464 47.7714ZM36.9299 48.6681C37.0358 48.8265 36.7456 48.9327 36.2703 48.9336C35.7949 48.9346 35.5043 48.8294 35.6096 48.6707C35.6885 48.512 36.0052 48.4057 36.2692 48.4052C36.5333 48.4047 36.8504 48.5098 36.9299 48.6681ZM31.5196 50.2374C31.5199 50.3431 30.7544 50.5295 29.8304 50.637C28.9064 50.718 26.6361 51.0923 24.762 51.4658C20.829 52.2396 21.0402 52.2128 21.3564 51.8952C21.7255 51.551 25.1041 50.8311 28.3513 50.4285C29.8824 50.2142 31.2024 50.0531 31.3344 50.0264C31.44 50.0262 31.5194 50.1053 31.5196 50.2374ZM35.4827 51.313C35.4829 51.445 35.2719 51.5776 35.0343 51.578C34.7702 51.5785 32.5526 51.8206 30.0974 52.116C27.6421 52.4114 25.5828 52.6003 25.5034 52.5212C25.4241 52.4421 25.5296 52.3891 25.7408 52.3622C25.952 52.3618 27.8263 52.0676 29.9381 51.72C34.2674 51.0247 35.482 50.9431 35.4827 51.313ZM319.486 53.1397C322.074 53.3724 322.946 53.5557 324.241 54.1608C325.113 54.5818 326.329 55.1343 326.963 55.3973C329.474 56.4228 331.461 59.8271 330.752 61.8628C330.568 62.3651 330.467 64.8752 330.474 68.1777C330.497 79.9873 329.3 102.843 327.647 121.947C327.363 125.277 327.081 129.795 327.006 131.962C326.958 134.128 326.725 136.876 326.516 138.039C326.307 139.229 325.97 142.03 325.736 144.276C325.529 146.522 325.114 150.274 324.828 152.6C324.126 158.387 323.87 162.43 323.416 173.21C323.063 182.009 322.653 188.271 322.392 189.724C322.313 190.094 322.083 194.19 321.881 198.84C321.527 206.714 321.116 212.554 320.827 213.505C320.643 214.166 319.713 238.421 319.721 242.543L319.729 246.321L319.148 246.19C318.804 246.111 317.14 245.56 315.448 244.955C306.411 241.802 294.817 240.9 281.036 242.248L279.716 242.383L280.903 241.826C281.562 241.534 283.7 240.869 285.653 240.363C288.662 239.618 289.507 239.51 291.065 239.639C292.597 239.769 292.993 239.715 293.283 239.344C293.493 239.106 293.572 238.842 293.493 238.763C293.413 238.684 292.172 238.554 290.746 238.478C288.396 238.376 286.363 238.565 281.875 239.393C280.661 239.633 281.055 238.681 282.348 238.23C284.011 237.645 288.208 236.844 291.851 236.415C293.725 236.2 295.283 235.959 295.336 235.906C295.388 235.853 295.256 235.615 295.018 235.378C294.224 234.587 286.805 235.024 281.631 236.144C281.367 236.197 281.156 236.145 281.156 236.039C281.155 235.907 281.472 235.774 281.894 235.721C282.528 235.64 282.607 235.534 282.605 234.715L282.604 233.791L284.9 233.205C286.167 232.885 288.912 232.484 290.972 232.321C296.569 231.861 296.991 231.808 296.99 231.385C296.99 231.174 296.673 230.91 296.303 230.831C295.008 230.517 286.665 230.982 283.788 231.516C282.283 231.81 280.989 231.997 280.936 231.944C280.698 231.734 281.226 231.257 282.123 230.885C282.941 230.54 283.02 230.408 282.86 229.721L282.7 228.956L285.683 228.421C289.088 227.781 291.86 227.406 295.213 227.135C297.563 226.945 298.249 226.601 297.561 225.915C297.111 225.467 287.157 226.12 284.042 226.787C282.67 227.08 281.508 227.32 281.482 227.32C281.192 227.321 281.534 226.712 282.324 225.812C283.009 224.992 283.563 224.648 284.751 224.328C287.231 223.636 289.739 223.315 294.07 223.121C297.449 222.956 298.162 222.849 298.161 222.532C298.16 221.581 287.597 221.681 283.374 222.666C281.685 223.066 281.183 222.988 281.657 222.406C282.79 221.056 290.973 219.376 296.439 219.365C298.05 219.362 298.551 219.282 298.551 218.991C298.549 218.066 297.889 217.962 292.132 218.132C289.069 218.217 286.033 218.434 285.4 218.594C283.842 218.967 282.178 218.521 282.176 217.675C282.175 217.173 282.439 217.014 283.706 216.668C286.213 215.977 288.008 215.709 292.787 215.409C295.295 215.219 297.408 215.057 297.46 215.004C297.513 214.951 297.486 214.713 297.406 214.475C297.274 214.132 296.561 214.081 292.732 214.088C288.718 214.096 284.177 214.395 282.514 214.769C281.3 215.035 281.959 214.4 283.489 213.816C284.492 213.391 285.072 213.02 285.124 212.703C285.176 212.438 285.282 212.227 285.387 212.227C285.493 212.226 285.968 212.093 286.443 211.96C286.918 211.801 289.637 211.532 292.462 211.315C296.792 210.989 297.664 210.855 297.953 210.459C298.243 210.062 298.216 209.93 297.82 209.64C297.555 209.455 297.185 209.403 296.948 209.483C296.737 209.589 294.545 209.778 292.064 209.889C287.733 210.109 283.615 210.539 282.823 210.831C282.032 211.15 282.453 210.462 283.244 210.117C283.719 209.931 284.431 209.507 284.827 209.137C285.829 208.289 290.844 207.249 294.303 207.19C295.676 207.161 296.943 207.026 297.128 206.894C297.312 206.735 297.814 206.76 298.395 206.97C299.215 207.259 299.373 207.259 299.584 206.942C299.979 206.333 299.899 205.963 299.264 205.357C298.602 204.751 297.44 204.674 296.464 205.204C295.99 205.469 294.089 205.684 291 205.901C288.386 206.065 285.482 206.361 284.531 206.574C283.581 206.761 282.71 206.842 282.604 206.737C282.366 206.499 282.628 205.653 282.972 205.653C283.104 205.653 283.684 205.176 284.237 204.62C285.608 203.244 286.901 202.977 293.08 202.753C297.463 202.613 298.096 202.532 298.36 202.109C298.833 201.342 298.094 201.132 294.687 201.139C291.492 201.145 285.023 201.554 283.677 201.847C283.228 201.927 282.938 201.875 282.937 201.716C282.937 201.426 283.412 201.187 284.916 200.709C285.523 200.522 285.681 200.337 285.627 199.915C285.547 199.439 285.732 199.307 286.946 199.067C291.565 198.133 296.978 197.858 298.458 198.463C299.515 198.91 301.151 198.431 301.15 197.692C301.149 197.031 300.832 196.952 296.87 196.749C293.305 196.571 288.421 196.897 284.593 197.592C283.141 197.832 282.666 197.833 282.665 197.595C282.664 196.697 285.406 194.684 287.306 194.178C289.207 193.699 293.351 193.215 295.781 193.211C296.758 193.209 297.84 193.127 298.184 193.047C298.843 192.861 298.974 192.016 298.34 191.779C297.23 191.358 287.381 191.932 285.032 192.545C284.24 192.758 283.528 192.865 283.448 192.785C283.369 192.706 283.632 192.389 284.028 192.097C284.397 191.78 284.766 191.224 284.818 190.854C284.896 190.273 285.107 190.14 287.007 189.714C288.327 189.421 290.809 189.178 293.528 189.067C298.043 188.9 298.756 188.687 297.777 187.87C297.46 187.606 296.113 187.53 292.311 187.537C289.538 187.543 286.898 187.627 286.449 187.733C285.71 187.893 285.63 187.867 285.735 187.418C285.814 187.101 285.628 186.784 285.179 186.494C284.809 186.231 284.491 185.941 284.491 185.835C284.49 185.307 290.879 184.502 295.262 184.493C298.484 184.487 298.51 184.487 298.43 183.879L298.349 183.298L291.431 183.338L284.486 183.378L284.485 182.77C284.484 182.031 285.169 181.527 287.28 180.783C288.494 180.358 289.814 180.197 293.194 180.032C297.128 179.84 299.108 179.466 298.632 179.018C298.261 178.649 294.485 178.524 290.445 178.743C287.646 178.907 285.904 178.91 285.745 178.752C285.454 178.462 286.904 177.165 287.722 177.005C288.039 176.925 290.494 176.576 293.186 176.175C299.417 175.291 299.258 175.318 299.257 174.736C299.255 173.548 297.327 173.551 289.698 174.729C285.633 175.371 285.501 175.371 286.265 174.762C286.582 174.47 286.845 174.074 286.844 173.836C286.843 173.175 288.663 172.141 290.827 171.582C292.015 171.263 294.365 170.994 296.583 170.858C298.616 170.748 300.305 170.587 300.305 170.481C300.305 170.375 300.12 170.138 299.908 169.953C299.591 169.69 298.376 169.666 294.679 169.778C290.375 169.919 288.554 170.16 285.914 170.931C285.571 171.038 285.492 171.012 285.65 170.853C285.808 170.72 286.442 170.455 287.075 170.269C287.893 170.029 288.131 169.844 287.919 169.633C287.707 169.422 287.364 169.449 286.678 169.662C284.91 170.194 284.829 169.243 286.57 168.552C287.203 168.313 287.757 167.837 287.994 167.387C288.204 166.964 288.679 166.54 288.995 166.434C289.629 166.248 294.487 165.816 298.79 165.57C300.19 165.488 301.351 165.301 301.351 165.168C301.35 164.614 299.818 164.405 296.121 164.412L292.239 164.394L293.69 163.492C294.481 162.989 295.325 162.565 295.589 162.564C296.197 162.563 296.222 162.034 295.615 162.009C294.136 161.933 292.737 162.173 290.177 162.997C288.594 163.502 287.168 163.901 286.957 163.902C286.772 163.902 286.482 164.088 286.298 164.299C285.85 164.855 285.665 164.618 286.033 163.93C286.191 163.613 286.797 163.136 287.378 162.844C287.958 162.526 288.538 162.023 288.643 161.679C288.906 161.045 289.671 160.753 292.812 160.086C293.868 159.846 295.161 159.5 295.689 159.261C296.216 159.049 297.615 158.835 298.883 158.806C300.758 158.75 301.154 158.802 301.366 159.198C301.71 159.778 302.186 159.777 302.95 159.115C303.477 158.691 303.53 158.559 303.213 158.349C301.758 157.4 292.331 157.339 287.791 158.22C286.524 158.487 285.415 158.621 285.336 158.542C285.018 158.225 285.888 157.22 287.233 156.345C288.13 155.762 288.657 155.233 288.656 154.942C288.655 154.546 288.945 154.36 289.975 154.147C291.559 153.801 294.911 153.424 298.634 153.179C300.641 153.043 301.327 152.883 301.327 152.619C301.326 152.434 301.009 152.171 300.613 152.092C299.82 151.882 289.707 152.192 288.519 152.459L287.754 152.619L288.465 151.746C288.966 151.164 289.176 150.688 289.07 150.291C288.937 149.763 289.068 149.684 290.573 149.39C291.47 149.204 294.428 148.987 297.174 148.902C301.742 148.761 302.111 148.707 302.11 148.258C302.11 147.941 301.845 147.704 301.423 147.599C300.419 147.337 290.702 147.699 288.564 148.047C287.56 148.234 286.689 148.288 286.61 148.209C286.398 147.998 287.874 146.674 289.325 145.826L290.617 145.084L290.036 144.609C289.48 144.161 289.533 144.161 291.883 144.262C293.943 144.364 294.735 144.257 296.952 143.671C299.275 143.033 300.542 142.74 302.838 142.312C303.366 142.206 303.419 142.126 303.154 141.81C302.916 141.52 302.282 141.415 301.067 141.418C298.928 141.448 293.648 141.828 290.005 142.258C288.526 142.446 287.232 142.501 287.127 142.422C286.836 142.106 287.811 141.258 288.893 140.913C289.474 140.727 290.159 140.356 290.449 140.091C291.161 139.402 294.593 138.841 299.82 138.487C302.276 138.324 304.414 138.135 304.546 138.056C304.942 137.817 304.175 137.211 303.25 137.028C302.194 136.845 293.824 137.363 290.128 137.846C288.439 138.06 287.488 138.089 287.382 137.93C287.117 137.508 288.278 136.74 289.492 136.552C291.128 136.259 291.603 135.967 291.417 135.254C291.284 134.7 291.389 134.646 293.317 134.352C297.567 133.683 300.973 133.439 303.666 133.539C306.571 133.666 307.706 133.426 307.573 132.713C307.493 132.343 306.727 132.292 301.155 132.355C297.67 132.389 293.419 132.582 291.729 132.796C290.013 132.985 288.614 133.067 288.613 132.961C288.613 132.855 289.009 132.643 289.484 132.457C289.932 132.272 290.566 131.9 290.855 131.636C291.488 131.08 296.899 129.88 299.856 129.663C300.991 129.555 302.523 129.605 303.236 129.736C303.976 129.893 304.715 129.891 304.953 129.785C305.19 129.653 305.692 129.493 306.114 129.387C306.721 129.254 306.8 129.174 306.562 128.752C306.323 128.277 306.006 128.251 301.095 128.366C296.421 128.507 289.953 129.022 287.709 129.475C286.336 129.769 287.312 128.921 289.132 128.257C290.003 127.939 290.874 127.435 291.084 127.144C291.558 126.456 294.33 125.975 299.162 125.701C301.697 125.591 302.832 125.43 303.122 125.139C303.464 124.821 303.464 124.716 303.12 124.426C302.803 124.136 301.562 124.085 296.888 124.226L291.053 124.396L289.18 125.351L287.28 126.279L287.279 125.54C287.277 124.509 288.411 123.873 290.892 123.498C293.506 123.097 293.796 122.911 292.949 122.041C292.579 121.672 292.632 121.593 293.423 121.248C295.877 120.239 299.283 120.021 302.849 120.701C305.279 121.145 306.362 121.038 306.228 120.325C306.122 119.744 303.559 119.299 299.149 119.07C295.373 118.893 292.891 119.188 289.962 120.198C287.719 120.995 287.111 120.811 287.795 119.594C288.111 119.065 288.771 118.72 290.961 118.003C296.45 116.196 298.377 115.769 301.466 115.605C303.077 115.522 304.423 115.361 304.423 115.255C304.423 115.15 304.237 114.886 303.973 114.702C303.629 114.412 302.256 114.335 297.582 114.344C292.063 114.355 291.482 114.409 289.978 114.966C289.081 115.285 288.263 115.551 288.184 115.551C288.104 115.551 288.051 115.261 288.05 114.865C288.049 114.363 288.26 114.124 288.92 113.832C290.265 113.275 294.673 112.421 298.079 112.097C299.742 111.909 301.458 111.615 301.854 111.377C302.25 111.165 303.015 111.031 303.57 111.083C304.283 111.134 304.547 111.054 304.625 110.737C304.704 110.288 303.357 110.026 299.131 109.585C297.176 109.378 292.292 109.863 290.075 110.501C288.623 110.9 288.307 110.927 288.306 110.61C288.305 110.188 289.097 109.843 290.786 109.602C291.446 109.495 292.291 109.176 292.633 108.911C293.187 108.461 296.697 107.609 299.786 107.18C300.525 107.099 301.317 106.834 301.554 106.595C301.923 106.304 302.399 106.224 303.719 106.353C305.04 106.483 305.488 106.429 305.752 106.112C305.936 105.873 305.989 105.636 305.83 105.477C305.698 105.346 302.634 105.193 298.99 105.174C292.362 105.107 291.781 105.161 288.958 106.171C288.535 106.304 288.562 106.224 289.142 105.695C289.642 105.218 290.276 104.979 291.464 104.845C292.546 104.711 293.311 104.471 293.786 104.048C294.919 103.094 303.762 101.307 304.74 101.807C305.348 102.149 306.614 101.539 306.719 100.852C306.797 100.35 306.612 100.324 300.354 100.257C295.151 100.188 293.62 100.244 292.327 100.59C290.374 101.095 290.4 101.095 290.399 100.62C290.399 100.382 290.768 100.196 291.402 100.089C294.173 99.6348 294.304 98.7363 291.558 98.8209L289.736 98.9037L290.527 98.3737C292.136 97.3667 293.904 97.1255 300.532 97.0598C304.018 97.0266 306.922 96.9681 306.975 96.8887C307.054 96.8357 306.816 96.6513 306.446 96.5199C306.103 96.3885 305.653 96.0987 305.494 95.8877C304.621 94.8326 296.751 94.4515 293.558 95.2768C292.607 95.5428 291.156 96.074 290.338 96.4983C288.993 97.1878 288.808 97.2146 288.807 96.8183C288.806 96.0521 289.676 95.4956 291.339 95.2018C293.319 94.8545 294.084 94.5096 294.083 94.034C294.082 93.4528 293.237 93.2959 291.944 93.589C290.175 94.0152 289.911 93.9628 290.464 93.4069C290.833 93.0364 291.573 92.9292 294.292 92.7919C297.461 92.6536 301.209 91.9066 301.208 91.431C301.208 91.3253 300.653 91.1943 299.966 91.1428C299.253 91.0649 300.389 91.0363 302.448 91.0852C305.512 91.1585 306.172 91.1044 306.039 90.814C305.694 89.9164 301.626 89.3695 297.64 89.6942C295.29 89.8837 291.305 90.8954 289.827 91.638C289.247 91.9562 289.062 91.983 289.035 91.7188C288.901 90.4774 289.296 90.1332 291.724 89.3887C294.073 88.6708 294.099 88.3801 291.827 88.0147C291.404 87.9362 291.483 87.8568 292.143 87.6177C292.856 87.3522 293.067 87.3782 293.384 87.6946C293.702 88.011 294.124 88.0102 295.814 87.7691C297.952 87.4744 299.879 86.8366 299.878 86.4403C299.878 86.3082 299.666 86.2029 299.428 86.1769C298.61 86.1521 300.114 85.7793 303.229 85.2449C306.766 84.6568 306.818 84.2075 303.359 84.2142C298.897 84.2493 295.148 84.785 292.457 85.7942C289.316 86.9627 289.237 86.9893 289.104 86.4083C288.944 85.6689 289.735 84.9804 291.266 84.4755C293.139 83.8642 293.456 83.573 292.689 83.1517L292.081 82.8359L292.873 82.5173C295.696 81.4022 302.877 80.4107 305.359 80.7758C306.231 80.9062 306.469 80.8529 306.468 80.5623C306.466 79.6376 305.806 79.5068 300.974 79.6747C295.772 79.8169 293.396 80.297 290.547 81.7292C289.677 82.1801 288.885 82.4722 288.832 82.393C288.753 82.3139 288.884 81.8381 289.121 81.3621C289.515 80.4895 289.884 80.2774 292.945 79.2147C293.13 79.1351 293.209 78.95 293.103 78.7917C292.971 78.5806 292.363 78.5289 291.175 78.6369C289.565 78.7985 289.485 78.7723 290.092 78.4276C292.466 77.0492 298.194 75.902 302.709 75.8933C304.426 75.8899 305.667 75.7818 305.666 75.6233C305.665 74.9893 304.371 74.7276 301.044 74.7604C297.109 74.7681 294.126 75.2494 289.508 76.6058C289.244 76.6856 289.032 76.6331 289.032 76.501C289.031 76.2104 290.43 75.6529 292.779 74.9878C294.468 74.509 295.048 74.0323 294.492 73.5579C294.228 73.347 293.806 73.3743 292.908 73.693C290.744 74.437 290.928 73.9346 293.118 73.085C296.892 71.6245 298.607 71.3042 302.542 71.2965C304.549 71.2662 306.186 71.1574 306.186 71.0517C306.185 70.946 305.736 70.6563 305.207 70.3931C304.441 70.0775 303.384 69.9739 300.77 69.9526C296.968 69.96 295.226 70.3332 290.793 72.1119C289.5 72.6428 288.391 72.9885 288.312 72.9094C287.73 72.3292 290.182 70.5544 292.821 69.651C293.85 69.3055 294.853 68.9601 295.064 68.9068C295.355 68.8006 295.354 68.6949 295.09 68.3784C294.904 68.141 294.825 67.9034 294.904 67.7975C295.352 67.3739 299.021 66.8913 302.56 66.8051C304.698 66.7482 306.52 66.6389 306.599 66.586C306.652 66.5066 306.52 66.2955 306.282 66.0846C305.673 65.5838 299.309 65.4376 296.247 65.8663C294.953 66.0273 292.894 66.5333 291.654 66.9584C290.414 67.3835 289.2 67.8086 288.963 67.8883C288.171 68.154 288.406 67.0968 289.224 66.6197C289.62 66.4075 290.781 65.9297 291.784 65.6107C294.977 64.5742 296.19 63.9906 296.005 63.5418C295.792 63.0138 296.32 62.6958 297.455 62.6936C297.983 62.6925 298.643 62.5327 298.933 62.3208C299.276 62.0559 299.593 62.0289 299.857 62.1869C300.333 62.4766 305.562 62.4929 305.746 62.1755C305.825 62.0432 305.692 61.7793 305.454 61.5948C305.137 61.3048 303.975 61.2278 300.78 61.234C296.079 61.2431 293.836 61.6174 290.564 62.9711C288.981 63.6347 288.69 63.6881 288.558 63.3449C288.319 62.7113 288.924 61.6797 289.716 61.3612C290.138 61.2018 292.487 60.616 294.942 60.03C301.039 58.618 302.807 58.1126 302.938 57.716C303.069 57.293 301.459 57.3226 299.505 57.7755C297.895 58.1749 297.737 58.1488 298.369 57.5135C298.923 56.9576 298.869 56.35 298.262 56.3512C297.971 56.3518 297.206 56.5911 296.52 56.883C295.148 57.4669 291.374 58.5046 291.373 58.2932C291.373 58.0819 292.058 57.5522 293.693 56.4658C296.225 54.77 299.339 53.8657 305.358 53.035C308.315 52.633 313.623 52.6755 319.486 53.1397ZM20.0397 53.7207C19.9607 53.8529 19.7233 53.9855 19.5649 53.9858C19.38 53.9862 19.4062 53.8804 19.6436 53.7215C20.1447 53.4034 20.2503 53.4032 20.0397 53.7207ZM19.6199 55.1482C19.5409 55.2276 18.9602 55.3872 18.3268 55.547C17.271 55.7868 17.1917 55.7605 17.64 55.4162C18.0883 55.0983 19.9362 54.8569 19.6199 55.1482ZM49.7787 56.5956C53.3191 57.5927 53.9534 57.8556 54.7736 58.6731C56.6785 60.5716 56.8695 63.768 55.2629 65.9111C54.8941 66.361 54.8148 66.3083 53.5712 65.0161L52.2482 63.6449L52.8794 62.3491C53.879 60.3657 53.5343 59.6001 51.2346 58.4157C49.6751 57.6262 49.0939 57.4688 47.2717 57.4195C45.3967 57.3438 45.08 57.3973 44.6319 57.8473C44.0786 58.4824 44.2378 58.8784 45.1627 59.2201C45.8763 59.5093 45.9831 60.1432 45.4835 61.2274L45.168 61.9149L42.0782 61.8152C38.0907 61.7173 37.5355 61.4013 37.3462 59.0767C37.2113 57.5975 37.1847 57.5183 36.4452 57.4405C34.3058 57.2068 27.2841 58.4093 21.2138 60.0592C19.0761 60.6445 17.2814 61.1236 17.2021 61.1237C16.9645 61.1242 16.2485 59.5404 16.4331 59.4344C16.8551 59.1958 21.553 57.9449 23.8758 57.4648C28.9701 56.3718 39.7945 55.2411 43.5709 55.3659C45.129 55.4421 46.8725 55.7822 49.7787 56.5956ZM289.685 58.9834C289.474 59.3273 288.735 59.3816 288.734 59.0645C288.734 58.9589 288.866 58.7208 289.05 58.5355C289.419 58.165 289.948 58.5338 289.685 58.9834ZM13.7149 60.2851C13.4776 60.4969 12.1057 61.1072 7.85779 62.912C6.61767 63.4164 6.80195 63.1254 8.22625 62.2772C9.96711 61.2699 14.453 59.6232 13.7149 60.2851ZM34.1014 60.7211C34.0223 60.8005 33.7847 60.8274 33.5997 60.7485C33.3883 60.6696 33.4674 60.5902 33.7579 60.5896C34.0483 60.5627 34.2069 60.6416 34.1014 60.7211ZM30.749 61.3616C29.3764 61.6021 27.0009 62.1615 25.4701 62.5608C22.2502 63.4389 20.6927 63.6533 20.0318 63.2847C19.6882 63.1004 20.0839 62.9147 21.9315 62.4884C24.043 61.9823 27.7386 61.2882 29.8242 61.02C30.273 60.9663 31.2235 60.9116 31.9364 60.8838C33.0455 60.8816 32.8344 60.9613 30.749 61.3616ZM285.681 64.0374C285.655 64.5394 285.604 65.2 285.578 65.4907C285.552 65.7813 285.532 69.2952 285.567 73.2846C285.612 83.2447 285.473 93.2581 285.245 97.9349C285.092 100.736 285.148 102.585 285.389 104.487C285.711 106.785 285.686 107.657 285.323 111.013C284.752 116.192 284.42 122.243 284.251 129.984C284.178 133.498 283.949 137.778 283.741 139.496C283.533 141.24 283.225 145.732 283.1 149.51C282.949 153.289 282.72 157.622 282.591 159.155C282.177 163.647 281.566 175.141 281.572 178.575C281.576 180.319 281.474 182.169 281.316 182.671C280.713 184.944 280.221 189.912 279.892 197.416C279.638 202.515 279.303 206.849 278.938 209.095C278.625 211.051 278.339 213.482 278.315 214.512C277.807 224.896 277.315 230.181 276.141 237.37C274.914 244.849 275.019 244.558 273.568 245.222C270.983 246.415 269.034 248.823 269.037 250.805C269.041 252.416 271.186 255.873 272.19 255.871C272.427 255.871 272.48 255.95 272.348 256.109C272.032 256.374 265.485 257.205 263.557 257.209C262.369 257.211 262.131 257.133 261.734 256.473C261.469 256.077 261.151 255.681 261.019 255.576C260.623 255.313 259.752 255.896 259.912 256.318C259.991 256.529 260.15 256.872 260.23 257.083C260.575 257.902 257.777 258.515 251.942 258.949L249.777 259.112L250.593 257.604C251.329 256.282 251.382 256.097 251.038 255.727C250.694 255.411 250.509 255.385 250.034 255.65C249.691 255.836 249.058 255.916 248.556 255.838C248.054 255.76 247.5 255.84 247.236 256.052C246.814 256.343 246.814 256.502 247.08 257.426C247.612 259.222 247.533 259.433 246.45 259.277C245.235 259.068 244.865 258.751 244.069 257.221C243.433 255.954 242.587 255.136 241.9 255.138C241.398 255.139 241.638 256.353 242.487 258.201C242.832 258.967 243.071 259.653 242.965 259.733C242.649 260.077 240.061 259.897 239.743 259.501C239.293 258.947 238.792 259.001 238.344 259.662C238.028 260.112 237.368 260.272 234.042 260.701C229.264 261.318 221.66 261.94 214.399 262.324C209.144 262.599 208.986 262.573 208.615 262.071C208.43 261.781 207.98 261.544 207.637 261.545C207.135 261.546 207.004 261.678 207.005 262.207C207.006 262.814 206.9 262.867 205.871 262.869C204.629 262.872 204.18 262.555 203.623 261.209C203.464 260.813 203.146 260.497 202.935 260.497C202.354 260.498 201.933 261.424 202.146 262.216L202.306 262.876L198.556 262.883C195.44 262.889 194.622 262.97 193.593 263.421C189.055 265.359 165.16 266.885 157.737 265.71C156.311 265.502 153.221 265.27 150.897 265.222C148.573 265.173 145.299 264.968 143.634 264.734C141.97 264.499 139.488 264.213 138.114 264.057C135.315 263.799 134.522 263.404 133.092 261.531C132.616 260.898 132.06 260.37 131.875 260.371C131.215 260.372 130.952 261.033 131.218 261.957C131.351 262.459 131.431 262.908 131.352 262.961C131.273 263.04 129.873 262.964 128.236 262.782C126.598 262.627 124.116 262.499 122.743 262.502C121.264 262.505 119.679 262.35 118.887 262.113C117.249 261.614 115.555 260.033 115.024 258.475C114.228 256.178 112.896 250.157 112.76 248.334C112.624 246.221 112.068 245.271 111.753 246.539C111.413 247.914 111.895 251.585 113.12 257.078C113.786 260.089 114.267 262.651 114.188 262.756C114.029 262.889 112.92 262.917 106.134 262.825C105.051 262.801 102.965 262.62 101.538 262.411C100.086 262.203 97.9727 262.022 96.8373 262.024C95.4113 262.027 94.3812 261.87 93.4034 261.502C92.637 261.187 91.2105 260.872 90.2333 260.795C89.2825 260.718 88.358 260.561 88.173 260.456C87.9879 260.324 88.2241 259.584 88.9605 258.076C90.144 255.591 90.2478 254.666 89.5052 253.003C88.6036 251.023 86.9372 249.599 84.6383 248.811C83.555 248.444 83.2905 248.233 83.3425 247.836C83.3948 247.546 83.1015 246.093 82.729 244.641C82.3564 243.162 81.9298 241.049 81.7957 239.966C81.6615 238.857 81.3419 237.431 81.1294 236.797C80.9169 236.137 80.7303 235.266 80.7295 234.869C80.7287 234.447 80.3026 232.572 79.7973 230.723C78.5208 226.102 77.4012 220.662 76.8647 216.356C76.6233 214.402 76.1431 211.893 75.7977 210.81C74.9208 207.959 74.8408 207.589 74.5964 204.102C74.461 202.385 74.2468 200.853 74.0881 200.695C73.9293 200.537 73.795 199.374 73.7925 198.08C73.7893 196.442 73.6553 195.412 73.2839 194.514C73.0185 193.828 72.6989 192.402 72.5913 191.398C72.4293 189.575 71.9494 187.199 69.7907 177.005C69.2043 174.179 68.35 169.425 67.8953 166.44C67.4671 163.456 66.8531 160.075 66.5604 158.913C65.7355 155.639 63.1158 139.237 62.2037 131.842C61.9889 130.019 61.6658 126.823 61.5033 124.71C61.3407 122.596 60.912 119.374 60.5387 117.525C59.7119 113.3 59.2282 108.994 58.5773 100.145C58.0896 93.7257 57.9826 93.039 57.3729 91.8249C56.7102 90.5316 56.6036 90.0034 55.7455 83.2416C55.5043 81.4191 55.0763 78.593 54.7826 76.9291C54.4889 75.2653 54.2205 73.0201 54.1919 71.9105L54.1352 69.9027L55.1385 69.8215C55.6665 69.7676 57.0928 69.9762 58.3081 70.2645C59.4969 70.5264 61.8477 70.8389 63.5114 70.9149C65.3864 71.0169 67.1562 71.2777 68.1338 71.5664C69.0057 71.8554 71.6211 72.4579 73.9193 72.9026C77.9611 73.7138 79.7305 73.816 81.3402 73.2845C81.6833 73.1782 82.2647 73.3884 83.0843 73.9416C84.0097 74.5475 84.4597 75.1014 84.9901 76.2629C86.2896 79.1401 88.4722 88.0658 88.3972 90.2059C88.3726 91.1571 88.639 92.3719 89.3296 94.4313C90.4715 97.7844 90.7895 98.3386 91.0518 97.4134C91.4452 96.0388 91.2836 94.4011 90.6477 93.3191C90.1443 92.4482 90.0642 91.9728 90.1677 90.8894C90.219 90.1231 90.1376 88.9608 89.9514 88.2742C89.7916 87.5612 89.604 86.1613 89.5228 85.1575C89.4678 84.0216 89.015 81.9882 88.3771 79.8758C87.8189 77.9747 87.2603 75.8886 87.1534 75.2019L86.9662 73.9869L88.3911 73.4558C94.3546 71.2513 99.1591 70.4758 107.107 70.4604C111.359 70.4522 112.732 70.5552 114.528 70.9744C115.744 71.2363 118.57 71.6535 120.815 71.8869C123.06 72.0939 126.282 72.4576 127.946 72.6657C131.776 73.1602 138.748 73.7544 142.868 73.9577C144.611 74.06 147.648 74.3183 149.603 74.5523C152.429 74.8903 155.73 74.9896 165.58 74.9704L177.991 74.9728L181.003 75.8124C184.569 76.8094 186.235 77.678 186.712 78.8396C186.898 79.3148 187.324 81.0577 187.644 82.7479C188.178 85.6266 189 87.7122 189.661 87.9223C189.819 87.9748 190.03 87.8687 190.109 87.6572C190.214 87.34 189.882 79.4411 189.668 77.8563C189.587 77.1431 190.59 76.6128 195.128 74.8867C198.717 73.5587 199.904 73.1866 204.655 71.962C205.737 71.6957 208.193 71.4268 210.595 71.3164C212.84 71.2064 216.351 70.909 218.384 70.6672C220.628 70.3987 226.225 70.1236 232.642 69.9527C238.451 69.8093 245.158 69.5585 247.56 69.4217C249.963 69.2586 254.108 69.0127 256.802 68.849C264.775 68.358 272.272 67.2338 276.997 65.8772C279.293 65.2123 283.119 63.831 283.989 63.3538C284.359 63.1417 284.887 63.0086 285.177 63.0608C285.6 63.1129 285.706 63.2976 285.681 64.0374ZM15.415 65.4865C15.1777 65.6983 10.3753 67.5042 10.2695 67.3987C10.1636 67.2932 11.3244 66.7361 13.4617 65.913C14.7283 65.435 15.6521 65.2218 15.415 65.4865ZM4.09175 68.0976C4.67551 69.5496 4.75493 69.6551 5.41478 69.4953C6.04832 69.3884 6.12764 69.4411 6.02284 69.864C5.91798 70.2605 6.02386 70.3924 6.41995 70.3916C6.84245 70.3908 7.05427 70.681 7.37335 71.8164C7.61254 72.6085 7.79907 73.48 7.79964 73.7707C7.80056 74.2462 7.69504 74.2993 6.98166 74.0893C4.39242 73.3546 2.24859 70.8224 2.24408 68.4975C2.24183 67.335 2.92567 65.9334 3.29618 66.3554C3.40201 66.4609 3.74683 67.2528 4.09175 68.0976ZM8.44682 67.0852C6.52097 68.0136 5.38611 68.3329 6.3354 67.6441C6.94198 67.2466 9.63336 66.1846 10.0295 66.1838C10.1879 66.21 9.47574 66.6076 8.44682 67.0852ZM303.937 96.4191C303.753 96.4723 303.436 96.4729 303.277 96.4204C303.092 96.3415 303.224 96.2884 303.594 96.2876C303.964 96.2869 304.096 96.3395 303.937 96.4191ZM291.592 103.127C291.513 103.259 291.25 103.392 291.038 103.393C290.827 103.393 290.668 103.261 290.668 103.129C290.668 102.971 290.905 102.864 291.222 102.864C291.513 102.863 291.671 102.969 291.592 103.127ZM289.358 108.151C289.358 108.283 289.173 108.416 288.936 108.416C288.724 108.417 288.618 108.285 288.697 108.153C288.776 107.994 288.961 107.888 289.119 107.888C289.251 107.887 289.357 107.993 289.358 108.151ZM22.4081 117.599C22.4087 117.89 21.2215 118.447 20.667 118.448C20.0068 118.449 20.5076 117.946 21.4313 117.68C21.9063 117.547 22.3022 117.414 22.355 117.414C22.3813 117.388 22.4079 117.494 22.4081 117.599ZM28.5386 146.966C28.5392 147.31 26.4816 148.344 26.006 148.239C25.2135 148.082 25.6352 147.632 27.0074 147.18C27.7727 146.941 28.4325 146.755 28.4853 146.728C28.5117 146.702 28.5383 146.808 28.5386 146.966ZM31.2129 164.319C31.2138 164.794 28.1539 166.465 27.8628 166.148C27.757 166.043 30.6844 164.161 31.0277 164.134C31.1333 164.134 31.2127 164.213 31.2129 164.319ZM34.0031 173.349C33.6868 173.667 32.2879 174.013 32.2875 173.801C32.2871 173.59 33.3161 173.165 33.8706 173.138C34.1082 173.111 34.1348 173.19 34.0031 173.349ZM34.163 187.747C34.1632 187.827 34.0578 187.959 33.8995 188.039C33.7676 188.118 33.6355 188.065 33.6353 187.933C33.6349 187.775 33.7667 187.642 33.8988 187.642C34.0572 187.642 34.1629 187.695 34.163 187.747ZM33.3713 188.013C33.3715 188.092 33.2661 188.225 33.1079 188.304C32.976 188.384 32.8438 188.331 32.8436 188.199C32.8433 188.041 32.975 187.908 33.1071 187.908C33.2655 187.908 33.3712 187.96 33.3713 188.013ZM33.5204 210.417C33.2835 210.787 32.913 210.365 33.0706 209.942C33.1756 209.625 33.2812 209.598 33.4401 209.862C33.5461 210.047 33.573 210.311 33.5204 210.417ZM34.7536 219.952C34.7549 220.586 34.6758 220.692 34.4904 220.402C34.1461 219.874 34.1439 218.738 34.4876 218.949C34.6462 219.028 34.7528 219.503 34.7536 219.952ZM39.9378 224.328C39.7535 224.619 37.431 225.284 37.2458 225.073C37.1135 224.941 39.1188 224.144 39.7261 224.117C39.9109 224.09 40.0167 224.195 39.9378 224.328ZM40.9825 232.014C40.719 232.305 40.3762 232.543 40.2178 232.544C40.0593 232.518 40.2173 232.279 40.56 232.015C41.3509 231.326 41.5885 231.326 40.9825 232.014ZM39.1628 233.206C38.8727 233.418 38.5034 233.604 38.3714 233.604C38.2129 233.604 38.3182 233.419 38.5819 233.207C38.8719 232.995 39.2412 232.81 39.3733 232.809C39.5317 232.809 39.4264 232.994 39.1628 233.206ZM38.2046 242.904C38.206 243.644 38.1533 243.697 37.9676 243.248C37.6493 242.509 37.6484 242.06 37.9653 242.059C38.1237 242.059 38.2301 242.455 38.2046 242.904ZM298.73 243.403C307.815 243.966 313.495 245.25 318.676 247.855C319.759 248.408 320.975 248.934 321.371 249.012C322.454 249.248 323.909 250.672 324.255 251.807C324.521 252.679 324.495 252.943 324.126 253.525C323.573 254.345 323.336 254.372 322.964 253.527C322.248 251.943 319.13 250.496 312.207 248.528C303.039 245.931 293.531 244.971 284.924 245.834C283.287 245.995 281.862 246.051 281.756 245.972C281.438 245.655 282.36 244.359 283.152 243.961C283.679 243.722 285.263 243.534 287.772 243.424C293.818 243.148 294.531 243.147 298.73 243.403ZM296.229 247.106C297.312 247.21 297.84 247.288 297.365 247.315C295.015 247.452 286.487 248.208 284.929 248.449C282.712 248.77 280.916 248.8 280.916 248.483C280.915 248.193 282.578 247.767 285.271 247.418C288.861 246.909 293.007 246.795 296.229 247.106ZM83.2147 250.003C85.5926 250.685 87.3389 252.478 87.7656 254.67C88.0059 255.991 86.9803 258.212 85.504 259.483C84.8714 260.039 83.9224 260.913 83.4217 261.416C82.9209 261.919 82.288 262.316 82.0503 262.317C81.2317 262.318 81.5468 261.42 82.6543 260.598C83.9464 259.645 85.1318 258.189 85.6575 256.92C86.157 255.757 86.1802 254.145 85.7046 253.961C85.5196 253.909 85.0167 253.276 84.6192 252.563C84.1954 251.877 83.6394 251.165 83.3222 250.98C82.7406 250.612 77.2462 249.645 75.7938 249.647C75.3185 249.648 74.9751 249.57 75.0276 249.438C75.2382 249.094 81.603 249.531 83.2147 250.003ZM68.9026 250.084C67.3979 250.298 63.7023 250.939 60.7195 251.553C53.5925 252.94 53.5925 252.94 54.1464 252.596C55.8871 251.509 65.7068 249.746 70.1958 249.711C71.3313 249.709 71.041 249.789 68.9026 250.084ZM78.1468 251.07C77.936 251.334 76.5103 251.469 72.4968 251.609C69.5659 251.694 66.7407 251.831 66.2391 251.912L65.3152 252.046L66.1333 251.78C67.6111 251.301 72.416 250.764 75.4527 250.731C77.9348 250.7 78.4102 250.752 78.1468 251.07ZM282.109 251.097C282.427 251.598 281.689 252.418 280.633 252.685C280.053 252.844 279.051 253.454 278.418 254.036C276.731 255.598 274.961 255.417 276.305 253.803C277.043 252.903 278.388 252.293 280.21 252.025C281.292 251.864 281.45 251.758 281.317 251.336C281.131 250.808 281.791 250.595 282.109 251.097ZM302.574 251.347C304.529 251.661 306.985 251.92 308.015 251.945C309.705 251.968 309.996 252.046 311.318 252.942C312.111 253.495 312.957 253.943 313.221 253.942C313.459 253.942 313.67 254.1 313.671 254.285C313.672 254.866 312.854 255.449 310.902 256.219C309.715 256.697 308.739 257.306 308.133 257.968L307.21 258.974L307.261 257.864C307.286 257.23 307.311 256.649 307.311 256.543C307.337 256.411 307.865 256.093 308.498 255.775C309.158 255.483 309.738 255.059 309.817 254.847C309.948 254.53 309.684 254.451 308.311 254.507C307.281 254.535 305.96 254.353 304.745 254.012C301.548 253.093 298.643 252.835 293.864 253.029C287.606 253.279 287.606 253.279 286.948 254.68C286.16 256.399 284.076 257.486 282.385 257.067C281.011 256.726 281.722 255.853 283.939 255.215C284.599 255.028 285.126 254.684 285.284 254.314C285.415 253.996 285.705 253.732 285.89 253.731C286.075 253.731 286.84 253.175 287.551 252.486L288.896 251.215L292.117 251.051C297.873 250.775 298.956 250.8 302.574 251.347ZM277.093 251.714C276.803 251.899 276.144 252.482 275.617 253.011C274.536 254.15 274.193 254.229 273.796 253.517C273.584 253.068 273.689 252.909 274.665 252.353C276.01 251.558 276.406 251.425 277.092 251.397L277.621 251.396L277.093 251.714ZM78.0697 252.179C79.5757 252.599 78.2821 252.787 73.7668 252.875C71.0735 252.933 68.8817 252.884 68.8815 252.805C68.8809 252.488 77.0922 251.943 78.0697 252.179ZM61.4611 252.687C61.4084 252.74 59.4554 253.299 57.1328 253.884C54.8102 254.497 52.6724 255.056 52.3821 255.162C51.2473 255.481 52.2497 254.924 53.7274 254.419C55.8121 253.676 61.8565 252.317 61.4611 252.687ZM318.448 253.034C319.347 253.904 319.667 255.224 319.22 256.309C318.931 257.022 318.034 257.605 317.717 257.289C317.637 257.21 317.848 256.681 318.163 256.099C318.874 254.83 318.767 254.011 317.841 253.326C317.127 252.799 317.074 252.799 315.517 253.225C313.617 253.783 313.67 253.757 313.669 253.281C313.668 253.07 313.879 252.884 314.143 252.884C314.407 252.883 314.856 252.697 315.146 252.486C315.884 251.876 317.522 252.137 318.448 253.034ZM75.7487 253.611C76.066 253.821 75.9869 253.874 75.4059 253.875C74.9834 253.876 74.7192 253.771 74.8245 253.612C75.0351 253.295 75.2464 253.294 75.7487 253.611ZM70.468 253.885C70.0985 253.991 69.5706 254.098 69.2801 254.099L68.752 254.126L69.2797 253.887C69.5699 253.755 70.0979 253.674 70.4676 253.674L71.1277 253.672L70.468 253.885ZM282.722 253.79C283.198 254.265 283.145 254.371 281.589 255.193C280.428 255.829 280.059 255.935 279.689 255.698C278.843 255.172 279 254.643 280.187 254.033C281.48 253.396 282.245 253.316 282.722 253.79ZM59.7765 255.491C59.4863 255.624 58.9584 255.704 58.5887 255.705C57.9813 255.706 58.0077 255.679 58.7203 255.493C59.8288 255.2 60.4361 255.199 59.7765 255.491ZM81.4297 255.475C82.1714 256.663 79.6412 259.178 74.9988 261.776C73.0996 262.863 70.9371 264.32 70.2255 265.008C69.5402 265.67 68.6436 266.306 68.2742 266.412C67.4032 266.625 67.4043 267.233 68.2253 268.447C69.2581 269.951 69.26 270.928 68.2561 270.692C67.6484 270.535 67.5166 270.641 67.1486 271.513C66.4916 273.126 66.1746 273.101 65.9866 271.436C65.6641 268.584 63.6553 267.584 61.0173 268.936C60.4106 269.254 59.8301 269.467 59.7507 269.388C59.6713 269.309 59.8031 269.176 60.0406 269.07C60.2781 268.99 60.4624 268.726 60.462 268.515C60.4614 268.224 60.2765 268.171 59.8014 268.278C59.4319 268.384 59.1414 268.385 59.1413 268.306C59.1407 268.015 61.9112 266.9 63.0991 266.713C63.7327 266.606 64.5507 266.34 64.8672 266.128C65.3419 265.81 65.6323 265.783 66.3722 266.046C67.5084 266.414 67.7194 266.308 68.1132 265.118C68.2707 264.616 68.5339 264.192 68.6659 264.192C68.7716 264.192 69.0614 263.848 69.2982 263.425C69.9296 262.182 72.1701 260.117 73.8583 259.215C74.7025 258.764 76.3912 258.101 77.6052 257.755C79.1095 257.303 79.8746 256.958 79.9268 256.667C80.0314 256.139 79.9786 256.139 77.3129 256.804C74.2776 257.55 72.8791 258.107 71.9301 258.928L71.1393 259.643L66.3859 259.494C63.7451 259.42 61.9228 259.265 62.2923 259.158C62.6617 259.052 63.3481 258.971 63.8498 258.944C64.3251 258.917 65.592 258.597 66.6211 258.225C67.9405 257.747 69.2339 257.507 71.0029 257.398C73.1416 257.288 73.7487 257.155 75.094 256.439C76.1493 255.908 77.2577 255.563 78.3929 255.455C81.033 255.159 81.2442 255.159 81.4297 255.475ZM291.785 256.652C290.522 259.191 290.683 260.75 292.43 262.675C293.621 263.994 295.312 264.677 296.843 264.463C298.163 264.275 302.072 264.796 302.073 265.166C302.074 265.483 296.501 265.177 293.939 264.733C292.645 264.497 291.905 264.208 291.64 263.865C289.76 261.385 289.884 257.237 291.914 255.199C292.678 254.431 292.626 254.96 291.785 256.652ZM50.5349 255.773C49.7961 256.092 49.5585 256.092 49.7427 255.775C49.8216 255.616 50.1647 255.51 50.4816 255.535C51.0361 255.534 51.0362 255.561 50.5349 255.773ZM55.0255 256.557C53.4419 256.956 52.0164 257.197 51.8578 257.118C51.7256 257.039 52.0686 256.88 52.6493 256.746C53.23 256.613 54.3649 256.347 55.1567 256.16C55.9486 255.974 56.8989 255.814 57.2686 255.813C57.6383 255.812 56.6355 256.158 55.0255 256.557ZM289.381 256.102C289.381 256.499 287.904 257.162 287.006 257.164C285.739 257.166 286.081 256.716 287.533 256.502C288.246 256.395 288.905 256.209 289.011 256.077C289.195 255.759 289.38 255.785 289.381 256.102ZM59.1192 256.919C59.1193 256.972 58.9347 257.104 58.6972 257.184C58.4861 257.264 58.3804 257.237 58.4593 257.079C58.6172 256.814 59.1188 256.708 59.1192 256.919ZM303.062 257.819C303.962 258.61 304.438 259.217 304.439 259.613C304.44 260.327 303.124 262.258 302.359 262.656C301.304 263.239 301.066 263.028 301.222 261.76C301.325 260.782 301.219 260.439 300.637 259.673C300.266 259.172 299.525 258.619 299.023 258.435C297.491 257.883 298.044 257.169 299.998 257.138C300.394 257.138 300.79 257.005 300.869 256.873C301.158 256.396 301.66 256.607 303.062 257.819ZM57.2718 257.451C57.2724 257.794 47.2959 260.403 47.0313 260.139C46.8726 260.007 50.277 258.944 53.3914 258.145C56.2682 257.4 57.2713 257.239 57.2718 257.451ZM39.7422 259.651C39.2412 259.996 38.5285 260.156 38.528 259.891C38.5276 259.68 39.9786 258.99 40.1109 259.149C40.1903 259.201 40.0059 259.439 39.7422 259.651ZM53.8469 261.579C53.8472 261.711 53.7946 261.843 53.7418 261.843C53.6626 261.844 53.5303 261.712 53.4508 261.58C53.3713 261.421 53.4239 261.316 53.556 261.315C53.7144 261.315 53.8466 261.42 53.8469 261.579ZM44.7388 262.653C44.5017 262.918 43.9213 263.21 43.4726 263.29C42.9974 263.37 41.3614 263.981 39.8047 264.618C38.2215 265.255 36.9549 265.707 36.9547 265.575C36.9537 265.099 39.3542 263.8 41.9138 262.897C44.8166 261.887 45.4766 261.833 44.7388 262.653ZM66.2599 262.612C63.9631 262.907 60.9795 263.071 61.1377 262.912C61.3749 262.674 63.7246 262.432 65.8635 262.428L67.976 262.423L66.2599 262.612ZM48.2532 263.862C48.5175 263.967 47.5939 264.286 45.9574 264.659C44.4529 265.005 42.3682 265.723 41.313 266.253C39.9676 266.916 39.2023 267.156 38.8059 267.024C37.9868 266.762 38.356 266.497 41.0737 265.382C43.5011 264.373 46.8529 263.442 47.4605 263.599C47.6191 263.652 47.989 263.783 48.2532 263.862ZM51.2399 265.283L51.8746 265.784L51.2673 265.811C50.9505 265.812 49.2875 266.158 47.572 266.585C43.9297 267.516 41.7122 267.838 41.7115 267.468C41.7103 266.86 47.0939 265.185 50.3147 264.783C50.4996 264.782 50.8961 264.993 51.2399 265.283ZM65.4456 264.833C65.3929 264.885 64.5745 264.993 63.6505 265.074C62.568 265.155 62.0926 265.13 62.3299 264.971C62.6728 264.759 65.7092 264.594 65.4456 264.833ZM53.4616 267.128C53.4622 267.419 52.7233 267.684 50.6909 268.111C47.8665 268.698 44.751 268.915 44.9878 268.492C45.2774 268.016 51.5857 266.577 52.9326 266.68C53.2231 266.706 53.4612 266.917 53.4616 267.128ZM58.6108 267.118C58.6116 267.514 57.5826 267.965 56.9486 267.834C56.4467 267.756 56.473 267.703 57.2909 267.305C58.3726 266.801 58.6102 266.774 58.6108 267.118ZM298.758 271.592C299.396 273.573 299.957 277.006 300.309 281.391C300.851 288.312 299.865 297.535 297.897 303.8L297.634 304.619L295.864 304.253C294.728 304.017 293.065 303.915 291.243 303.971C288.734 304.055 288.391 304.003 288.258 303.607C287.992 302.736 288.414 302.524 289.999 302.679C291.452 302.808 294.778 302.141 295.305 301.612C295.542 301.374 296.193 296.564 296.58 292.019C296.735 290.354 296.962 285.044 297.059 280.235C297.254 271.86 297.409 270.353 298.122 270.352C298.228 270.352 298.519 270.906 298.758 271.592ZM56.4018 271.798C56.1382 272.063 55.8998 271.667 56.1368 271.323C56.2947 271.033 56.3475 271.032 56.4537 271.323C56.5068 271.508 56.4808 271.719 56.4018 271.798ZM67.9065 281.076C69.8946 284.982 71.7541 290.685 73.3255 297.604C74.5508 303.097 75.0055 306.055 74.8503 307.72C74.7726 308.513 74.6935 308.566 73.7428 308.568C73.1883 308.569 72.5547 308.649 72.3436 308.729C72.0006 308.862 71.9739 308.703 72.2097 307.778C72.4458 306.932 72.3919 306.377 72.0727 305.189C71.8334 304.371 71.3811 302.601 71.0617 301.307C70.7423 299.987 69.7588 296.66 68.8821 293.914C66.9691 287.868 65.5069 282.798 65.5054 282.058C65.5048 281.741 65.3449 280.975 65.1324 280.315C64.6806 278.837 64.9692 277.858 65.8144 277.989C66.237 278.041 66.7402 278.78 67.9065 281.076ZM288.09 298.878C288.145 299.724 288.093 299.988 287.828 299.909C287.643 299.83 287.457 299.302 287.403 298.668C287.349 297.823 287.401 297.559 287.665 297.637C287.85 297.716 288.036 298.244 288.09 298.878ZM76.8032 307.161C76.5133 307.453 76.3541 307.057 76.5644 306.554C76.7483 306.078 76.7747 306.078 76.8548 306.527C76.9081 306.791 76.8823 307.082 76.8032 307.161ZM296.819 306.497C297.006 307.712 295.479 310.04 294.792 309.592C294.422 309.381 294.418 307.347 294.759 306.422C294.97 305.84 295.154 305.734 295.867 305.812C296.554 305.863 296.766 306.021 296.819 306.497ZM76.9172 311.468C76.7593 311.732 76.6795 311.442 76.6778 310.543C76.7017 309.275 76.7017 309.249 76.9147 310.147C77.0477 310.648 77.0224 311.23 76.9172 311.468ZM74.8062 312.238C74.8097 314.034 74.4424 315.277 73.9404 315.119C73.227 314.883 72.4029 312.058 72.7707 311.079C72.8758 310.841 73.2716 310.682 73.879 310.681L74.8032 310.679L74.8062 312.238ZM68.7336 312.646C68.734 312.857 68.4968 313.122 68.2065 313.202C67.9162 313.282 67.6792 313.599 67.6797 313.89C67.6809 314.497 67.2057 314.551 66.9669 313.97C66.8873 313.759 67.0712 313.31 67.4138 312.913C68.0989 312.198 68.7324 312.065 68.7336 312.646ZM295.563 312.338C295.563 312.47 295.168 312.761 294.667 313C293.585 313.504 292.317 313.56 292.449 313.084C292.659 312.476 295.562 311.757 295.563 312.338Z" fill="#D1BDBD"/>
<path d="M306.288 55.7281C305.073 55.8625 304.572 56.2069 304.574 56.8939C304.575 57.6072 304.786 57.6332 307.03 57.1797C309.168 56.7528 309.642 56.2764 308.374 55.8033C308.004 55.6455 307.634 55.5669 307.529 55.5936C307.423 55.6202 306.869 55.6741 306.288 55.7281Z" fill="#D1BDBD"/>
<path d="M312.019 56.1132C311.597 56.5367 311.624 56.7216 312.127 57.2226C312.682 57.8028 313.606 57.299 313.498 56.5066C313.418 55.8463 312.52 55.6103 312.019 56.1132Z" fill="#D1BDBD"/>
<path d="M307.285 66.1619C306.943 66.5061 307.34 67.1658 307.921 67.1647C308.449 67.1636 308.633 66.6613 308.289 66.2393C307.892 65.7645 307.707 65.7384 307.285 66.1619Z" fill="#D1BDBD"/>
<path d="M308.274 72.3422C308.037 72.6333 308.011 72.8712 308.197 73.1878C308.62 73.8211 309.016 73.8467 309.332 73.2649C309.885 72.2334 309.012 71.4425 308.274 72.3422Z" fill="#D1BDBD"/>
<path d="M306.844 83.5735C306.738 83.7586 306.871 84.049 307.135 84.2598C307.849 84.7604 308.113 84.6806 308.006 84.0203C307.926 83.36 307.159 83.0709 306.844 83.5735Z" fill="#D1BDBD"/>
<path d="M309.489 85.814C309.568 86.0516 309.648 86.3421 309.648 86.4742C309.649 86.8705 310.362 86.737 310.546 86.2875C310.756 85.7059 310.518 85.3893 309.858 85.3906C309.488 85.3913 309.383 85.5236 309.489 85.814Z" fill="#D1BDBD"/>
<path d="M308.655 91.7865C308.418 92.104 308.658 93.3188 308.975 93.3182C309.846 93.3165 310.214 92.3911 309.606 91.7847C309.209 91.3891 308.998 91.3895 308.655 91.7865Z" fill="#D1BDBD"/>
<path d="M308.268 96.2786C308.11 96.7809 308.561 97.5462 309.036 97.5453C309.564 97.5442 309.8 96.8304 309.403 96.3557C309.006 95.8809 308.425 95.8556 308.268 96.2786Z" fill="#D1BDBD"/>
<path d="M306.852 114.775C306.456 115.172 306.431 115.965 306.801 116.176C307.224 116.439 307.883 115.751 307.803 115.17C307.696 114.509 307.273 114.352 306.852 114.775Z" fill="#D1BDBD"/>
<path d="M305.629 138.08C305.419 138.635 305.71 139.031 306.344 139.03C306.74 139.029 306.872 138.87 306.792 138.447C306.685 137.734 305.865 137.472 305.629 138.08Z" fill="#D1BDBD"/>
<path d="M304.422 142.124C304.607 142.203 304.845 142.176 304.924 142.097C305.029 142.018 304.871 141.939 304.58 141.966C304.29 141.966 304.211 142.046 304.422 142.124Z" fill="#D1BDBD"/>
<path d="M303.332 151.902C303.042 152.193 303.175 152.51 303.544 152.509C303.756 152.509 303.993 152.403 304.072 152.27C304.256 152.006 303.569 151.664 303.332 151.902Z" fill="#D1BDBD"/>
<path d="M300.475 162.845C299.816 163.243 300.186 163.612 301.216 163.61C302.272 163.608 302.615 163.211 301.901 162.842C301.267 162.5 301.082 162.501 300.475 162.845Z" fill="#D1BDBD"/>
<path d="M302.67 164.611C301.958 165.167 302.144 165.722 303.042 165.72C303.755 165.719 304.256 165.242 304.255 164.608C304.253 163.974 303.435 164.002 302.67 164.611Z" fill="#D1BDBD"/>
<path d="M300.831 169.265C300.831 169.476 300.964 169.74 301.096 169.819C301.44 170.03 302.204 169.447 301.992 169.13C301.754 168.734 300.83 168.868 300.831 169.265Z" fill="#D1BDBD"/>
<path d="M300.113 180.415C300.167 180.706 300.405 180.943 300.695 180.995C301.039 181.074 301.144 180.968 301.064 180.625C301.011 180.334 300.773 180.097 300.482 180.044C300.139 179.966 300.033 180.072 300.113 180.415Z" fill="#D1BDBD"/>
<path d="M299.679 188.183C299.442 188.58 300.051 189.239 300.606 189.238C301.398 189.237 301.476 188.47 300.709 188.181C299.89 187.866 299.89 187.866 299.679 188.183Z" fill="#D1BDBD"/>
<path d="M299.741 192.86C299.451 193.151 299.531 193.441 300.086 193.995C300.668 194.575 301.408 194.441 301.406 193.755C301.405 192.936 300.268 192.304 299.741 192.86Z" fill="#D1BDBD"/>
<path d="M299.653 202.08C299.469 202.583 299.998 202.978 300.843 202.976C301.239 202.975 301.424 202.817 301.423 202.473C301.422 201.654 299.942 201.314 299.653 202.08Z" fill="#D1BDBD"/>
<path d="M300.036 208.711C299.667 209.055 299.88 210.111 300.356 210.375C301.07 210.743 301.255 210.716 301.65 210.108C301.913 209.658 301.886 209.5 301.436 209.052C300.907 208.524 300.352 208.393 300.036 208.711Z" fill="#D1BDBD"/>
<path d="M299.78 212.912C299.358 213.362 299.624 214.075 300.284 214.232C301.077 214.442 301.525 214.071 301.392 213.385C301.311 212.883 300.149 212.542 299.78 212.912Z" fill="#D1BDBD"/>
<path d="M299.582 219.623C299.292 219.809 299.292 219.994 299.504 220.337C299.875 220.944 300.772 220.942 300.877 220.36C300.982 219.805 300.109 219.305 299.582 219.623Z" fill="#D1BDBD"/>
<path d="M189.698 93.7082C189.303 94.1053 189.517 95.6372 190.02 95.9004C190.601 96.2163 190.838 96.0309 190.837 95.2383C190.836 94.5778 189.988 93.417 189.698 93.7082Z" fill="#D1BDBD"/>
<path d="M90.8183 99.4746C90.3185 100.453 90.2413 101.51 90.5348 103.068C90.9083 105.023 91.1731 105.418 92.0707 105.311C92.6515 105.231 92.7569 105.125 92.6764 104.438C92.6491 103.989 92.5148 102.8 92.4071 101.77C92.1649 99.4191 91.397 98.3374 90.8183 99.4746Z" fill="#D1BDBD"/>
<path d="M189.79 99.8638C189.658 100.155 189.606 100.577 189.686 100.789C190.031 101.66 191.112 101.024 191.11 99.9669C191.109 99.2007 190.184 99.1233 189.79 99.8638Z" fill="#D1BDBD"/>
<path d="M190.331 106.732C189.937 107.472 190.018 108.767 190.468 109.136C190.997 109.558 191.34 109.293 191.681 108.077C191.917 107.257 191.916 106.94 191.651 106.624C191.201 106.07 190.673 106.124 190.331 106.732Z" fill="#D1BDBD"/>
<path d="M92.1305 108.957C91.6031 109.328 91.5243 109.566 91.6583 110.569C91.793 111.916 92.7458 113.077 93.5378 112.97C94.013 112.89 94.039 112.705 93.983 111.04C93.954 109.693 93.8208 109.112 93.5034 108.848C92.9481 108.453 92.8689 108.453 92.1305 108.957Z" fill="#D1BDBD"/>
<path d="M191.506 113.202C191.243 113.863 191.509 114.814 191.958 114.892C192.539 114.997 192.775 114.31 192.457 113.491C192.165 112.752 191.716 112.621 191.506 113.202Z" fill="#D1BDBD"/>
<path d="M93.5515 120.024C93.473 120.394 93.4744 121.081 93.5809 121.556C93.661 122.005 93.8489 123.564 93.9573 124.99C94.1198 127.077 94.2794 127.684 94.7292 128.159C95.0467 128.502 95.3117 128.95 95.3121 129.188C95.3135 129.901 96.1866 130.772 96.7144 130.586C97.3212 130.32 97.2919 128.841 96.628 126.887C96.3359 126.042 96.0961 124.933 96.0951 124.431C96.0926 123.163 95.3214 120.364 94.845 119.81C94.2365 119.177 93.7349 119.257 93.5515 120.024Z" fill="#D1BDBD"/>
<path d="M191.757 120.679C191.652 120.943 191.578 123.348 191.583 126.042C191.592 130.692 191.619 131.036 192.309 132.989C193 134.969 193.027 135.102 192.633 136.238C191.898 138.406 192.354 142.183 193.384 142.366C194.044 142.497 194.174 141.44 193.67 140.067C193.219 138.8 193.218 138.747 193.823 137.161L194.401 135.548L193.843 134.175C192.968 131.958 192.727 130.162 192.77 125.327C192.765 122.817 192.708 120.651 192.602 120.492C192.337 120.096 191.941 120.176 191.757 120.679Z" fill="#D1BDBD"/>
<path d="M97.0916 134.601C96.9862 134.68 96.9079 135.182 96.9089 135.658C96.9122 137.402 97.9437 138.245 98.5222 136.976C99.0217 135.839 97.8296 133.86 97.0916 134.601Z" fill="#D1BDBD"/>
<path d="M97.7669 142.393C96.9763 143.187 98.0633 145.405 98.8805 144.716C99.3023 144.372 99.6166 143.024 99.4043 142.469C99.2185 141.994 98.215 141.943 97.7669 142.393Z" fill="#D1BDBD"/>
<path d="M106.454 209.747C106.776 212.547 107.231 215.716 107.471 216.799C107.684 217.855 107.818 218.833 107.765 218.938C107.555 219.282 107.926 219.995 108.295 219.994C109.14 219.993 109.163 218.222 108.31 213.891C107.963 212.095 107.536 209.639 107.375 208.424C107.08 206.205 106.655 204.912 106.127 204.754C105.942 204.702 106.051 206.366 106.454 209.747Z" fill="#D1BDBD"/>
<path d="M108.837 227.127C108.945 228.21 109.054 229.874 109.108 230.825C109.165 232.78 109.803 235.103 110.305 235.261C110.569 235.366 110.594 234.679 110.484 232.117C110.345 228.814 109.892 226.649 109.098 225.673C108.701 225.172 108.675 225.277 108.837 227.127Z" fill="#D1BDBD"/>
<path d="M29.4665 80.7827C29.4669 80.9941 29.6521 81.1787 29.8634 81.1782C30.0746 81.1778 30.2591 80.9925 30.2587 80.7812C30.2583 80.5698 30.0731 80.3852 29.8618 80.3857C29.6506 80.3861 29.4661 80.5714 29.4665 80.7827Z" fill="#D1BDBD"/>
<path d="M28.974 85.5128C28.6316 85.9362 28.8443 86.7284 29.3197 86.7274C29.5045 86.7271 29.8739 86.5679 30.1375 86.356C30.5594 86.0381 30.5856 85.9324 30.2944 85.5631C29.8709 85.0355 29.3692 85.0365 28.974 85.5128Z" fill="#D1BDBD"/>
<path d="M27.1139 93.2046C26.7187 93.6809 26.9837 94.1295 27.723 94.1281C28.5416 94.1265 29.069 93.7292 28.8832 93.2276C28.6709 92.6996 27.5618 92.6753 27.1139 93.2046Z" fill="#D1BDBD"/>
<path d="M30.1473 105.088C29.937 105.59 30.2283 106.012 30.8357 106.011C31.3374 106.01 31.627 105.56 31.4411 105.006C31.2818 104.557 30.3312 104.612 30.1473 105.088Z" fill="#D1BDBD"/>
<path d="M53.808 105.544C53.3336 106.02 53.5194 106.495 54.2593 106.785C55.0785 107.1 56.1869 106.728 56.1858 106.147C56.1848 105.671 54.2033 105.147 53.808 105.544Z" fill="#D1BDBD"/>
<path d="M30.6049 109.552C30.236 109.975 30.5016 110.767 30.9769 110.766C31.7427 110.765 32.1645 110.421 32.1634 109.813C32.1624 109.311 32.0301 109.179 31.5284 109.18C31.1851 109.181 30.7629 109.34 30.6049 109.552Z" fill="#D1BDBD"/>
<path d="M54.7894 121.235C54.4204 121.606 54.6858 122.292 55.3201 122.582C56.3508 123.029 58.3318 123.263 58.3311 122.919C58.3305 122.629 57.2986 121.547 57.0345 121.548C56.9553 121.548 56.427 121.443 55.8986 121.312C55.3702 121.181 54.8685 121.156 54.7894 121.235Z" fill="#D1BDBD"/>
<path d="M54.9034 125.594C54.9045 126.202 55.9356 126.834 56.939 126.832C58.7875 126.828 58.1514 125.614 56.144 125.354C55.1138 125.197 54.9027 125.251 54.9034 125.594Z" fill="#D1BDBD"/>
<path d="M56.0169 127.943C55.2262 128.738 56.3116 130.136 57.5787 129.948C58.4763 129.814 58.3963 129.418 57.3118 128.496C56.5448 127.837 56.2541 127.705 56.0169 127.943Z" fill="#D1BDBD"/>
<path d="M37.7913 138.732C37.1324 139.393 37.0803 139.763 37.6617 140C37.8995 140.079 38.3217 139.92 38.6379 139.575C39.1651 139.072 39.1649 138.993 38.768 138.598C38.3712 138.202 38.292 138.229 37.7913 138.732Z" fill="#D1BDBD"/>
<path d="M37.59 143.831C36.8249 144.202 36.6675 144.731 37.17 145.126C37.699 145.575 38.9652 144.912 38.9638 144.172C38.9626 143.564 38.4078 143.433 37.59 143.831Z" fill="#D1BDBD"/>
<path d="M58.2333 154.174C57.9705 154.835 58.4993 155.204 59.1852 154.833C59.871 154.461 59.7643 153.933 58.972 153.829C58.6286 153.777 58.312 153.91 58.2333 154.174Z" fill="#D1BDBD"/>
<path d="M62.8905 159.185C62.8909 159.396 63.1291 159.686 63.4199 159.844C63.8429 160.081 64.0013 160.054 64.1063 159.737C64.1851 159.526 64.1845 159.209 64.0785 159.05C63.8401 158.654 62.8896 158.736 62.8905 159.185Z" fill="#D1BDBD"/>
<path d="M47.6623 177.1C47.3196 177.445 47.717 178.104 48.2979 178.103C48.8261 178.102 49.0099 177.6 48.6658 177.178C48.2688 176.703 48.0839 176.677 47.6623 177.1Z" fill="#D1BDBD"/>
<path d="M47.5815 189.756C46.6583 190.286 47.3468 191.315 48.6407 191.312C49.3009 191.311 50.1177 190.385 49.9318 189.857C49.7461 189.408 48.2936 189.332 47.5815 189.756Z" fill="#D1BDBD"/>
<path d="M49.9581 203.384C49.8526 203.463 49.774 203.78 49.7745 204.045C49.7752 204.414 49.9339 204.546 50.3827 204.466C51.1483 204.359 51.3837 203.196 50.6179 203.197C50.3538 203.198 50.0371 203.278 49.9581 203.384Z" fill="#D1BDBD"/>
<path d="M54.3949 203.719C54.2897 203.904 54.3165 204.141 54.4753 204.3C54.8457 204.669 55.6637 204.35 55.5308 203.901C55.3715 203.479 54.6319 203.348 54.3949 203.719Z" fill="#D1BDBD"/>
<path d="M52.2783 215.215C52.1731 215.427 52.2003 215.823 52.3064 216.061C52.4657 216.509 52.4921 216.509 52.8609 216.033C53.0715 215.742 53.2292 215.346 53.2289 215.161C53.2279 214.685 52.4623 214.739 52.2783 215.215Z" fill="#D1BDBD"/>
<path d="M54.889 227.046C54.1775 227.814 54.1778 227.946 54.8122 228.288C55.473 228.63 56.0272 228.418 56.3426 227.678C56.9211 226.408 55.8904 225.961 54.889 227.046Z" fill="#D1BDBD"/>
<path d="M55.849 231.985C55.1902 232.647 55.1114 232.858 55.376 233.175C55.5613 233.386 55.9049 233.57 56.1426 233.57C56.7763 233.568 57.7512 232.457 57.7499 231.77C57.7482 230.924 56.8242 231.032 55.849 231.985Z" fill="#D1BDBD"/>
<path d="M58.9742 236.708C58.6053 237.105 58.6055 237.237 58.8965 237.501C59.3461 237.843 60.0323 237.657 60.2424 237.075C60.6103 236.176 59.712 235.888 58.9742 236.708Z" fill="#D1BDBD"/>
<path d="M58.9821 240.618C58.8769 240.856 58.9039 241.147 59.0362 241.279C59.4066 241.648 60.1451 241.224 60.1441 240.669C60.1428 240.035 59.2185 239.984 58.9821 240.618Z" fill="#D1BDBD"/>
</svg>
