<svg width="30" height="20" viewBox="0 0 35 35" fill="none" xmlns="http://www.w3.org/2000/svg">
<mask id="path-1-inside-1_265_694" fill="white">
<path d="M3.2193 20.1238C3.26271 19.9853 3.31335 19.8178 3.37846 19.6356C3.60996 18.9504 3.9355 17.9518 4.45638 16.7346C4.71682 16.1297 5.01342 15.4664 5.38961 14.774C5.75857 14.0816 6.19263 13.36 6.7135 12.653C7.74802 11.2317 9.17319 9.86144 11.0107 9.04512C13.5789 7.9008 16.7404 7.74045 19.3809 8.7317C22.0793 9.74482 24.2062 11.8294 25.1901 14.5626C25.3998 15.1457 25.5518 15.7434 25.653 16.3556C26.5573 21.7128 22.318 27.6603 16.6101 27.2157C16.1398 27.1792 15.6696 27.099 15.2138 26.9679C12.4503 26.1806 10.5115 23.9576 10.1859 21.0932C10.1715 20.9547 10.1642 20.8162 10.157 20.6777C10.157 20.5393 10.1498 20.4008 10.157 20.255C10.1787 19.1398 10.4464 18.0393 10.9166 17.099C10.9455 17.0407 10.9745 16.9824 11.0107 16.9241C11.0396 16.8657 11.0685 16.8074 11.1047 16.7491C11.1698 16.6398 11.2349 16.5232 11.3073 16.4138L11.3579 16.3337C11.3724 16.3045 11.3941 16.2754 11.4085 16.2535L11.5026 16.115C11.5243 16.0786 11.5894 16.0057 11.6328 15.9401L11.7052 15.8453L11.7413 15.8016C11.7703 15.7724 11.7269 15.8162 11.7341 15.8089L11.7486 15.7943C12.0669 15.408 12.4286 15.0873 12.812 14.8176C13.1954 14.548 13.615 14.3512 14.0419 14.22C14.4687 14.0888 14.91 14.0232 15.344 14.0232C15.7781 14.0305 16.2049 14.0961 16.6173 14.2273C16.6679 14.2418 16.7186 14.2637 16.7692 14.2783C16.8199 14.2929 16.8705 14.3147 16.9139 14.3293L16.979 14.3512L17.0152 14.3657L17.0297 14.373L17.0514 14.3803C17.1092 14.4095 17.1743 14.4386 17.2322 14.4678L17.2539 14.4751C17.2829 14.4896 17.2395 14.4678 17.2467 14.4751L17.2756 14.4896L17.3335 14.5188C17.3697 14.5407 17.4131 14.5625 17.4493 14.5844C17.5216 14.6281 17.6012 14.6792 17.6735 14.7302C18.2523 15.1602 18.6429 15.8526 18.7514 16.5086C18.7803 16.6762 18.7948 16.8366 18.7948 16.9969C18.7948 17.1573 18.7731 17.3176 18.7442 17.4707C18.7153 17.6238 18.6646 17.7695 18.6068 17.908C18.5924 17.9445 18.5779 17.9809 18.5633 18.0101C18.549 18.0465 18.5272 18.0757 18.5128 18.1121C18.4983 18.1485 18.4766 18.1777 18.4621 18.1995L18.4404 18.2433L18.426 18.2652L18.4187 18.2724L18.4114 18.2871C18.3825 18.3308 18.3535 18.3673 18.3246 18.4109L18.3029 18.4401L18.2957 18.4546C18.2884 18.462 18.3245 18.4255 18.3029 18.4473L18.2667 18.4983C18.2233 18.5638 18.1727 18.6295 18.1293 18.6951C18.0352 18.8263 17.9267 18.9502 17.8182 19.0741C17.6012 19.3147 17.3697 19.5187 17.1309 19.7009C16.6607 20.0654 16.176 20.2914 15.7419 20.3788C15.3079 20.4663 14.9172 20.4079 14.6278 20.255C14.3312 20.1165 14.1359 19.9196 14.0129 19.7885C13.9478 19.7229 13.9044 19.6646 13.8755 19.6281C13.8465 19.5917 13.8321 19.5698 13.8321 19.5698C13.8321 19.5698 13.8393 19.5917 13.8538 19.6354C13.8682 19.6792 13.8899 19.752 13.9261 19.8394C13.9623 19.927 14.0129 20.0363 14.0853 20.1674C14.1576 20.2914 14.2589 20.4299 14.4036 20.5757C14.5483 20.7141 14.7291 20.8526 14.9606 20.962C15.1921 21.0713 15.467 21.1515 15.7636 21.1806C18.491 21.4649 20.929 18.9357 20.8205 16.2462C20.712 13.4182 18.1149 11.6034 15.5249 11.3118C12.689 10.9911 9.95443 12.6675 8.33393 14.9415C6.77131 17.1208 6.27213 19.927 6.67003 22.5582C6.73514 22.9809 6.82195 23.4036 6.94493 23.8191C6.95217 23.8337 5.34613 30.3351 5.34613 30.3351L10.5549 29.0887C10.6128 29.1325 10.6706 29.1762 10.7285 29.2199C12.132 30.2403 13.767 30.9036 15.4815 31.2024L17.8038 35L20.2346 31.0203L20.43 30.9693L20.495 30.9548L20.5818 30.9257L20.7627 30.8746L20.9435 30.8163L21.1099 30.758C22.2819 30.3571 23.367 29.7741 24.3509 29.0598L29.661 30.3279L28.2937 24.519C28.4745 24.1836 28.641 23.841 28.7928 23.4912C28.9737 23.0757 29.1328 22.653 29.2703 22.223L29.3644 21.895L29.3861 21.8148L29.4078 21.7419L29.4151 21.7055L29.4512 21.5671L29.4874 21.4286L29.5019 21.363L35 17.9446L29.3426 14.4315C29.2124 13.9796 29.0606 13.535 28.8869 13.105C28.6626 12.5437 28.4094 12.0117 28.12 11.4942L29.661 4.95627L23.1862 6.50146C22.8534 6.31924 22.5134 6.14431 22.1661 5.99125C21.6091 5.74344 21.0448 5.53936 20.4805 5.37901L17.1889 0L14.0492 5.13848C13.8611 5.17493 13.673 5.21137 13.4849 5.2551C12.501 5.47376 11.5605 5.80904 10.6924 6.23178L5.33897 4.94898L6.4603 9.72303C6.29391 9.94169 6.14199 10.1603 5.9973 10.379C5.70069 10.8236 5.44025 11.2682 5.21599 11.7055C4.76022 12.5875 4.42744 13.4402 4.15977 14.2274C4.09466 14.4242 4.03678 14.621 3.97891 14.8105L0 17.3178L3.03844 20.6778L3.2193 20.1238Z"/>
</mask>
<path d="M3.2193 20.1238C3.26271 19.9853 3.31335 19.8178 3.37846 19.6356C3.60996 18.9504 3.9355 17.9518 4.45638 16.7346C4.71682 16.1297 5.01342 15.4664 5.38961 14.774C5.75857 14.0816 6.19263 13.36 6.7135 12.653C7.74802 11.2317 9.17319 9.86144 11.0107 9.04512C13.5789 7.9008 16.7404 7.74045 19.3809 8.7317C22.0793 9.74482 24.2062 11.8294 25.1901 14.5626C25.3998 15.1457 25.5518 15.7434 25.653 16.3556C26.5573 21.7128 22.318 27.6603 16.6101 27.2157C16.1398 27.1792 15.6696 27.099 15.2138 26.9679C12.4503 26.1806 10.5115 23.9576 10.1859 21.0932C10.1715 20.9547 10.1642 20.8162 10.157 20.6777C10.157 20.5393 10.1498 20.4008 10.157 20.255C10.1787 19.1398 10.4464 18.0393 10.9166 17.099C10.9455 17.0407 10.9745 16.9824 11.0107 16.9241C11.0396 16.8657 11.0685 16.8074 11.1047 16.7491C11.1698 16.6398 11.2349 16.5232 11.3073 16.4138L11.3579 16.3337C11.3724 16.3045 11.3941 16.2754 11.4085 16.2535L11.5026 16.115C11.5243 16.0786 11.5894 16.0057 11.6328 15.9401L11.7052 15.8453L11.7413 15.8016C11.7703 15.7724 11.7269 15.8162 11.7341 15.8089L11.7486 15.7943C12.0669 15.408 12.4286 15.0873 12.812 14.8176C13.1954 14.548 13.615 14.3512 14.0419 14.22C14.4687 14.0888 14.91 14.0232 15.344 14.0232C15.7781 14.0305 16.2049 14.0961 16.6173 14.2273C16.6679 14.2418 16.7186 14.2637 16.7692 14.2783C16.8199 14.2929 16.8705 14.3147 16.9139 14.3293L16.979 14.3512L17.0152 14.3657L17.0297 14.373L17.0514 14.3803C17.1092 14.4095 17.1743 14.4386 17.2322 14.4678L17.2539 14.4751C17.2829 14.4896 17.2395 14.4678 17.2467 14.4751L17.2756 14.4896L17.3335 14.5188C17.3697 14.5407 17.4131 14.5625 17.4493 14.5844C17.5216 14.6281 17.6012 14.6792 17.6735 14.7302C18.2523 15.1602 18.6429 15.8526 18.7514 16.5086C18.7803 16.6762 18.7948 16.8366 18.7948 16.9969C18.7948 17.1573 18.7731 17.3176 18.7442 17.4707C18.7153 17.6238 18.6646 17.7695 18.6068 17.908C18.5924 17.9445 18.5779 17.9809 18.5633 18.0101C18.549 18.0465 18.5272 18.0757 18.5128 18.1121C18.4983 18.1485 18.4766 18.1777 18.4621 18.1995L18.4404 18.2433L18.426 18.2652L18.4187 18.2724L18.4114 18.2871C18.3825 18.3308 18.3535 18.3673 18.3246 18.4109L18.3029 18.4401L18.2957 18.4546C18.2884 18.462 18.3245 18.4255 18.3029 18.4473L18.2667 18.4983C18.2233 18.5638 18.1727 18.6295 18.1293 18.6951C18.0352 18.8263 17.9267 18.9502 17.8182 19.0741C17.6012 19.3147 17.3697 19.5187 17.1309 19.7009C16.6607 20.0654 16.176 20.2914 15.7419 20.3788C15.3079 20.4663 14.9172 20.4079 14.6278 20.255C14.3312 20.1165 14.1359 19.9196 14.0129 19.7885C13.9478 19.7229 13.9044 19.6646 13.8755 19.6281C13.8465 19.5917 13.8321 19.5698 13.8321 19.5698C13.8321 19.5698 13.8393 19.5917 13.8538 19.6354C13.8682 19.6792 13.8899 19.752 13.9261 19.8394C13.9623 19.927 14.0129 20.0363 14.0853 20.1674C14.1576 20.2914 14.2589 20.4299 14.4036 20.5757C14.5483 20.7141 14.7291 20.8526 14.9606 20.962C15.1921 21.0713 15.467 21.1515 15.7636 21.1806C18.491 21.4649 20.929 18.9357 20.8205 16.2462C20.712 13.4182 18.1149 11.6034 15.5249 11.3118C12.689 10.9911 9.95443 12.6675 8.33393 14.9415C6.77131 17.1208 6.27213 19.927 6.67003 22.5582C6.73514 22.9809 6.82195 23.4036 6.94493 23.8191C6.95217 23.8337 5.34613 30.3351 5.34613 30.3351L10.5549 29.0887C10.6128 29.1325 10.6706 29.1762 10.7285 29.2199C12.132 30.2403 13.767 30.9036 15.4815 31.2024L17.8038 35L20.2346 31.0203L20.43 30.9693L20.495 30.9548L20.5818 30.9257L20.7627 30.8746L20.9435 30.8163L21.1099 30.758C22.2819 30.3571 23.367 29.7741 24.3509 29.0598L29.661 30.3279L28.2937 24.519C28.4745 24.1836 28.641 23.841 28.7928 23.4912C28.9737 23.0757 29.1328 22.653 29.2703 22.223L29.3644 21.895L29.3861 21.8148L29.4078 21.7419L29.4151 21.7055L29.4512 21.5671L29.4874 21.4286L29.5019 21.363L35 17.9446L29.3426 14.4315C29.2124 13.9796 29.0606 13.535 28.8869 13.105C28.6626 12.5437 28.4094 12.0117 28.12 11.4942L29.661 4.95627L23.1862 6.50146C22.8534 6.31924 22.5134 6.14431 22.1661 5.99125C21.6091 5.74344 21.0448 5.53936 20.4805 5.37901L17.1889 0L14.0492 5.13848C13.8611 5.17493 13.673 5.21137 13.4849 5.2551C12.501 5.47376 11.5605 5.80904 10.6924 6.23178L5.33897 4.94898L6.4603 9.72303C6.29391 9.94169 6.14199 10.1603 5.9973 10.379C5.70069 10.8236 5.44025 11.2682 5.21599 11.7055C4.76022 12.5875 4.42744 13.4402 4.15977 14.2274C4.09466 14.4242 4.03678 14.621 3.97891 14.8105L0 17.3178L3.03844 20.6778L3.2193 20.1238Z" stroke="white" stroke-width="2" mask="url(#path-1-inside-1_265_694)"/>
</svg>
