<svg width="8" height="6" viewBox="0 0 38 43" fill="none" xmlns="http://www.w3.org/2000/svg">
<path d="M32.8462 5.78233H32.1374L31.9027 5.11343C31.4802 3.90933 30.697 2.86764 29.6621 2.13129C28.6273 1.39499 27.3915 1 26.125 1C24.8585 1 23.6227 1.39499 22.5879 2.13129C21.553 2.86764 20.7698 3.90933 20.3473 5.11343L20.1126 5.78233H19.4037H2.375C2.01213 5.78233 1.66298 5.92723 1.40469 6.18697C1.14621 6.44689 1 6.80059 1 7.17057C1 7.54054 1.14621 7.89425 1.40469 8.15417C1.66298 8.4139 2.01213 8.55881 2.375 8.55881H19.4037H20.1126L20.3473 9.22771C20.7698 10.4318 21.553 11.4735 22.5879 12.2098C23.6227 12.9461 24.8585 13.3411 26.125 13.3411C27.3915 13.3411 28.6273 12.9461 29.6621 12.2098C30.697 11.4735 31.4802 10.4318 31.9027 9.22771L32.1374 8.55881H32.8462H35.625C35.9879 8.55881 36.337 8.4139 36.5953 8.15417C36.8538 7.89424 37 7.54054 37 7.17057C37 6.8006 36.8538 6.44689 36.5953 6.18697L37.3044 5.48183L36.5953 6.18697C36.337 5.92723 35.9879 5.78233 35.625 5.78233H32.8462ZM18.5963 20.1118H17.8874L17.6527 19.4429C17.2302 18.2388 16.447 17.1971 15.4121 16.4607C14.3773 15.7244 13.1415 15.3294 11.875 15.3294C10.6085 15.3294 9.37274 15.7244 8.33792 16.4607C7.30302 17.1971 6.51985 18.2388 6.09735 19.4429L5.86264 20.1118H5.15375H2.375C2.01212 20.1118 1.66298 20.2567 1.40469 20.5164C1.14621 20.7763 1 21.13 1 21.5C1 21.87 1.14621 22.2237 1.40469 22.4836C1.66298 22.7433 2.01213 22.8882 2.375 22.8882H5.15375H5.86264L6.09735 23.5571C6.51985 24.7612 7.30302 25.8029 8.33792 26.5393C9.37274 27.2756 10.6085 27.6706 11.875 27.6706C13.1415 27.6706 14.3773 27.2756 15.4121 26.5393C16.447 25.8029 17.2302 24.7612 17.6527 23.5571L17.8874 22.8882H18.5963H35.625C35.9879 22.8882 36.337 22.7433 36.5953 22.4836C36.8538 22.2237 37 21.87 37 21.5C37 21.13 36.8538 20.7763 36.5953 20.5164C36.337 20.2567 35.9879 20.1118 35.625 20.1118H18.5963ZM32.8462 34.4412H32.1374L31.9027 33.7723C31.4802 32.5682 30.697 31.5265 29.6621 30.7901C28.6273 30.0539 27.3915 29.6589 26.125 29.6589C24.8585 29.6589 23.6227 30.0539 22.5879 30.7901C21.553 31.5265 20.7698 32.5682 20.3473 33.7723L20.1126 34.4412H19.4037H2.375C2.01212 34.4412 1.66298 34.5861 1.40469 34.8458C1.14621 35.1057 1 35.4595 1 35.8294C1 36.1994 1.14621 36.5531 1.40469 36.813C1.66298 37.0728 2.01212 37.2177 2.375 37.2177H19.4037H20.1126L20.3473 37.8866C20.7698 39.0907 21.553 40.1324 22.5879 40.8687C23.6227 41.605 24.8585 42 26.125 42C27.3915 42 28.6273 41.605 29.6621 40.8687C30.697 40.1324 31.4802 39.0907 31.9027 37.8866L32.1374 37.2177H32.8462H35.625C35.9879 37.2177 36.337 37.0728 36.5953 36.813L37.3016 37.5154L36.5953 36.813C36.8538 36.5531 37 36.1994 37 35.8294C37 35.4595 36.8538 35.1058 36.5953 34.8458L37.3044 34.1407L36.5953 34.8458C36.337 34.5861 35.9879 34.4412 35.625 34.4412H32.8462ZM26.125 3.78233C27.0219 3.78233 27.8809 4.14066 28.5134 4.77669C29.1458 5.41253 29.5 6.27374 29.5 7.17057C29.5 8.0674 29.1458 8.92861 28.5134 9.56445C27.8809 10.2005 27.0219 10.5588 26.125 10.5588C25.2281 10.5588 24.3691 10.2005 23.7366 9.56445C23.1042 8.92861 22.75 8.0674 22.75 7.17057C22.75 6.27374 23.1042 5.41253 23.7366 4.77669C24.3691 4.14066 25.2281 3.78233 26.125 3.78233ZM11.875 18.1118C12.7719 18.1118 13.6309 18.4701 14.2634 19.1061C14.8958 19.742 15.25 20.6032 15.25 21.5C15.25 22.3968 14.8958 23.258 14.2634 23.8939C13.6309 24.5299 12.7719 24.8882 11.875 24.8882C10.9781 24.8882 10.1191 24.5299 9.48655 23.8939C8.85424 23.258 8.5 22.3968 8.5 21.5C8.5 20.6032 8.85424 19.742 9.48655 19.1061C10.1191 18.4701 10.9781 18.1118 11.875 18.1118ZM26.125 32.4412C27.0219 32.4412 27.8809 32.7995 28.5134 33.4356C29.1458 34.0714 29.5 34.9326 29.5 35.8294C29.5 36.7263 29.1458 37.5875 28.5134 38.2233C27.8809 38.8593 27.0219 39.2177 26.125 39.2177C25.2281 39.2177 24.3691 38.8593 23.7366 38.2233C23.1042 37.5875 22.75 36.7263 22.75 35.8294C22.75 34.9326 23.1042 34.0714 23.7366 33.4356C24.3691 32.7995 25.2281 32.4412 26.125 32.4412Z" fill="white" stroke="black" stroke-width="2"/>
</svg>
