<svg width="30" height="20" viewBox="0 0 37 37" fill="none" xmlns="http://www.w3.org/2000/svg">
<path d="M36.8808 18.2081L18.7919 0.119205C18.7139 0.0427982 18.6091 0 18.5 0C18.3909 0 18.2861 0.0427982 18.2081 0.119205L0.119214 18.2081C0.118786 18.2112 0.117349 18.2141 0.115124 18.2163C0.0412986 18.2923 0 18.3941 0 18.5C0 18.6059 0.0412986 18.7077 0.115124 18.7837C0.117349 18.7859 0.118786 18.7888 0.119214 18.7919L18.2081 36.8808C18.286 36.9572 18.3908 37 18.5 37C18.6092 37 18.714 36.9572 18.7919 36.8808L36.8808 18.7919C36.9572 18.7139 37 18.6091 37 18.5C37 18.3908 36.9572 18.286 36.8808 18.2081ZM18.0889 35.5981L1.8911 19.4003L18.0889 24.5557V35.5981ZM18.0889 23.6964L1.17577 18.315L18.0889 1.40187V23.6964ZM18.9111 35.5981V24.5557L35.1007 19.4044L18.9111 35.5981ZM18.9111 23.6964V1.40187L35.8201 18.315L18.9111 23.6964Z" fill="#EFE8E8"/>
<path d="M14.9397 14.0389L15.7152 13.7924C15.8203 13.7559 15.9064 13.6824 15.9557 13.5873C16.0049 13.4922 16.0135 13.3829 15.9796 13.2819C15.9654 13.2322 15.9408 13.1858 15.9071 13.1453C15.8734 13.1049 15.8314 13.0713 15.7837 13.0467C15.7359 13.022 15.6834 13.0067 15.6292 13.0018C15.575 12.9968 15.5203 13.0023 15.4685 13.0179L14.693 13.2643C14.5879 13.3009 14.5018 13.3744 14.4525 13.4694C14.4033 13.5645 14.3947 13.6739 14.4286 13.7748C14.4428 13.8245 14.4674 13.871 14.5011 13.9114C14.5348 13.9519 14.5767 13.9854 14.6245 14.0101C14.6723 14.0348 14.7248 14.0501 14.779 14.055C14.8332 14.06 14.8878 14.0545 14.9397 14.0389ZM11.8377 15.0247L12.6132 14.7782C12.7183 14.7417 12.8044 14.6682 12.8536 14.5731C12.9029 14.478 12.9114 14.3687 12.8776 14.2677C12.8634 14.218 12.8387 14.1716 12.8051 14.1311C12.7714 14.0907 12.7294 14.0571 12.6816 14.0325C12.6339 14.0078 12.5813 13.9925 12.5271 13.9876C12.473 13.9826 12.4183 13.9881 12.3664 14.0037L11.5909 14.2501C11.4858 14.2867 11.3997 14.3602 11.3505 14.4552C11.3012 14.5503 11.2927 14.6597 11.3265 14.7606C11.3407 14.8103 11.3654 14.8568 11.399 14.8972C11.4327 14.9377 11.4747 14.9712 11.5225 14.9959C11.5702 15.0206 11.6228 15.0359 11.677 15.0408C11.7311 15.0458 11.7858 15.0403 11.8377 15.0247ZM8.73562 16.0105L9.51113 15.7641C9.61621 15.7275 9.70233 15.654 9.75158 15.5589C9.80082 15.4639 9.80939 15.3545 9.77551 15.2535C9.76134 15.2039 9.73668 15.1574 9.703 15.1169C9.66933 15.0765 9.62735 15.0429 9.57958 15.0183C9.53182 14.9936 9.47927 14.9783 9.4251 14.9734C9.37092 14.9684 9.31625 14.9739 9.26438 14.9895L8.48887 15.2359C8.38379 15.2725 8.29767 15.346 8.24843 15.4411C8.19918 15.5361 8.19061 15.6455 8.22449 15.7464C8.23866 15.7961 8.26333 15.8426 8.297 15.883C8.33067 15.9235 8.37266 15.9571 8.42042 15.9817C8.46818 16.0064 8.52074 16.0217 8.57491 16.0266C8.62908 16.0316 8.68375 16.0261 8.73562 16.0105ZM5.63357 16.9963L6.40909 16.7499C6.51416 16.7133 6.60028 16.6398 6.64953 16.5447C6.69877 16.4497 6.70734 16.3403 6.67346 16.2394C6.65929 16.1897 6.63463 16.1432 6.60095 16.1028C6.56728 16.0623 6.5253 16.0288 6.47753 16.0041C6.42977 15.9794 6.37722 15.9641 6.32305 15.9592C6.26887 15.9542 6.2142 15.9597 6.16233 15.9753L5.38682 16.2218C5.28174 16.2583 5.19562 16.3318 5.14638 16.4269C5.09713 16.522 5.08856 16.6313 5.12244 16.7323C5.13661 16.782 5.16127 16.8284 5.19495 16.8689C5.22862 16.9093 5.2706 16.9429 5.31837 16.9675C5.36613 16.9922 5.41868 17.0075 5.47285 17.0124C5.52703 17.0174 5.5817 17.0119 5.63357 16.9963ZM2.53153 17.9821L3.30704 17.7357C3.41211 17.6991 3.49824 17.6256 3.54748 17.5306C3.59672 17.4355 3.6053 17.3261 3.57142 17.2252C3.55725 17.1755 3.53258 17.129 3.49891 17.0886C3.46523 17.0481 3.42325 17.0146 3.37549 16.9899C3.32772 16.9652 3.27517 16.9499 3.221 16.945C3.16683 16.94 3.11216 16.9455 3.06028 16.9611L2.28477 17.2076C2.1797 17.2441 2.09358 17.3176 2.04433 17.4127C1.99509 17.5078 1.98651 17.6171 2.02039 17.7181C2.03456 17.7678 2.05923 17.8142 2.0929 17.8547C2.12658 17.8951 2.16856 17.9287 2.21632 17.9533C2.26409 17.978 2.31664 17.9933 2.37081 17.9982C2.42498 18.0032 2.47966 17.9977 2.53153 17.9821Z" fill="#EFE8E8"/>
<path d="M22.307 13.2643L21.5315 13.0179C21.4797 13.0023 21.425 12.9968 21.3708 13.0018C21.3166 13.0067 21.2641 13.022 21.2163 13.0467C21.1686 13.0713 21.1266 13.1049 21.0929 13.1453C21.0592 13.1858 21.0346 13.2322 21.0204 13.2819C20.9865 13.3829 20.9951 13.4922 21.0443 13.5873C21.0936 13.6824 21.1797 13.7559 21.2848 13.7924L22.0603 14.0389C22.1122 14.0545 22.1668 14.0599 22.221 14.055C22.2752 14.0501 22.3277 14.0348 22.3755 14.0101C22.4233 13.9854 22.4652 13.9519 22.4989 13.9114C22.5326 13.871 22.5572 13.8245 22.5714 13.7748C22.6053 13.6739 22.5967 13.5645 22.5475 13.4694C22.4982 13.3744 22.4121 13.3009 22.307 13.2643ZM25.4091 14.2501L24.6336 14.0037C24.5817 13.9881 24.527 13.9826 24.4729 13.9876C24.4187 13.9925 24.3661 14.0078 24.3184 14.0325C24.2706 14.0571 24.2286 14.0907 24.1949 14.1311C24.1613 14.1716 24.1366 14.218 24.1224 14.2677C24.0886 14.3687 24.0971 14.478 24.1464 14.5731C24.1956 14.6682 24.2817 14.7417 24.3868 14.7782L25.1623 15.0247C25.2142 15.0403 25.2689 15.0458 25.323 15.0408C25.3772 15.0359 25.4298 15.0206 25.4775 14.9959C25.5253 14.9712 25.5673 14.9377 25.601 14.8972C25.6346 14.8568 25.6593 14.8103 25.6735 14.7606C25.7073 14.6597 25.6988 14.5503 25.6495 14.4552C25.6003 14.3602 25.5142 14.2867 25.4091 14.2501ZM28.5111 15.2359L27.7356 14.9895C27.6837 14.9739 27.6291 14.9684 27.5749 14.9734C27.5207 14.9783 27.4682 14.9936 27.4204 15.0183C27.3727 15.0429 27.3307 15.0765 27.297 15.1169C27.2633 15.1574 27.2387 15.2039 27.2245 15.2535C27.1906 15.3545 27.1992 15.4638 27.2484 15.5589C27.2977 15.654 27.3838 15.7275 27.4889 15.7641L28.2644 16.0105C28.3162 16.0261 28.3709 16.0316 28.4251 16.0266C28.4793 16.0217 28.5318 16.0064 28.5796 15.9817C28.6273 15.9571 28.6693 15.9235 28.703 15.883C28.7367 15.8426 28.7613 15.7961 28.7755 15.7464C28.8094 15.6455 28.8008 15.5361 28.7516 15.4411C28.7023 15.346 28.6162 15.2725 28.5111 15.2359ZM31.6132 16.2218L30.8377 15.9753C30.7858 15.9597 30.7311 15.9542 30.677 15.9592C30.6228 15.9641 30.5702 15.9794 30.5225 16.0041C30.4747 16.0288 30.4327 16.0623 30.399 16.1028C30.3654 16.1432 30.3407 16.1897 30.3265 16.2394C30.2927 16.3403 30.3012 16.4497 30.3505 16.5447C30.3997 16.6398 30.4858 16.7133 30.5909 16.7499L31.3664 16.9963C31.4183 17.0119 31.473 17.0174 31.5271 17.0124C31.5813 17.0075 31.6339 16.9922 31.6816 16.9675C31.7294 16.9429 31.7714 16.9093 31.8051 16.8689C31.8387 16.8284 31.8634 16.782 31.8776 16.7323C31.9114 16.6313 31.9029 16.522 31.8536 16.4269C31.8044 16.3318 31.7183 16.2583 31.6132 16.2218ZM34.7152 17.2076L33.9397 16.9611C33.8878 16.9455 33.8332 16.94 33.779 16.945C33.7248 16.9499 33.6723 16.9652 33.6245 16.9899C33.5767 17.0146 33.5348 17.0481 33.5011 17.0886C33.4674 17.129 33.4428 17.1755 33.4286 17.2252C33.3947 17.3261 33.4033 17.4355 33.4525 17.5306C33.5018 17.6256 33.5879 17.6991 33.693 17.7357L34.4685 17.9821C34.5203 17.9977 34.575 18.0032 34.6292 17.9982C34.6834 17.9933 34.7359 17.978 34.7837 17.9533C34.8314 17.9287 34.8734 17.8951 34.9071 17.8547C34.9408 17.8142 34.9654 17.7678 34.9796 17.7181C35.0135 17.6171 35.0049 17.5078 34.9557 17.4127C34.9064 17.3176 34.8203 17.2441 34.7152 17.2076Z" fill="#EFE8E8"/>
</svg>
