<svg width="108" height="107" viewBox="0 0 108 107" fill="none" xmlns="http://www.w3.org/2000/svg">
<g filter="url(#filter0_d_134_792)">
<ellipse cx="53.9995" cy="49.5" rx="49.9995" ry="49.5" fill="#D9D9D9"/>
<path d="M91.8795 33.8896C91.7758 33.6938 89.2645 29.04 82.8543 24.3683C79.1138 21.6424 74.8077 19.4717 70.0551 17.9169C64.1393 15.9814 57.5117 15 50.3562 15C43.1742 15 36.9053 16.0813 31.7236 18.2139C27.5322 19.9389 24.0381 22.3506 21.338 25.382C16.7072 30.5814 16.034 35.7621 16.0076 35.98C15.9398 36.5403 16.3335 37.052 16.8939 37.1319C17.0353 37.152 30.8834 39.1068 45.867 39.7767C45.7405 41.4293 45.5842 43.4582 45.407 45.7202L41.5999 48.4039C41.289 48.6231 41.1228 48.9942 41.1668 49.3711C41.2107 49.7482 41.4578 50.0714 41.8109 50.2137C41.9005 50.2499 42.9879 50.6782 44.9804 51.1115C43.5586 68.9077 42.5197 79.8898 42.0506 82.0746C41.9421 82.5803 42.2234 83.0883 42.7103 83.2663C45.3991 84.2492 50.1055 84.9277 54.7007 84.9946C54.9311 84.9981 55.1751 85 55.4312 85C58.6003 85 63.5578 84.6971 66.0469 82.9709C66.4177 82.7138 66.5797 82.2476 66.4482 81.8167C65.2501 77.8911 62.0966 64.9778 61.5558 51.5857C62.5608 51.4611 63.5719 51.3143 64.5883 51.139C64.9628 51.0745 65.2721 50.8117 65.3957 50.4537C65.519 50.0954 65.437 49.6986 65.1814 49.4182C63.8474 47.9552 62.2578 46.7035 61.4928 46.1314C61.5306 43.9563 61.6516 41.864 61.8541 39.8688C80.563 39.0853 90.8709 35.5069 91.3071 35.3526C91.592 35.2517 91.819 35.0324 91.9288 34.7515C92.0386 34.4705 92.0208 34.1562 91.8795 33.8896ZM22.8951 26.7603C25.3835 23.9664 28.6211 21.7365 32.5181 20.1327C37.4467 18.1042 43.4484 17.0758 50.3562 17.0758C65.9606 17.0758 75.918 21.9126 81.5234 25.97C85.208 28.6371 87.7296 31.4895 89.0911 33.3821C84.186 33.5022 78.7935 33.6317 73.2334 33.7639C73.5288 33.7569 73.4537 33.7586 73.1288 33.7427C72.7288 33.7427 72.7288 33.7427 72.3288 33.7639C71.8632 33.7639 72.3288 33.7639 71.8433 33.7968C71.8642 33.8372 72.3288 33.7639 71.8433 33.7968C71.358 33.8083 70.8161 34.0719 70.3289 34.0834C69.521 34.016 71.3485 34.119 69.5289 34.0834C71.1424 34.1367 70.2483 34.1548 69.4404 34.0874C68.9928 34.465 71.5288 34.1415 69.3392 34.1415C70.7288 34.1415 69.4309 34.0077 69.1288 34.1415C53.5252 34.5103 37.1272 34.6074 27.035 34.8383C28.2031 34.8116 25.1288 34.9079 26.7288 34.8383C26.9542 34.5292 26.859 35.071 26.5491 34.8463C26.2394 34.6216 23.5288 36.1354 26.0002 34.8463C23.7919 35.0369 20.8002 34.9806 25.6277 34.8705C22.2896 34.9468 19.7573 35.0044 18.3291 35.0369C18.779 33.3361 19.9629 30.0526 22.8951 26.7603ZM59.4186 45.7258C58.4349 45.8263 56.6901 45.9647 54.5386 45.9647C52.0581 45.9647 49.7014 45.7846 47.5187 45.4289C47.843 41.2795 48.0939 37.9673 48.2097 36.4272C52.0931 36.3371 56.1423 36.2428 60.2339 36.147C59.7642 39.1064 59.4925 42.3203 59.4186 45.7258ZM51.5974 47.955L51.361 49.8745C50.439 49.8167 49.5853 49.7356 48.8 49.6399L49.5853 47.7938C50.2445 47.8618 50.9156 47.9152 51.5974 47.955ZM52.9884 48.0149C53.5005 48.0303 54.016 48.0405 54.5385 48.0405C55.2945 48.0405 55.9988 48.0241 56.6432 47.9985L57.0801 49.898C56.1719 49.944 55.2728 49.9686 54.3861 49.9686C53.8227 49.9686 53.2779 49.9591 52.7514 49.9418L52.9884 48.0149ZM32.5547 36.7882C36.5883 36.6957 41.1969 36.5895 46.1179 36.4755C46.0922 36.8173 46.061 37.2293 46.0249 37.7057C41.2883 37.4952 36.6643 37.1551 32.5547 36.7882ZM46.6494 47.3868C47.1411 47.4741 47.6433 47.5504 48.1514 47.6203L47.3764 49.442C46.2349 49.2611 45.2851 49.0577 44.5419 48.8724L46.6494 47.3868ZM64.2238 81.6311C60.1579 83.5905 49.3358 83.08 44.2479 81.5856C44.9118 77.1947 46.0957 63.287 47.0386 51.4959C48.9828 51.8033 51.4442 52.0444 54.3861 52.0444C56.0501 52.0444 57.7527 51.9654 59.4811 51.8101C60.0146 64.5798 62.8762 76.9089 64.2238 81.6311ZM58.4837 49.8089L58.0502 47.9241C59.0075 47.8601 59.736 47.7834 60.1631 47.7327C60.5846 48.046 61.3719 48.6523 62.2129 49.4083C60.9573 49.5832 59.713 49.7157 58.4837 49.8089ZM62.3536 36.0971C68.7983 35.9459 75.2954 35.792 81.3678 35.646C76.624 36.5338 70.1359 37.4252 62.0985 37.7798C62.1759 37.2087 62.2622 36.6493 62.3536 36.0971Z" fill="black"/>
</g>
<defs>
<filter id="filter0_d_134_792" x="0" y="0" width="108" height="107" filterUnits="userSpaceOnUse" color-interpolation-filters="sRGB">
<feFlood flood-opacity="0" result="BackgroundImageFix"/>
<feColorMatrix in="SourceAlpha" type="matrix" values="0 0 0 0 0 0 0 0 0 0 0 0 0 0 0 0 0 0 127 0" result="hardAlpha"/>
<feOffset dy="4"/>
<feGaussianBlur stdDeviation="2"/>
<feComposite in2="hardAlpha" operator="out"/>
<feColorMatrix type="matrix" values="0 0 0 0 0 0 0 0 0 0 0 0 0 0 0 0 0 0 0.25 0"/>
<feBlend mode="normal" in2="BackgroundImageFix" result="effect1_dropShadow_134_792"/>
<feBlend mode="normal" in="SourceGraphic" in2="effect1_dropShadow_134_792" result="shape"/>
</filter>
</defs>
</svg>
