<svg width="40" height="30" viewBox="0 0 40 38" fill="none" xmlns="http://www.w3.org/2000/svg">
<g id="Vector" filter="url(#filter0_d_118_317)">
<path d="M35.9493 8.09556C35.9056 8.01164 34.8482 6.01713 32.1492 4.01498C30.5742 2.84672 28.7611 1.91645 26.76 1.2501C24.2692 0.42058 21.4786 0 18.4658 0C15.4418 0 12.8022 0.463432 10.6205 1.3774C8.85564 2.11669 7.38445 3.15024 6.24758 4.44942C4.29777 6.67776 4.01431 8.89802 4.0032 8.99144C3.97463 9.23157 4.14041 9.45087 4.37639 9.48512C4.43593 9.49372 10.2667 10.3315 16.5756 10.6186C16.5223 11.3268 16.4565 12.1964 16.3819 13.1658L14.7789 14.316C14.648 14.4099 14.578 14.5689 14.5966 14.7305C14.615 14.8921 14.7191 15.0306 14.8678 15.0916C14.9055 15.1071 15.3633 15.2907 16.2023 15.4764C15.6036 23.1033 15.1662 27.8099 14.9687 28.7463C14.923 28.963 15.0414 29.1807 15.2464 29.257C16.3785 29.6782 18.3602 29.969 20.295 29.9977C20.3921 29.9992 20.4948 30 20.6026 30C21.937 30 24.0243 29.8702 25.0724 29.1304C25.2285 29.0202 25.2967 28.8204 25.2414 28.6357C24.7369 26.9533 23.4091 21.4191 23.1814 15.6796C23.6045 15.6262 24.0303 15.5633 24.4582 15.4882C24.6159 15.4605 24.7462 15.3479 24.7982 15.1944C24.8501 15.0409 24.8156 14.8708 24.708 14.7506C24.1463 14.1237 23.477 13.5872 23.1549 13.342C23.1708 12.4098 23.2217 11.5131 23.307 10.658C31.1844 10.3223 35.5246 8.78867 35.7083 8.72254C35.8282 8.67932 35.9238 8.58531 35.97 8.46492C36.0163 8.34452 36.0087 8.20981 35.9493 8.09556ZM6.90321 5.04014C7.95095 3.84275 9.31416 2.88705 10.955 2.19973C13.0302 1.33039 15.5572 0.889647 18.4658 0.889647C25.0361 0.889647 29.2286 2.96252 31.5888 4.70141C33.1402 5.84446 34.2019 7.06691 34.7752 7.87804C32.7099 7.9295 30.4394 7.98502 28.0983 8.04167C27.9741 6.67361 27.1661 5.05623 27.1278 4.98032C27.0543 4.83464 26.8784 4.77703 26.7346 4.85139C26.5909 4.92597 26.5341 5.10464 26.6075 5.2504C26.6163 5.26775 27.3884 6.81447 27.513 8.05575C27.3086 8.06072 27.1038 8.06561 26.8986 8.07058C26.886 7.21889 26.5743 6.32116 26.5585 6.27601C26.5041 6.12173 26.337 6.04137 26.185 6.09645C26.033 6.15154 25.9538 6.32116 26.008 6.47544C26.0115 6.48545 26.3068 7.33484 26.3153 8.08466C19.7454 8.24273 12.8957 8.40316 8.64633 8.50213C8.702 8.14405 8.8311 7.63643 9.13137 7.21741C9.22627 7.08492 9.19742 6.89951 9.06693 6.8032C8.93652 6.7069 8.75365 6.73618 8.65875 6.86859C8.25999 7.42492 8.11008 8.08845 8.05375 8.51592C6.64823 8.54862 5.58201 8.5733 4.98066 8.58724C5.1701 7.85832 5.66858 6.45112 6.90321 5.04014ZM22.2815 13.1682C21.8673 13.2113 21.1327 13.2706 20.2268 13.2706C19.1823 13.2706 18.1901 13.1934 17.271 13.041C17.4076 11.2626 17.5132 9.84313 17.562 9.18308C19.1971 9.14446 20.902 9.10405 22.6248 9.06298C22.427 10.3313 22.3126 11.7087 22.2815 13.1682ZM18.9884 14.1236L18.8889 14.9462C18.5006 14.9215 18.1412 14.8867 17.8105 14.8457L18.1412 14.0545C18.4187 14.0836 18.7013 14.1065 18.9884 14.1236ZM19.5741 14.1492C19.7897 14.1558 20.0067 14.1602 20.2267 14.1602C20.545 14.1602 20.8416 14.1532 21.1129 14.1422L21.2969 14.9563C20.9145 14.976 20.5359 14.9865 20.1626 14.9865C19.9254 14.9865 19.6959 14.9825 19.4743 14.9751L19.5741 14.1492ZM10.9704 9.33781C12.6687 9.29814 14.6092 9.25262 16.6812 9.20377C16.6704 9.35026 16.6573 9.52686 16.6421 9.73103C14.6477 9.6408 12.7007 9.49505 10.9704 9.33781ZM16.905 13.88C17.1121 13.9175 17.3235 13.9502 17.5374 13.9801L17.2111 14.7609C16.7305 14.6833 16.3305 14.5961 16.0176 14.5167L16.905 13.88ZM24.3047 28.5562C22.5928 29.3959 18.0361 29.1772 15.8939 28.5367C16.1734 26.6549 16.6719 20.6944 17.0689 15.6411C17.8875 15.7728 18.9239 15.8762 20.1626 15.8762C20.8632 15.8762 21.5801 15.8423 22.3078 15.7757C22.5325 21.2485 23.7374 26.5324 24.3047 28.5562ZM21.8879 14.9181L21.7054 14.1103C22.1084 14.0829 22.4151 14.05 22.595 14.0283C22.7725 14.1626 23.1039 14.4224 23.4581 14.7464C22.9294 14.8214 22.4055 14.8782 21.8879 14.9181ZM23.5173 9.04163C26.2309 8.97683 28.9665 8.91085 31.5233 8.84828C29.5259 9.22875 26.7941 9.61078 23.4099 9.76276C23.4425 9.51803 23.4788 9.27827 23.5173 9.04163Z" fill="white"/>
<path d="M34.8701 7.9257L34.7765 7.92803C32.7111 7.97948 30.4406 8.03501 28.0995 8.09165L28.0527 8.09278L28.0485 8.04619C27.9252 6.68884 27.1218 5.07937 27.0832 5.00283M34.8701 7.9257L27.0832 5.00283M34.8701 7.9257L34.816 7.84919M34.8701 7.9257L34.816 7.84919M27.0832 5.00283C27.0221 4.88168 26.8764 4.83438 26.7576 4.8958M27.0832 5.00283L26.7576 4.8958M26.7576 4.8958C26.6386 4.95759 26.5909 5.1062 26.6521 5.22785C26.6521 5.22787 26.6521 5.22788 26.6521 5.2279L26.6075 5.2504L26.7576 4.8958ZM26.008 6.47544C26.0115 6.48545 26.3068 7.33484 26.3153 8.08467L26.008 6.47544ZM26.008 6.47544L26.0551 6.45887C26.0098 6.32995 26.0763 6.18902 26.202 6.14346L26.1865 6.10073M26.008 6.47544L26.055 6.4586C26.0588 6.46908 26.3567 7.32527 26.3653 8.0841L26.3659 8.13346L26.3165 8.13465C19.7466 8.29271 12.8968 8.45315 8.64749 8.55212L8.58774 8.55351L8.59692 8.49445C8.65311 8.13303 8.78386 7.61651 9.09072 7.18829C9.16983 7.07785 9.14555 6.92337 9.03724 6.84343L9.03723 6.84342C8.92944 6.76382 8.77818 6.7878 8.69939 6.89772C8.30756 7.44439 8.15918 8.0985 8.10332 8.52245L8.09772 8.56491L8.05491 8.56591L4.98182 8.63723L4.91561 8.63876L4.93227 8.57466C5.12308 7.84048 5.62449 6.42559 6.86558 5.00722C7.91891 3.80345 9.28865 2.84353 10.9357 2.15361M34.816 7.84919C34.24 7.03411 33.1746 5.80768 31.6185 4.66116C29.2503 2.91637 25.0474 0.839647 18.4658 0.839647C15.5524 0.839647 13.0185 1.28108 10.9357 2.15361M34.816 7.84919L10.9357 2.15361M26.1865 6.10073L10.9357 2.15361M26.1865 6.10073L26.202 6.14346M26.1865 6.10073L26.202 6.14346M26.202 6.14346C26.3273 6.09804 26.466 6.16402 26.5113 6.29263L26.202 6.14346ZM26.7442 1.29754L26.76 1.2501L26.7442 1.29754C28.7407 1.96234 30.549 2.89026 32.1194 4.05513C34.8107 6.05156 35.8637 8.03939 35.9049 8.11865C35.9578 8.22015 35.9645 8.33992 35.9233 8.44699C35.8822 8.55399 35.7974 8.63726 35.6913 8.6755C35.5117 8.74016 31.1766 10.2726 23.3048 10.6081L23.2615 10.6099L23.2572 10.6531C23.1718 11.5096 23.1208 12.4077 23.1049 13.3412L23.1044 13.3665L23.1246 13.3818C23.4458 13.6263 24.1122 14.1605 24.6707 14.784C24.7662 14.8907 24.797 15.0418 24.7508 15.1784C24.7046 15.3148 24.589 15.4145 24.4496 15.4389C24.0225 15.5139 23.5976 15.5767 23.1751 15.63L23.1296 15.6357L23.1314 15.6816C23.3594 21.4262 24.6881 26.9647 25.1935 28.6501C25.2427 28.8144 25.1819 28.9919 25.0435 29.0895L25.0724 29.1304L25.0435 29.0895C24.5293 29.4525 23.7551 29.6685 22.9373 29.7932C22.1211 29.9176 21.2685 29.95 20.6026 29.95C20.495 29.95 20.3926 29.9492 20.2958 29.9477L20.2958 29.9477C18.3636 29.9191 16.3884 29.6286 15.2639 29.2101C15.0825 29.1426 14.9769 28.9495 15.0176 28.7566C15.1171 28.2849 15.2761 26.8705 15.4848 24.6249C15.6937 22.3775 15.9528 19.2939 16.2521 15.4803L16.2555 15.4369L16.2131 15.4276C15.3771 15.2425 14.922 15.0598 14.8868 15.0453L14.8867 15.0453C14.7552 14.9913 14.6627 14.8686 14.6462 14.7248L14.6462 14.7248C14.6297 14.5811 14.692 14.4398 14.8081 14.3566L16.4111 13.2064L16.43 13.1929L16.4318 13.1696C16.5064 12.2002 16.5722 11.3306 16.6254 10.6224L16.6293 10.571L16.5779 10.5687C10.2726 10.2817 4.44479 9.44448 4.38357 9.43564C4.17505 9.40537 4.02741 9.21119 4.05285 8.99734L4.0032 8.99144L4.05285 8.99734C4.06332 8.90931 4.34456 6.70022 6.28521 4.48235C7.41654 3.1895 8.88122 2.16019 10.6398 1.42351C12.814 0.512717 15.4466 0.05 18.4658 0.05C21.474 0.05 24.2591 0.469945 26.7442 1.29754ZM9.13137 7.21741C9.22627 7.08492 9.19742 6.89951 9.06693 6.8032C8.93652 6.7069 8.75365 6.73618 8.65875 6.86859C8.25999 7.42492 8.11008 8.08845 8.05375 8.51592L9.13137 7.21741ZM22.2867 13.2179L22.3306 13.2134L22.3315 13.1692C22.3626 11.7117 22.4768 10.3365 22.6742 9.07068L22.6834 9.01157L22.6236 9.01299C20.9008 9.05407 19.1959 9.09447 17.5608 9.1331L17.5154 9.13417L17.5121 9.1794C17.4634 9.83941 17.3577 11.2589 17.2212 13.0371L17.2177 13.0828L17.2629 13.0903C18.1849 13.2432 19.1799 13.3206 20.2268 13.3206C21.1348 13.3206 21.8712 13.2611 22.2867 13.2179ZM19.038 14.1296L19.0444 14.0768L18.9913 14.0737C18.705 14.0567 18.4232 14.0338 18.1464 14.0048L18.1094 14.0009L18.095 14.0352L17.7644 14.8264L17.739 14.8872L17.8044 14.8953C18.136 14.9364 18.4964 14.9713 18.8857 14.9961L18.9328 14.9991L18.9385 14.9522L19.038 14.1296ZM19.5756 14.0993L19.5299 14.0979L19.5244 14.1432L19.4246 14.9691L19.4181 15.0232L19.4726 15.025C19.6948 15.0325 19.9248 15.0365 20.1626 15.0365C20.5368 15.0365 20.9163 15.026 21.2995 15.0062L21.3587 15.0032L21.3457 14.9453L21.1617 14.1312L21.1525 14.0906L21.1109 14.0922C20.8402 14.1032 20.5443 14.1102 20.2267 14.1102C20.0074 14.1102 19.7909 14.1058 19.5756 14.0993ZM10.9692 9.28782L10.9659 9.3876C12.6968 9.5449 14.6445 9.69071 16.6398 9.78098L16.6883 9.78317L16.6919 9.73474L16.7311 9.20745L16.7352 9.15248L16.6801 9.15378C14.608 9.20264 12.6676 9.24816 10.9692 9.28782ZM16.9139 13.8308L16.8931 13.8271L16.8759 13.8394L15.9885 14.4761L15.9012 14.5388L16.0053 14.5652C16.3196 14.645 16.721 14.7324 17.2032 14.8102L17.2421 14.8165L17.2573 14.7801L17.5835 13.9994L17.6085 13.9396L17.5443 13.9306C17.3309 13.9007 17.1201 13.8681 16.9139 13.8308ZM24.3268 28.6011L24.3641 28.5827L24.3529 28.5427C23.7862 26.5213 22.5822 21.2414 22.3578 15.7737L22.3556 15.7212L22.3033 15.7259C21.5769 15.7924 20.8616 15.8262 20.1626 15.8262C18.9266 15.8262 17.893 15.7231 17.0768 15.5917L17.0233 15.5831L17.019 15.6372C16.622 20.6916 16.1236 26.6497 15.8444 28.5293L15.8381 28.5722L15.8796 28.5846C16.9565 28.9066 18.6362 29.1217 20.2598 29.1515C21.0719 29.1664 21.8714 29.135 22.5758 29.0471C23.2792 28.9593 23.8914 28.8146 24.3268 28.6011ZM21.8391 14.9291L21.8486 14.9713L21.8917 14.968C22.4104 14.9279 22.9353 14.871 23.4651 14.7959L23.57 14.781L23.4918 14.7095C23.1362 14.3842 22.8034 14.1233 22.6252 13.9884L22.6091 13.9763L22.589 13.9787C22.4099 14.0003 22.1041 14.0331 21.702 14.0604L21.6437 14.0644L21.6566 14.1213L21.8391 14.9291ZM23.5161 8.99164L23.4746 8.99263L23.468 9.0336C23.4294 9.27061 23.393 9.51086 23.3603 9.75616L23.3525 9.81539L23.4122 9.81271C26.7989 9.66061 29.5331 9.27828 31.5326 8.8974L31.5221 8.79829C28.9653 8.86086 26.2297 8.92685 23.5161 8.99164Z" stroke="black" stroke-width="0.1"/>
</g>
<defs>
<filter id="filter0_d_118_317" x="0" y="0" width="40" height="38" filterUnits="userSpaceOnUse" color-interpolation-filters="sRGB">
<feFlood flood-opacity="0" result="BackgroundImageFix"/>
<feColorMatrix in="SourceAlpha" type="matrix" values="0 0 0 0 0 0 0 0 0 0 0 0 0 0 0 0 0 0 127 0" result="hardAlpha"/>
<feOffset dy="4"/>
<feGaussianBlur stdDeviation="2"/>
<feComposite in2="hardAlpha" operator="out"/>
<feColorMatrix type="matrix" values="0 0 0 0 0 0 0 0 0 0 0 0 0 0 0 0 0 0 0.25 0"/>
<feBlend mode="normal" in2="BackgroundImageFix" result="effect1_dropShadow_118_317"/>
<feBlend mode="normal" in="SourceGraphic" in2="effect1_dropShadow_118_317" result="shape"/>
</filter>
</defs>
</svg>
