<svg width="108" height="107" viewBox="0 0 108 107" fill="none" xmlns="http://www.w3.org/2000/svg">
<g filter="url(#filter0_d_134_793)">
<ellipse cx="53.9995" cy="49.5" rx="49.9995" ry="49.5" fill="#D9D9D9"/>
<path d="M40.7188 61.4656L40.8411 61.56C44.2041 64.1571 48.5119 65.5795 53.0967 65.5795C58.0307 65.5795 62.7122 63.8914 66.1373 60.9191L66.2683 60.8054L66.3994 60.9191C69.8251 63.8914 74.5065 65.5795 79.4406 65.5795C84.8205 65.5795 89.8993 63.5729 93.377 60.0839C93.7094 59.7502 93.669 59.2574 93.2627 58.9651C92.8386 58.662 92.1989 58.7094 91.8476 59.0621L91.7081 58.9231L91.8475 59.0621C88.7395 62.1805 84.2164 63.9622 79.4406 63.9622C74.6648 63.9622 70.1417 62.1805 67.0331 59.0621L67.033 59.062C66.8595 58.8878 66.5892 58.79 66.2997 58.7865C66.0103 58.7829 65.7304 58.874 65.5432 59.0404L65.3633 59.2003L65.2391 58.9941C63.624 56.315 62.0214 53.1646 61.298 49.5703M40.7188 61.4656L61.4941 49.5309M40.7188 61.4656L40.5966 61.56C37.2331 64.1571 32.9253 65.5795 28.3404 65.5795C23.4877 65.5795 18.9213 63.9793 15.4803 61.0798L15.4802 61.0797C15.1086 60.7669 15.1065 60.2729 15.4744 59.9585L15.475 59.958C15.8611 59.6255 16.5038 59.6233 16.8949 59.9534L16.895 59.9535C19.9661 62.5414 24.0321 63.9622 28.3404 63.9622C32.759 63.9622 36.9004 62.4736 39.9986 59.7629L39.9989 59.7627C40.1825 59.6015 40.4417 59.5061 40.7188 59.5061C40.9959 59.5061 41.2553 59.6015 41.4395 59.7628L41.4396 59.7629C41.7401 60.0258 42.0577 60.2661 42.3698 60.5007L42.5425 60.6305L42.6586 60.4483C44.7015 57.2425 46.6639 53.735 47.5025 49.5703C47.6322 48.9264 47.7931 47.8212 47.6475 46.7723C47.502 45.7236 47.04 44.6804 45.8794 44.2611L45.8793 44.261C44.8779 43.8999 43.7455 43.877 42.5911 43.8537L42.564 43.8532L42.564 43.8532L42.5624 43.8532C41.5192 43.8324 40.4634 43.8115 39.3943 43.5705L39.3531 43.7533L39.3943 43.5705C36.4485 42.9067 33.6702 41.4017 31.5728 39.3363C29.1255 36.9258 27.2988 33.6041 26.4347 29.9842L26.4346 29.984C26.2679 29.288 26.1547 28.6665 26.0874 28.0839L26.0873 28.0838C26.0521 27.7802 26.2336 27.4657 26.5914 27.303L26.5919 27.3027C26.9515 27.138 27.3954 27.1752 27.7064 27.3907L27.7078 27.3916L27.7079 27.3917C27.7689 27.4332 32.755 30.8265 38.3749 30.8265C39.4972 30.8265 40.8924 30.6266 42.3486 30.4179L42.357 30.4167L42.357 30.4167C44.3729 30.1276 46.586 29.8114 48.6855 29.918C50.7828 30.0244 52.7426 30.552 54.2661 31.9303L54.4002 32.0516L54.5344 31.9303C56.0585 30.552 58.0185 30.0247 60.1156 29.9183C62.215 29.8119 64.4277 30.1281 66.4429 30.4167L66.4493 30.4176C67.9063 30.6264 69.3028 30.8265 70.4256 30.8265C76.0491 30.8265 81.0381 27.4288 81.0927 27.3916L81.0928 27.3915L81.0942 27.3905C81.4056 27.1744 81.8493 27.138 82.2085 27.3027L82.2091 27.303C82.5668 27.4657 82.7484 27.7802 82.7132 28.0838M40.7188 61.4656L54.4003 31.782C57.5427 28.9402 62.448 29.6425 66.4713 30.2187C67.9356 30.4286 69.3185 30.6265 70.4256 30.6265C75.985 30.6265 80.931 27.2598 80.9802 27.2262C81.3519 26.9682 81.871 26.9278 82.2919 27.1209C82.7141 27.313 82.9588 27.702 82.9119 28.1068M61.298 49.5703L61.4941 49.5309M61.298 49.5703C61.298 49.5704 61.298 49.5704 61.2981 49.5704L61.4941 49.5309M61.298 49.5703C61.168 48.9264 61.0068 47.8212 61.1523 46.7723C61.2978 45.7236 61.76 44.6803 62.9211 44.2611L62.9212 44.261C63.9227 43.8999 65.055 43.877 66.2094 43.8537L66.2365 43.8532L66.2366 43.8532L66.2379 43.8532C67.2812 43.8324 68.3365 43.8115 69.4063 43.5705C72.3526 42.9067 75.1309 41.4017 77.2271 39.3363L77.2271 39.3363C79.675 36.9258 81.5017 33.6041 82.3652 29.9842L82.3653 29.9841C82.5326 29.285 82.6458 28.6636 82.7132 28.0838M61.4941 49.5309C61.2372 48.2582 60.8695 45.2145 62.989 44.4492C63.9594 44.0992 65.0638 44.0769 66.233 44.0533L66.2405 44.0532L66.2506 44.053C67.2884 44.0323 68.3606 44.011 69.4502 43.7656C72.432 43.0938 75.244 41.571 77.3675 39.4788C79.8442 37.0399 81.6883 33.684 82.5598 30.0306C82.7286 29.3253 82.8434 28.6959 82.9119 28.1068M82.7132 28.0838L82.9119 28.1068M82.7132 28.0838C82.7132 28.0838 82.7132 28.0838 82.7132 28.0838L82.9119 28.1068M65.4104 58.8909L65.2775 58.7414C65.2868 58.7331 65.2963 58.7249 65.3059 58.7169C65.3407 58.7751 65.3755 58.8331 65.4104 58.8909ZM65.4104 58.8909L65.5816 58.7876C65.5786 58.7826 65.5756 58.7775 65.5725 58.7725C65.5145 58.8072 65.4601 58.8466 65.4104 58.8909ZM46.6725 42.7815L46.6725 42.7815C45.317 42.292 43.9595 42.2635 42.6112 42.2368L42.6002 42.2366C41.6652 42.2181 40.7559 42.2001 39.9152 42.0104C37.3563 41.4339 34.933 40.1178 33.091 38.3034C30.9674 36.2124 29.3548 33.355 28.5092 30.2116L28.3935 29.7815L28.7918 29.9808C30.9951 31.0831 34.5027 32.4438 38.3749 32.4438C39.6632 32.4438 41.1255 32.2348 42.6934 32.0107L42.6951 32.0105L42.6952 32.0105L42.6983 32.01C44.7798 31.7111 46.9259 31.4028 48.8245 31.5478C50.7299 31.6933 52.4195 32.2978 53.5523 33.8528M46.6725 42.7815L53.5523 33.8528M46.6725 42.7815C47.9348 43.237 48.8061 44.0799 49.2767 45.2581C49.7501 46.443 49.8239 47.983 49.452 49.8322C48.5445 54.3363 46.4296 58.0471 44.2342 61.4675L44.1186 61.6474L44.3059 61.7507C46.9067 63.1842 49.9261 63.9622 53.0967 63.9622C57.0507 63.9622 60.8163 62.7257 63.763 60.5378L63.9104 60.4284L63.814 60.2722C62.0091 57.348 60.1636 53.8791 59.3485 49.8322C58.9763 47.983 59.05 46.443 59.5233 45.2581C59.9939 44.0799 60.8653 43.237 62.1279 42.7815L62.128 42.7815C63.4835 42.292 64.8411 42.2635 66.1888 42.2368L66.1995 42.2366C67.1351 42.2181 68.044 42.2001 68.8853 42.0104C71.4448 41.4339 73.8675 40.1177 75.709 38.3033C77.8332 36.2123 79.4457 33.3549 80.2907 30.2126L80.4063 29.7827L80.0082 29.9818C77.8047 31.0831 74.2978 32.4438 70.4256 32.4438C69.1379 32.4438 67.6764 32.235 66.1087 32.011L66.1048 32.0105L66.1047 32.0105L66.0991 32.0097C64.0193 31.7113 61.8746 31.4036 59.9769 31.5485C58.0717 31.694 56.3821 32.2982 55.249 33.8525M46.6725 42.7815L55.249 33.8525M53.5523 33.8528C53.7193 34.0817 54.0447 34.2154 54.4001 34.2154C54.7556 34.2154 55.0814 34.0817 55.249 33.8525M53.5523 33.8528L55.249 33.8525" fill="black" stroke="black" stroke-width="0.4"/>
<path d="M91.8475 65.9431L91.8476 65.943C92.1991 65.5902 92.8388 65.5422 93.2626 65.846C93.669 66.1384 93.7094 66.6311 93.3769 66.9648C89.8992 70.4539 84.8204 72.4605 79.4406 72.4605C74.5065 72.4605 69.8251 70.7723 66.3994 67.8001L66.2683 67.6863L66.1373 67.8001C62.7122 70.7723 58.0307 72.4605 53.0967 72.4605C48.5119 72.4605 44.2041 71.0381 40.8411 68.441L40.7188 68.3466L40.5966 68.441C37.2331 71.0381 32.9253 72.4605 28.3404 72.4605C23.4877 72.4605 18.9213 70.8603 15.4803 67.9607L15.4803 67.9607C15.1086 67.6478 15.1065 67.1538 15.4744 66.8394L15.4744 66.8394L15.475 66.8389C15.8611 66.5064 16.5038 66.5043 16.8949 66.8343L16.895 66.8344C19.9661 69.4223 24.0321 70.8432 28.3404 70.8432C32.759 70.8432 36.9004 69.3546 39.9986 66.6438L39.9989 66.6436C40.1825 66.4824 40.4418 66.387 40.7188 66.387C40.9959 66.387 41.2552 66.4824 41.4395 66.6438L41.4396 66.6438C44.5374 69.3546 48.6781 70.8432 53.0967 70.8432C57.8724 70.8432 62.3953 69.0614 65.5034 65.9433C65.6828 65.7639 65.9674 65.663 66.2685 65.6628C66.5696 65.6625 66.8538 65.763 67.033 65.943L67.0331 65.9431C70.1417 69.0613 74.6648 70.8432 79.4406 70.8432C84.2164 70.8432 88.7395 69.0613 91.8475 65.9431Z" fill="black" stroke="black" stroke-width="0.4"/>
</g>
<defs>
<filter id="filter0_d_134_793" x="0" y="0" width="108" height="107" filterUnits="userSpaceOnUse" color-interpolation-filters="sRGB">
<feFlood flood-opacity="0" result="BackgroundImageFix"/>
<feColorMatrix in="SourceAlpha" type="matrix" values="0 0 0 0 0 0 0 0 0 0 0 0 0 0 0 0 0 0 127 0" result="hardAlpha"/>
<feOffset dy="4"/>
<feGaussianBlur stdDeviation="2"/>
<feComposite in2="hardAlpha" operator="out"/>
<feColorMatrix type="matrix" values="0 0 0 0 0 0 0 0 0 0 0 0 0 0 0 0 0 0 0.25 0"/>
<feBlend mode="normal" in2="BackgroundImageFix" result="effect1_dropShadow_134_793"/>
<feBlend mode="normal" in="SourceGraphic" in2="effect1_dropShadow_134_793" result="shape"/>
</filter>
</defs>
</svg>
