<svg width="40" height="25" viewBox="0 0 55 41" fill="none" xmlns="http://www.w3.org/2000/svg">
<g id="Group 56" filter="url(#filter0_d_292_570)">
<g id="Vector" filter="url(#filter1_d_292_570)">
<path d="M11.9572 27.2351C14.7163 27.2351 17.3119 26.2271 19.3405 24.3829C21.3688 26.2271 23.9644 27.2351 26.7235 27.2351C29.693 27.2351 32.5137 26.039 34.58 23.9277C36.6467 26.039 39.4675 27.2351 42.4369 27.2351C45.6744 27.2351 48.7352 25.8135 50.834 23.3342C51.0869 23.0353 51.0499 22.5884 50.751 22.3352C50.4529 22.0841 50.0056 22.1194 49.7528 22.4182C47.9234 24.5794 45.2569 25.8183 42.4369 25.8183C39.6169 25.8183 36.9504 24.5794 35.1207 22.4182C34.8595 22.1094 34.3447 22.1078 34.0683 22.3971C33.1078 20.5212 32.1598 18.3247 31.7323 15.8235C31.5791 14.9297 31.3598 12.7921 32.624 12.2546C33.2041 12.0083 33.8644 11.9931 34.5635 11.9765C35.1843 11.962 35.8259 11.9475 36.4779 11.7746C38.2565 11.3028 39.9337 10.2333 41.2003 8.76393C42.6776 7.05108 43.7776 4.69419 44.2974 2.12841C44.3981 1.63308 44.4666 1.19106 44.5074 0.777337C44.5354 0.493051 44.3894 0.219796 44.1376 0.084914C43.8865 -0.0506772 43.5769 -0.022345 43.3552 0.15888C43.3259 0.182426 40.3757 2.54692 37.0597 2.54692C36.3994 2.54692 35.5745 2.40789 34.7011 2.26054C32.3013 1.85584 29.3755 1.3626 27.5011 3.3584C25.6274 1.3626 22.7012 1.85515 20.3007 2.26054C19.4273 2.40789 18.6028 2.54692 17.9424 2.54692C14.6264 2.54692 11.6763 0.182426 11.6469 0.15888C11.4256 -0.0216371 11.116 -0.0506772 10.8645 0.084914C10.6127 0.219796 10.4667 0.493051 10.4948 0.777337C10.5356 1.19311 10.6041 1.63517 10.7044 2.12841C11.2246 4.69419 12.3245 7.05108 13.8015 8.76393C15.0688 10.2333 16.746 11.3028 18.5242 11.7746C19.1759 11.9475 19.8179 11.962 20.4387 11.9765C21.1378 11.9931 21.7981 12.0083 22.3781 12.2546C23.6417 12.7921 23.4227 14.9297 23.2698 15.8235C22.7741 18.7222 21.6135 21.1677 20.3969 23.4154C20.2105 23.2504 20.0244 23.0846 19.849 22.9039C19.7155 22.7662 19.5321 22.6887 19.3405 22.6887C19.1489 22.6887 18.9656 22.7662 18.8324 22.9039C17.0078 24.7834 14.5662 25.8183 11.9572 25.8183C9.41318 25.8183 7.01581 24.8304 5.20718 23.036C4.92942 22.76 4.48045 22.7613 4.20548 23.0401C3.92979 23.3175 3.93185 23.7665 4.20963 24.0418C6.28531 26.1012 9.03687 27.2351 11.9572 27.2351ZM24.6665 16.0629C25.1158 13.4328 24.5002 11.6175 22.9322 10.9513C22.1025 10.5985 21.2734 10.5791 20.4716 10.5605C19.9088 10.5473 19.3768 10.5349 18.8874 10.4048C17.3825 10.0057 15.957 9.09392 14.8744 7.83832C13.6244 6.38907 12.6725 4.40503 12.173 2.21905C13.4953 2.99795 15.6067 3.9637 17.9424 3.9637C18.7214 3.9637 19.6031 3.81498 20.5363 3.65793C23.0274 3.23663 25.6042 2.80288 26.8989 4.89549C27.1569 5.31199 27.8449 5.31199 28.1036 4.89549C29.3986 2.80356 31.9755 3.23729 34.4656 3.65793C35.3991 3.81498 36.2808 3.9637 37.0597 3.9637C39.3955 3.9637 41.5064 2.99795 42.8288 2.21974C42.3297 4.40503 41.3778 6.38907 40.1274 7.83832C39.0451 9.09392 37.6201 10.0057 36.1148 10.4048C35.625 10.5349 35.0933 10.5473 34.5303 10.5605C33.7288 10.5791 32.8997 10.5985 32.0699 10.9513C30.5016 11.6175 29.886 13.4328 30.3356 16.0629C30.826 18.9294 31.9355 21.3825 33.0146 23.441C31.2784 24.9588 29.0575 25.8183 26.7235 25.8183C24.8518 25.8183 23.0708 25.2775 21.5377 24.2826C22.849 21.8771 24.1207 19.2528 24.6665 16.0629Z" fill="white"/>
<path d="M19.3405 24.2477L19.4078 24.3089C21.4177 26.1364 23.9893 27.1351 26.7235 27.1351C29.6659 27.1351 32.4609 25.9499 34.5086 23.8577L34.58 23.7847L34.6515 23.8577C36.6995 25.9499 39.4945 27.1351 42.4369 27.1351C45.6449 27.1351 48.6778 25.7265 50.7577 23.2695C50.9749 23.0128 50.9431 22.629 50.6864 22.4115C50.43 22.1958 50.046 22.2265 49.8291 22.4828L49.7567 22.4215L49.8291 22.4828C47.9808 24.6663 45.2865 25.9183 42.4369 25.9183C39.5873 25.9183 36.893 24.6663 35.0444 22.4828L35.0443 22.4828C34.8236 22.2217 34.3782 22.2176 34.1406 22.4662L34.0434 22.568L33.9793 22.4427C33.0168 20.5627 32.0637 18.3559 31.6338 15.8404M19.3405 24.2477L50.834 23.3342C51.0869 23.0353 51.0499 22.5884 50.751 22.3352C50.4529 22.0841 50.0056 22.1194 49.7528 22.4182C47.9234 24.5794 45.2569 25.8183 42.4369 25.8183C39.6169 25.8183 36.9504 24.5794 35.1207 22.4182C34.8822 22.1362 34.4323 22.1104 34.1454 22.3283C34.1494 22.3361 34.1533 22.3438 34.1573 22.3516L34.0683 22.3971L33.996 22.3281C34.004 22.3197 34.0122 22.3115 34.0205 22.3036C33.0765 20.4483 32.1528 18.2832 31.7323 15.8235C31.5791 14.9297 31.3598 12.7921 32.624 12.2546C33.2029 12.0089 33.8616 11.9932 34.559 11.9766L34.5635 11.9765L34.5695 11.9764C35.1884 11.9619 35.828 11.947 36.4779 11.7746C38.2565 11.3028 39.9337 10.2333 41.2003 8.76393C42.6776 7.05107 43.7776 4.69419 44.2974 2.12841C44.3981 1.63308 44.4666 1.19106 44.5074 0.777337M19.3405 24.2477L19.2733 24.3089C17.263 26.1364 14.6914 27.1351 11.9572 27.1351C9.06328 27.1351 6.33703 26.0117 4.28006 23.9708L4.28002 23.9708C4.04145 23.7343 4.03976 23.3488 4.27641 23.1106L4.27668 23.1104C4.5126 22.8711 4.89805 22.8698 5.13669 23.1069L5.13675 23.107C6.96409 24.92 9.38677 25.9183 11.9572 25.9183C14.5934 25.9183 17.0608 24.8724 18.9042 22.9735L18.9043 22.9734C19.0185 22.8553 19.1759 22.7887 19.3405 22.7887C19.5051 22.7887 19.6625 22.8553 19.7772 22.9735L19.7772 22.9735C19.9557 23.1573 20.1444 23.3255 20.3307 23.4903L20.425 23.5738L20.4849 23.463C21.703 21.2124 22.8699 18.7554 23.3684 15.8404C23.4454 15.3902 23.5402 14.6212 23.4544 13.8938C23.3693 13.1712 23.1008 12.4534 22.4173 12.1626L22.4172 12.1626C21.8207 11.9093 21.1456 11.8933 20.4564 11.8769L20.4411 11.8766L20.4411 11.8766L20.4399 11.8765C19.8178 11.862 19.1879 11.8472 18.5499 11.6779L18.5499 11.6779C16.7922 11.2116 15.1321 10.1536 13.8772 8.69863C12.4131 7.00068 11.3197 4.66019 10.8024 2.10854L10.8024 2.10848C10.7026 1.61796 10.6347 1.17934 10.5943 0.767566L10.5943 0.767522C10.5702 0.523486 10.6955 0.288874 10.9117 0.173065L10.912 0.172932C11.1279 0.056493 11.3938 0.081508 11.5837 0.23638L11.5837 0.236383L11.5844 0.23692C11.6021 0.251067 12.3527 0.852452 13.5165 1.45067C14.6792 2.04833 16.2621 2.64692 17.9424 2.64692C18.6117 2.64692 19.4438 2.50654 20.3125 2.35997L20.3174 2.35914L20.3007 2.26054L20.3174 2.35914C21.5198 2.15609 22.84 1.93398 24.0925 2.00884C25.3422 2.08354 26.5143 2.45344 27.4282 3.42684L27.5011 3.50449L27.574 3.42686C28.4882 2.45344 29.6604 2.08371 30.91 2.0091C32.1624 1.93432 33.4824 2.15643 34.6845 2.35914L34.6882 2.35977C35.5573 2.50641 36.3901 2.64692 37.0597 2.64692C38.7401 2.64692 40.323 2.04833 41.4857 1.45067C42.6495 0.852455 43.4001 0.251072 43.4178 0.236898L43.4185 0.236308C43.6087 0.080897 43.8745 0.0564459 44.0901 0.172904L44.0904 0.173064C44.3066 0.288873 44.4319 0.523488 44.4079 0.767532M19.3405 24.2477L44.1376 0.084914M31.6338 15.8404L31.7318 15.8236L31.6338 15.8404C31.6338 15.8404 31.6338 15.8404 31.6338 15.8404ZM31.6338 15.8404C31.5566 15.3902 31.4616 14.6212 31.5473 13.8938C31.6325 13.1712 31.901 12.4534 32.5849 12.1626L32.5849 12.1626C33.1814 11.9093 33.8565 11.8933 34.5457 11.8769L34.5611 11.8766L34.5611 11.8766L34.5622 11.8765C35.1843 11.862 35.8139 11.8473 36.4523 11.6779C38.2103 11.2116 39.8704 10.1536 41.1246 8.69864L41.1968 8.76085L41.1246 8.69862C42.589 7.00068 43.6824 4.66019 44.1994 2.10855L44.1994 2.10849C44.2995 1.61587 44.3675 1.17727 44.4079 0.767532M44.4079 0.767532L44.5074 0.777337M44.4079 0.767532C44.4079 0.767527 44.4079 0.767522 44.4079 0.767517L44.5074 0.777337M44.5074 0.777337C44.5354 0.493051 44.3894 0.219796 44.1376 0.084914M4.20548 23.0401C4.48045 22.7613 4.92942 22.76 5.20718 23.036C7.01581 24.8304 9.41318 25.8183 11.9572 25.8183C14.5662 25.8183 17.0078 24.7834 18.8324 22.9039C18.9656 22.7662 19.1489 22.6887 19.3405 22.6887C19.5321 22.6887 19.7155 22.7662 19.849 22.9039C20.0003 23.0598 20.1595 23.2046 20.3201 23.3473L4.20548 23.0401ZM4.20548 23.0401C3.92979 23.3175 3.93185 23.7665 4.20963 24.0418L4.20548 23.0401ZM44.1376 0.084914C43.8865 -0.0506772 43.5769 -0.022345 43.3552 0.15888L44.1376 0.084914ZM22.8931 11.0434L22.8931 11.0434C22.0835 10.6991 21.2732 10.6792 20.4693 10.6604L20.463 10.6603C19.9051 10.6473 19.3629 10.6346 18.8618 10.5015C17.3361 10.0968 15.8936 9.17344 14.7987 7.90364C13.5362 6.44001 12.578 4.44039 12.0755 2.24132L12.0239 2.01512L12.2238 2.13289C13.5394 2.90784 15.6324 3.8637 17.9424 3.8637C18.711 3.8637 19.5834 3.71689 20.5185 3.5595L20.5196 3.55933L20.5197 3.55931L20.5214 3.55902C21.763 3.34904 23.0429 3.13258 24.1752 3.23439C25.3141 3.3368 26.3154 3.76235 26.9839 4.84283C27.0911 5.0158 27.2915 5.10786 27.501 5.10786C27.7104 5.10786 27.9111 5.01584 28.0186 4.84286C28.0186 4.84281 28.0187 4.84277 28.0187 4.84273L22.8931 11.0434ZM22.8931 11.0434C24.3944 11.6812 25.0149 13.4296 24.5679 16.046C24.0249 19.2193 22.7598 21.8319 21.4499 24.2347L21.4056 24.316L21.4833 24.3665C23.0324 25.3718 24.8323 25.9183 26.7235 25.9183C29.0823 25.9183 31.3265 25.0496 33.0804 23.5163L33.1398 23.4644L33.1032 23.3946C32.0259 21.3397 30.922 18.8974 30.4342 16.046C29.9869 13.4296 30.6074 11.6812 32.109 11.0434L32.1091 11.0434C32.9187 10.6991 33.729 10.6792 34.5326 10.6604L34.5387 10.6603C35.097 10.6473 35.6389 10.6346 36.1404 10.5015C37.6665 10.0968 39.1086 9.17342 40.2031 7.90361C41.4659 6.43998 42.4242 4.44037 42.9263 2.24201L42.9779 2.01595M22.8931 11.0434L42.9779 2.01595M42.9779 2.01595L42.7781 2.13356M42.9779 2.01595L42.7781 2.13356M42.7781 2.13356C41.4624 2.90784 39.3697 3.8637 37.0597 3.8637C36.2915 3.8637 35.4196 3.71702 34.4846 3.55973L34.4822 3.55932L34.4821 3.55931L42.7781 2.13356Z" stroke="black" stroke-width="0.2"/>
</g>
<g id="Vector_2" filter="url(#filter2_d_292_570)">
<path d="M49.7528 27.2504C47.9234 29.4115 45.2569 30.6505 42.4369 30.6505C39.6169 30.6505 36.9504 29.4115 35.1207 27.2504C34.8516 26.9322 34.3085 26.9336 34.0394 27.2504C32.21 29.4115 29.5436 30.6505 26.7235 30.6505C24.1145 30.6505 21.6732 29.6156 19.849 27.736C19.7155 27.5984 19.5321 27.5209 19.3405 27.5209C19.1489 27.5209 18.9656 27.5984 18.8324 27.736C17.0078 29.6156 14.5662 30.6505 11.9572 30.6505C9.41318 30.6505 7.01581 29.6626 5.20718 27.8682C4.92942 27.5921 4.48045 27.5935 4.20548 27.8723C3.92979 28.1497 3.93185 28.5987 4.20963 28.874C6.28531 30.9334 9.03687 32.0673 11.9572 32.0673C14.7163 32.0673 17.3119 31.0593 19.3405 29.215C21.3688 31.0593 23.9644 32.0673 26.7235 32.0673C29.693 32.0673 32.5137 30.8712 34.58 28.7599C36.6467 30.8712 39.4675 32.0673 42.4369 32.0673C45.6744 32.0673 48.7352 30.6456 50.834 28.1663C51.0869 27.8675 51.0499 27.4206 50.751 27.1674C50.4529 26.9156 50.0056 26.9516 49.7528 27.2504Z" fill="white"/>
<path d="M50.751 27.1674L50.6864 27.2437C50.9431 27.4612 50.9749 27.845 50.7577 28.1017C48.6778 30.5587 45.6449 31.9673 42.4369 31.9673C39.4945 31.9673 36.6995 30.7821 34.6515 28.6899L34.58 28.6169L34.5086 28.6899C32.4609 30.7821 29.6659 31.9673 26.7235 31.9673C23.9893 31.9673 21.4177 30.9686 19.4078 29.141L19.3405 29.0799L19.2732 29.141C17.263 30.9686 14.6914 31.9673 11.9572 31.9673C9.06328 31.9673 6.33703 30.8438 4.28006 28.803L4.28003 28.803C4.04144 28.5665 4.03976 28.1809 4.27641 27.9428L4.27668 27.9425C4.5126 27.7033 4.89805 27.7019 5.13669 27.9391L5.13675 27.9391C6.96409 29.7522 9.38677 30.7505 11.9572 30.7505C14.5934 30.7505 17.0608 29.7046 18.9042 27.8057L18.9043 27.8055C19.0185 27.6874 19.1759 27.6209 19.3405 27.6209C19.5051 27.6209 19.6625 27.6874 19.7772 27.8056L19.7772 27.8057C21.6202 29.7046 24.0873 30.7505 26.7235 30.7505C29.5731 30.7505 32.2674 29.4984 34.1157 27.315C34.3452 27.0451 34.8154 27.0443 35.0443 27.315L35.0444 27.315C36.893 29.4984 39.5873 30.7505 42.4369 30.7505C45.2865 30.7505 47.9808 29.4984 49.8291 27.315L49.8291 27.315C50.0462 27.0585 50.4303 27.0274 50.6865 27.2438L50.751 27.1674ZM50.751 27.1674C50.4529 26.9156 50.0056 26.9516 49.7528 27.2504H34.0394C32.21 29.4115 29.5436 30.6505 26.7235 30.6505C24.1145 30.6505 21.6732 29.6156 19.849 27.736C19.7155 27.5984 19.5321 27.5209 19.3405 27.5209C19.1489 27.5209 18.9656 27.5984 18.8324 27.736C17.0078 29.6156 14.5662 30.6505 11.9572 30.6505C9.41318 30.6505 7.01581 29.6626 5.20718 27.8682C4.92942 27.5921 4.48045 27.5935 4.20548 27.8723C3.92979 28.1497 3.93185 28.5987 4.20963 28.874C6.28531 30.9334 9.03687 32.0673 11.9572 32.0673C14.7163 32.0673 17.3119 31.0593 19.3405 29.215C21.3688 31.0593 23.9644 32.0673 26.7235 32.0673C29.6594 32.0673 32.45 30.898 34.5098 28.831C34.5094 28.8306 34.509 28.8302 34.5086 28.8298L34.58 28.7599C34.58 28.7599 34.58 28.7599 34.58 28.7599L34.6515 28.8298C34.6511 28.8302 34.6507 28.8306 34.6503 28.831C36.7104 30.898 39.501 32.0673 42.4369 32.0673C45.6744 32.0673 48.7352 30.6456 50.834 28.1663C51.0869 27.8675 51.0499 27.4206 50.751 27.1674Z" stroke="black" stroke-width="0.2"/>
</g>
</g>
<defs>
<filter id="filter0_d_292_570" x="0" y="0" width="55.0018" height="40.0673" filterUnits="userSpaceOnUse" color-interpolation-filters="sRGB">
<feFlood flood-opacity="0" result="BackgroundImageFix"/>
<feColorMatrix in="SourceAlpha" type="matrix" values="0 0 0 0 0 0 0 0 0 0 0 0 0 0 0 0 0 0 127 0" result="hardAlpha"/>
<feOffset dy="4"/>
<feGaussianBlur stdDeviation="2"/>
<feComposite in2="hardAlpha" operator="out"/>
<feColorMatrix type="matrix" values="0 0 0 0 0 0 0 0 0 0 0 0 0 0 0 0 0 0 0.25 0"/>
<feBlend mode="normal" in2="BackgroundImageFix" result="effect1_dropShadow_292_570"/>
<feBlend mode="normal" in="SourceGraphic" in2="effect1_dropShadow_292_570" result="shape"/>
</filter>
<filter id="filter1_d_292_570" x="0" y="0" width="55.0018" height="35.2351" filterUnits="userSpaceOnUse" color-interpolation-filters="sRGB">
<feFlood flood-opacity="0" result="BackgroundImageFix"/>
<feColorMatrix in="SourceAlpha" type="matrix" values="0 0 0 0 0 0 0 0 0 0 0 0 0 0 0 0 0 0 127 0" result="hardAlpha"/>
<feOffset dy="4"/>
<feGaussianBlur stdDeviation="2"/>
<feComposite in2="hardAlpha" operator="out"/>
<feColorMatrix type="matrix" values="0 0 0 0 0 0 0 0 0 0 0 0 0 0 0 0 0 0 0.25 0"/>
<feBlend mode="normal" in2="BackgroundImageFix" result="effect1_dropShadow_292_570"/>
<feBlend mode="normal" in="SourceGraphic" in2="effect1_dropShadow_292_570" result="shape"/>
</filter>
<filter id="filter2_d_292_570" x="0" y="27" width="55.0018" height="13.0673" filterUnits="userSpaceOnUse" color-interpolation-filters="sRGB">
<feFlood flood-opacity="0" result="BackgroundImageFix"/>
<feColorMatrix in="SourceAlpha" type="matrix" values="0 0 0 0 0 0 0 0 0 0 0 0 0 0 0 0 0 0 127 0" result="hardAlpha"/>
<feOffset dy="4"/>
<feGaussianBlur stdDeviation="2"/>
<feComposite in2="hardAlpha" operator="out"/>
<feColorMatrix type="matrix" values="0 0 0 0 0 0 0 0 0 0 0 0 0 0 0 0 0 0 0.25 0"/>
<feBlend mode="normal" in2="BackgroundImageFix" result="effect1_dropShadow_292_570"/>
<feBlend mode="normal" in="SourceGraphic" in2="effect1_dropShadow_292_570" result="shape"/>
</filter>
</defs>
</svg>
