<svg width="108" height="107" viewBox="0 0 108 107" fill="none" xmlns="http://www.w3.org/2000/svg">
<g filter="url(#filter0_d_134_795)">
<ellipse cx="53.9995" cy="49.5" rx="49.9995" ry="49.5" fill="#D9D9D9"/>
<mask id="path-2-inside-1_134_795" fill="white">
<path d="M26.4386 56.2477C26.5254 55.9707 26.6267 55.6356 26.7569 55.2711C27.2199 53.9009 27.871 51.9036 28.9128 49.4692C29.4336 48.2593 30.0269 46.9328 30.7792 45.548C31.5171 44.1631 32.3853 42.72 33.427 41.306C35.496 38.4634 38.3464 35.7229 42.0215 34.0902C47.1579 31.8016 53.4807 31.4809 58.7618 33.4634C64.1587 35.4896 68.4123 39.6587 70.3802 45.1252C70.7997 46.2914 71.1037 47.4867 71.3061 48.7112C73.1147 59.4255 64.636 71.3206 53.2201 70.4313C52.2797 70.3585 51.3392 70.198 50.4277 69.9357C44.9006 68.3612 41.023 63.9152 40.3719 58.1864C40.3429 57.9095 40.3285 57.6324 40.314 57.3554C40.314 57.0786 40.2995 56.8016 40.314 56.5101C40.3574 54.2796 40.8927 52.0786 41.8332 50.198C41.8911 50.0813 41.949 49.9647 42.0213 49.8481C42.0792 49.7315 42.1371 49.6149 42.2094 49.4983C42.3396 49.2796 42.4698 49.0464 42.6145 48.8277L42.7158 48.6673C42.7447 48.609 42.7882 48.5507 42.8171 48.507L43.0052 48.23C43.0486 48.1571 43.1788 48.0114 43.2656 47.8802L43.4103 47.6907L43.4827 47.6032C43.5405 47.5449 43.4537 47.6324 43.4682 47.6178L43.4971 47.5886C44.1337 46.816 44.8572 46.1746 45.624 45.6353C46.3909 45.0959 47.2301 44.7023 48.0837 44.4399C48.9374 44.1775 49.82 44.0464 50.6881 44.0464C51.5562 44.0609 52.4099 44.1921 53.2346 44.4545C53.3359 44.4837 53.4372 44.5274 53.5384 44.5566C53.6397 44.5857 53.741 44.6294 53.8278 44.6586L53.958 44.7023L54.0304 44.7315L54.0593 44.7461L54.1027 44.7606C54.2185 44.819 54.3487 44.8773 54.4644 44.9356L54.5078 44.9501C54.5657 44.9793 54.4789 44.9356 54.4934 44.9501L54.5513 44.9793L54.667 45.0376C54.7393 45.0813 54.8262 45.1251 54.8985 45.1688C55.0432 45.2563 55.2023 45.3583 55.347 45.4603C56.5045 46.3204 57.2858 47.7052 57.5029 49.0172C57.5606 49.3525 57.5897 49.6732 57.5897 49.9939C57.5897 50.3146 57.5463 50.6353 57.4884 50.9414C57.4307 51.2475 57.3293 51.5391 57.2137 51.816C57.1847 51.8889 57.1558 51.9618 57.1267 52.0201C57.0979 52.093 57.0543 52.1513 57.0256 52.2242C56.9966 52.2971 56.9532 52.3554 56.9243 52.399L56.8809 52.4866L56.8519 52.5303L56.8373 52.5449L56.8228 52.5742C56.765 52.6617 56.7071 52.7345 56.6492 52.8219L56.6058 52.8802L56.5913 52.9092C56.5767 52.9239 56.6491 52.851 56.6058 52.8946L56.5335 52.9966C56.4467 53.1277 56.3454 53.259 56.2586 53.3902C56.0705 53.6526 55.8534 53.9004 55.6364 54.1481C55.2023 54.6293 54.7393 55.0375 54.2619 55.4019C53.3214 56.1308 52.352 56.5828 51.4839 56.7576C50.6157 56.9325 49.8344 56.8159 49.2557 56.5099C48.6625 56.2329 48.2718 55.8392 48.0258 55.577C47.8956 55.4458 47.8088 55.3292 47.7509 55.2563C47.6931 55.1834 47.6641 55.1397 47.6641 55.1397C47.6641 55.1397 47.6786 55.1834 47.7075 55.2708C47.7365 55.3583 47.7799 55.5041 47.8522 55.6789C47.9246 55.8539 48.0258 56.0726 48.1705 56.3348C48.3152 56.5828 48.5178 56.8598 48.8072 57.1513C49.0965 57.4281 49.4582 57.7053 49.9212 57.9239C50.3842 58.1426 50.9341 58.3029 51.5273 58.3612C56.982 58.9297 61.858 53.8714 61.6409 48.4924C61.4239 42.8364 56.2298 39.2067 51.0498 38.6236C45.3781 37.9822 39.9089 41.335 36.6679 45.8831C33.5426 50.2417 32.5443 55.8539 33.3401 61.1163C33.4703 61.9618 33.6439 62.8073 33.8899 63.6382C33.9043 63.6673 30.6923 76.6703 30.6923 76.6703L41.1098 74.1774C41.2255 74.265 41.3413 74.3523 41.457 74.4398C44.264 76.4806 47.5339 77.8073 50.963 78.4048L55.6076 86L60.4693 78.0407L60.8599 77.9386L60.99 77.9096L61.1636 77.8513L61.5253 77.7493L61.8871 77.6327L62.2198 77.516C64.5638 76.7143 66.7341 75.5481 68.7018 74.1195L79.3219 76.6558L76.5873 65.0379C76.949 64.3672 77.282 63.6821 77.5857 62.9824C77.9474 62.1515 78.2657 61.306 78.5406 60.4461L78.7288 59.7901L78.7722 59.6296L78.8157 59.4838L78.8301 59.4109L78.9025 59.1341L78.9748 58.8571L79.0037 58.7259L90 51.8892L78.6853 44.863C78.4249 43.9592 78.1211 43.07 77.7738 42.2099C77.3252 41.0875 76.8188 40.0233 76.2401 38.9883L79.3219 25.9125L66.3724 29.0029C65.7068 28.6385 65.0268 28.2886 64.3323 27.9825C63.2182 27.4869 62.0896 27.0787 60.9609 26.758L54.3778 16L48.0983 26.277C47.7221 26.3499 47.346 26.4227 46.9698 26.5102C45.002 26.9475 43.1211 27.6181 41.3848 28.4636L30.6779 25.898L32.9206 35.4461C32.5878 35.8834 32.284 36.3207 31.9946 36.758C31.4014 37.6472 30.8805 38.5364 30.432 39.4111C29.5204 41.1749 28.8549 42.8805 28.3195 44.4548C28.1893 44.8484 28.0736 45.242 27.9578 45.621L20 50.6356L26.0769 57.3557L26.4386 56.2477Z"/>
</mask>
<path d="M26.4386 56.2477C26.5254 55.9707 26.6267 55.6356 26.7569 55.2711C27.2199 53.9009 27.871 51.9036 28.9128 49.4692C29.4336 48.2593 30.0269 46.9328 30.7792 45.548C31.5171 44.1631 32.3853 42.72 33.427 41.306C35.496 38.4634 38.3464 35.7229 42.0215 34.0902C47.1579 31.8016 53.4807 31.4809 58.7618 33.4634C64.1587 35.4896 68.4123 39.6587 70.3802 45.1252C70.7997 46.2914 71.1037 47.4867 71.3061 48.7112C73.1147 59.4255 64.636 71.3206 53.2201 70.4313C52.2797 70.3585 51.3392 70.198 50.4277 69.9357C44.9006 68.3612 41.023 63.9152 40.3719 58.1864C40.3429 57.9095 40.3285 57.6324 40.314 57.3554C40.314 57.0786 40.2995 56.8016 40.314 56.5101C40.3574 54.2796 40.8927 52.0786 41.8332 50.198C41.8911 50.0813 41.949 49.9647 42.0213 49.8481C42.0792 49.7315 42.1371 49.6149 42.2094 49.4983C42.3396 49.2796 42.4698 49.0464 42.6145 48.8277L42.7158 48.6673C42.7447 48.609 42.7882 48.5507 42.8171 48.507L43.0052 48.23C43.0486 48.1571 43.1788 48.0114 43.2656 47.8802L43.4103 47.6907L43.4827 47.6032C43.5405 47.5449 43.4537 47.6324 43.4682 47.6178L43.4971 47.5886C44.1337 46.816 44.8572 46.1746 45.624 45.6353C46.3909 45.0959 47.2301 44.7023 48.0837 44.4399C48.9374 44.1775 49.82 44.0464 50.6881 44.0464C51.5562 44.0609 52.4099 44.1921 53.2346 44.4545C53.3359 44.4837 53.4372 44.5274 53.5384 44.5566C53.6397 44.5857 53.741 44.6294 53.8278 44.6586L53.958 44.7023L54.0304 44.7315L54.0593 44.7461L54.1027 44.7606C54.2185 44.819 54.3487 44.8773 54.4644 44.9356L54.5078 44.9501C54.5657 44.9793 54.4789 44.9356 54.4934 44.9501L54.5513 44.9793L54.667 45.0376C54.7393 45.0813 54.8262 45.1251 54.8985 45.1688C55.0432 45.2563 55.2023 45.3583 55.347 45.4603C56.5045 46.3204 57.2858 47.7052 57.5029 49.0172C57.5606 49.3525 57.5897 49.6732 57.5897 49.9939C57.5897 50.3146 57.5463 50.6353 57.4884 50.9414C57.4307 51.2475 57.3293 51.5391 57.2137 51.816C57.1847 51.8889 57.1558 51.9618 57.1267 52.0201C57.0979 52.093 57.0543 52.1513 57.0256 52.2242C56.9966 52.2971 56.9532 52.3554 56.9243 52.399L56.8809 52.4866L56.8519 52.5303L56.8373 52.5449L56.8228 52.5742C56.765 52.6617 56.7071 52.7345 56.6492 52.8219L56.6058 52.8802L56.5913 52.9092C56.5767 52.9239 56.6491 52.851 56.6058 52.8946L56.5335 52.9966C56.4467 53.1277 56.3454 53.259 56.2586 53.3902C56.0705 53.6526 55.8534 53.9004 55.6364 54.1481C55.2023 54.6293 54.7393 55.0375 54.2619 55.4019C53.3214 56.1308 52.352 56.5828 51.4839 56.7576C50.6157 56.9325 49.8344 56.8159 49.2557 56.5099C48.6625 56.2329 48.2718 55.8392 48.0258 55.577C47.8956 55.4458 47.8088 55.3292 47.7509 55.2563C47.6931 55.1834 47.6641 55.1397 47.6641 55.1397C47.6641 55.1397 47.6786 55.1834 47.7075 55.2708C47.7365 55.3583 47.7799 55.5041 47.8522 55.6789C47.9246 55.8539 48.0258 56.0726 48.1705 56.3348C48.3152 56.5828 48.5178 56.8598 48.8072 57.1513C49.0965 57.4281 49.4582 57.7053 49.9212 57.9239C50.3842 58.1426 50.9341 58.3029 51.5273 58.3612C56.982 58.9297 61.858 53.8714 61.6409 48.4924C61.4239 42.8364 56.2298 39.2067 51.0498 38.6236C45.3781 37.9822 39.9089 41.335 36.6679 45.8831C33.5426 50.2417 32.5443 55.8539 33.3401 61.1163C33.4703 61.9618 33.6439 62.8073 33.8899 63.6382C33.9043 63.6673 30.6923 76.6703 30.6923 76.6703L41.1098 74.1774C41.2255 74.265 41.3413 74.3523 41.457 74.4398C44.264 76.4806 47.5339 77.8073 50.963 78.4048L55.6076 86L60.4693 78.0407L60.8599 77.9386L60.99 77.9096L61.1636 77.8513L61.5253 77.7493L61.8871 77.6327L62.2198 77.516C64.5638 76.7143 66.7341 75.5481 68.7018 74.1195L79.3219 76.6558L76.5873 65.0379C76.949 64.3672 77.282 63.6821 77.5857 62.9824C77.9474 62.1515 78.2657 61.306 78.5406 60.4461L78.7288 59.7901L78.7722 59.6296L78.8157 59.4838L78.8301 59.4109L78.9025 59.1341L78.9748 58.8571L79.0037 58.7259L90 51.8892L78.6853 44.863C78.4249 43.9592 78.1211 43.07 77.7738 42.2099C77.3252 41.0875 76.8188 40.0233 76.2401 38.9883L79.3219 25.9125L66.3724 29.0029C65.7068 28.6385 65.0268 28.2886 64.3323 27.9825C63.2182 27.4869 62.0896 27.0787 60.9609 26.758L54.3778 16L48.0983 26.277C47.7221 26.3499 47.346 26.4227 46.9698 26.5102C45.002 26.9475 43.1211 27.6181 41.3848 28.4636L30.6779 25.898L32.9206 35.4461C32.5878 35.8834 32.284 36.3207 31.9946 36.758C31.4014 37.6472 30.8805 38.5364 30.432 39.4111C29.5204 41.1749 28.8549 42.8805 28.3195 44.4548C28.1893 44.8484 28.0736 45.242 27.9578 45.621L20 50.6356L26.0769 57.3557L26.4386 56.2477Z" stroke="black" stroke-width="3" mask="url(#path-2-inside-1_134_795)"/>
</g>
<defs>
<filter id="filter0_d_134_795" x="0" y="0" width="108" height="107" filterUnits="userSpaceOnUse" color-interpolation-filters="sRGB">
<feFlood flood-opacity="0" result="BackgroundImageFix"/>
<feColorMatrix in="SourceAlpha" type="matrix" values="0 0 0 0 0 0 0 0 0 0 0 0 0 0 0 0 0 0 127 0" result="hardAlpha"/>
<feOffset dy="4"/>
<feGaussianBlur stdDeviation="2"/>
<feComposite in2="hardAlpha" operator="out"/>
<feColorMatrix type="matrix" values="0 0 0 0 0 0 0 0 0 0 0 0 0 0 0 0 0 0 0.25 0"/>
<feBlend mode="normal" in2="BackgroundImageFix" result="effect1_dropShadow_134_795"/>
<feBlend mode="normal" in="SourceGraphic" in2="effect1_dropShadow_134_795" result="shape"/>
</filter>
</defs>
</svg>
